<ttFont>
    <TTGlyph name=".notdef" xMin="102" yMin="0" xMax="922" yMax="1462">
      <contour>
        <pt x="102" y="0" on="1"/>
        <pt x="102" y="1462" on="1"/>
        <pt x="922" y="1462" on="1"/>
        <pt x="922" y="0" on="1"/>
      </contour>
      <contour>
        <pt x="201" y="98" on="1"/>
        <pt x="823" y="98" on="1"/>
        <pt x="823" y="1364" on="1"/>
        <pt x="201" y="1364" on="1"/>
      </contour>
    </TTGlyph>
    <TTGlyph name="uni0E01" xMin="133" yMin="0" xMax="1059" yMax="1147">
      <contour>
        <pt x="166" y="0" on="1"/>
        <pt x="166" y="393" on="1"/>
        <pt x="166" y="622" on="0"/>
        <pt x="387" y="670" on="1"/>
        <pt x="349" y="703" on="0"/>
        <pt x="183" y="750" on="0"/>
        <pt x="133" y="750" on="1"/>
        <pt x="147" y="955" on="0"/>
        <pt x="383" y="1147" on="0"/>
        <pt x="610" y="1147" on="1"/>
        <pt x="840" y="1147" on="0"/>
        <pt x="1059" y="934" on="0"/>
        <pt x="1059" y="696" on="1"/>
        <pt x="1059" y="119" on="1"/>
        <pt x="958" y="0" on="1"/>
        <pt x="891" y="0" on="1"/>
        <pt x="891" y="715" on="1"/>
        <pt x="891" y="901" on="0"/>
        <pt x="745" y="1057" on="0"/>
        <pt x="594" y="1057" on="1"/>
        <pt x="464" y="1057" on="0"/>
        <pt x="313" y="923" on="0"/>
        <pt x="305" y="797" on="1"/>
        <pt x="373" y="787" on="0"/>
        <pt x="511" y="709" on="0"/>
        <pt x="551" y="662" on="1"/>
        <pt x="551" y="645" on="1"/>
        <pt x="435" y="622" on="0"/>
        <pt x="334" y="497" on="0"/>
        <pt x="334" y="391" on="1"/>
        <pt x="334" y="0" on="1"/>
      </contour>
    </TTGlyph>
    <TTGlyph name="uni0E02" xMin="59" yMin="0" xMax="1128" yMax="1147">
      <contour>
        <pt x="319" y="86" on="1"/>
        <pt x="481" y="86" on="1"/>
        <pt x="481" y="494" on="1"/>
        <pt x="481" y="624" on="0"/>
        <pt x="560" y="778" on="0"/>
        <pt x="643" y="831" on="1"/>
        <pt x="635" y="933" on="0"/>
        <pt x="508" y="1057" on="0"/>
        <pt x="408" y="1057" on="1"/>
        <pt x="296" y="1057" on="0"/>
        <pt x="179" y="965" on="0"/>
        <pt x="168" y="887" on="1"/>
        <pt x="187" y="910" on="0"/>
        <pt x="264" y="940" on="0"/>
        <pt x="301" y="940" on="1"/>
        <pt x="374" y="940" on="0"/>
        <pt x="463" y="850" on="0"/>
        <pt x="463" y="770" on="1"/>
        <pt x="463" y="693" on="0"/>
        <pt x="366" y="600" on="0"/>
        <pt x="281" y="600" on="1"/>
        <pt x="172" y="600" on="0"/>
        <pt x="59" y="725" on="0"/>
        <pt x="59" y="838" on="1"/>
        <pt x="59" y="980" on="0"/>
        <pt x="259" y="1147" on="0"/>
        <pt x="434" y="1147" on="1"/>
        <pt x="586" y="1147" on="0"/>
        <pt x="779" y="975" on="0"/>
        <pt x="791" y="829" on="1"/>
        <pt x="736" y="786" on="0"/>
        <pt x="675" y="701" on="0"/>
        <pt x="649" y="602" on="0"/>
        <pt x="649" y="500" on="1"/>
        <pt x="649" y="86" on="1"/>
        <pt x="717" y="86" on="1"/>
        <pt x="835" y="86" on="0"/>
        <pt x="961" y="247" on="0"/>
        <pt x="961" y="389" on="1"/>
        <pt x="961" y="1008" on="1"/>
        <pt x="1061" y="1126" on="1"/>
        <pt x="1128" y="1126" on="1"/>
        <pt x="1128" y="354" on="1"/>
        <pt x="1128" y="185" on="0"/>
        <pt x="946" y="0" on="0"/>
        <pt x="782" y="0" on="1"/>
        <pt x="319" y="0" on="1"/>
      </contour>
      <contour>
        <pt x="369" y="770" on="1"/>
        <pt x="369" y="808" on="0"/>
        <pt x="319" y="856" on="0"/>
        <pt x="279" y="856" on="1"/>
        <pt x="240" y="856" on="0"/>
        <pt x="190" y="808" on="0"/>
        <pt x="190" y="770" on="1"/>
        <pt x="190" y="730" on="0"/>
        <pt x="240" y="682" on="0"/>
        <pt x="279" y="682" on="1"/>
        <pt x="319" y="682" on="0"/>
        <pt x="369" y="730" on="0"/>
      </contour>
    </TTGlyph>
    <TTGlyph name="uni0E03" xMin="59" yMin="0" xMax="1128" yMax="1141">
      <contour>
        <pt x="289" y="1038" on="1"/>
        <pt x="189" y="993" on="0"/>
        <pt x="168" y="846" on="1"/>
        <pt x="187" y="869" on="0"/>
        <pt x="264" y="899" on="0"/>
        <pt x="301" y="899" on="1"/>
        <pt x="374" y="899" on="0"/>
        <pt x="463" y="809" on="0"/>
        <pt x="463" y="729" on="1"/>
        <pt x="463" y="652" on="0"/>
        <pt x="366" y="559" on="0"/>
        <pt x="281" y="559" on="1"/>
        <pt x="172" y="559" on="0"/>
        <pt x="59" y="684" on="0"/>
        <pt x="59" y="795" on="1"/>
        <pt x="59" y="918" on="0"/>
        <pt x="190" y="1109" on="0"/>
        <pt x="299" y="1141" on="1"/>
        <pt x="434" y="1018" on="1"/>
        <pt x="569" y="1141" on="1"/>
        <pt x="665" y="1108" on="0"/>
        <pt x="782" y="939" on="0"/>
        <pt x="791" y="829" on="1"/>
        <pt x="736" y="786" on="0"/>
        <pt x="675" y="701" on="0"/>
        <pt x="649" y="602" on="0"/>
        <pt x="649" y="500" on="1"/>
        <pt x="649" y="86" on="1"/>
        <pt x="717" y="86" on="1"/>
        <pt x="835" y="86" on="0"/>
        <pt x="961" y="247" on="0"/>
        <pt x="961" y="389" on="1"/>
        <pt x="961" y="1008" on="1"/>
        <pt x="1061" y="1126" on="1"/>
        <pt x="1128" y="1126" on="1"/>
        <pt x="1128" y="354" on="1"/>
        <pt x="1128" y="185" on="0"/>
        <pt x="946" y="0" on="0"/>
        <pt x="782" y="0" on="1"/>
        <pt x="319" y="0" on="1"/>
        <pt x="319" y="86" on="1"/>
        <pt x="481" y="86" on="1"/>
        <pt x="481" y="494" on="1"/>
        <pt x="481" y="624" on="0"/>
        <pt x="560" y="778" on="0"/>
        <pt x="643" y="831" on="1"/>
        <pt x="639" y="889" on="0"/>
        <pt x="593" y="993" on="0"/>
        <pt x="561" y="1020" on="1"/>
        <pt x="434" y="909" on="1"/>
      </contour>
      <contour>
        <pt x="369" y="729" on="1"/>
        <pt x="369" y="767" on="0"/>
        <pt x="319" y="815" on="0"/>
        <pt x="279" y="815" on="1"/>
        <pt x="240" y="815" on="0"/>
        <pt x="190" y="767" on="0"/>
        <pt x="190" y="729" on="1"/>
        <pt x="190" y="689" on="0"/>
        <pt x="240" y="641" on="0"/>
        <pt x="279" y="641" on="1"/>
        <pt x="319" y="641" on="0"/>
        <pt x="369" y="689" on="0"/>
      </contour>
    </TTGlyph>
    <TTGlyph name="uni0E04" xMin="113" yMin="0" xMax="1114" yMax="1147">
      <contour>
        <pt x="451" y="467" on="1"/>
        <pt x="413" y="426" on="0"/>
        <pt x="367" y="246" on="0"/>
        <pt x="365" y="127" on="1"/>
        <pt x="365" y="0" on="1"/>
        <pt x="197" y="0" on="1"/>
        <pt x="197" y="139" on="1"/>
        <pt x="197" y="329" on="0"/>
        <pt x="155" y="480" on="1"/>
        <pt x="130" y="569" on="0"/>
        <pt x="113" y="673" on="0"/>
        <pt x="113" y="729" on="1"/>
        <pt x="113" y="923" on="0"/>
        <pt x="381" y="1147" on="0"/>
        <pt x="618" y="1147" on="1"/>
        <pt x="866" y="1147" on="0"/>
        <pt x="1114" y="923" on="0"/>
        <pt x="1114" y="696" on="1"/>
        <pt x="1114" y="119" on="1"/>
        <pt x="1014" y="0" on="1"/>
        <pt x="946" y="0" on="1"/>
        <pt x="946" y="713" on="1"/>
        <pt x="946" y="1055" on="0"/>
        <pt x="618" y="1055" on="1"/>
        <pt x="451" y="1055" on="0"/>
        <pt x="258" y="894" on="0"/>
        <pt x="258" y="758" on="1"/>
        <pt x="258" y="704" on="0"/>
        <pt x="280" y="598" on="0"/>
        <pt x="312" y="500" on="1"/>
        <pt x="336" y="410" on="1"/>
        <pt x="372" y="556" on="0"/>
        <pt x="442" y="691" on="0"/>
        <pt x="541" y="760" on="0"/>
        <pt x="608" y="760" on="1"/>
        <pt x="705" y="760" on="0"/>
        <pt x="811" y="659" on="0"/>
        <pt x="811" y="569" on="1"/>
        <pt x="811" y="478" on="0"/>
        <pt x="705" y="379" on="0"/>
        <pt x="608" y="379" on="1"/>
        <pt x="499" y="379" on="0"/>
      </contour>
      <contour>
        <pt x="504" y="567" on="1"/>
        <pt x="504" y="519" on="0"/>
        <pt x="558" y="465" on="0"/>
        <pt x="606" y="465" on="1"/>
        <pt x="654" y="465" on="0"/>
        <pt x="711" y="519" on="0"/>
        <pt x="711" y="567" on="1"/>
        <pt x="711" y="615" on="0"/>
        <pt x="654" y="672" on="0"/>
        <pt x="606" y="672" on="1"/>
        <pt x="558" y="672" on="0"/>
        <pt x="504" y="615" on="0"/>
      </contour>
    </TTGlyph>
    <TTGlyph name="uni0E05" xMin="113" yMin="0" xMax="1114" yMax="1143">
      <contour>
        <pt x="440" y="1032" on="1"/>
        <pt x="351" y="998" on="0"/>
        <pt x="258" y="854" on="0"/>
        <pt x="258" y="758" on="1"/>
        <pt x="258" y="704" on="0"/>
        <pt x="280" y="598" on="0"/>
        <pt x="312" y="500" on="1"/>
        <pt x="336" y="410" on="1"/>
        <pt x="372" y="556" on="0"/>
        <pt x="442" y="691" on="0"/>
        <pt x="541" y="760" on="0"/>
        <pt x="608" y="760" on="1"/>
        <pt x="705" y="760" on="0"/>
        <pt x="811" y="659" on="0"/>
        <pt x="811" y="569" on="1"/>
        <pt x="811" y="478" on="0"/>
        <pt x="705" y="379" on="0"/>
        <pt x="608" y="379" on="1"/>
        <pt x="499" y="379" on="0"/>
        <pt x="451" y="467" on="1"/>
        <pt x="413" y="426" on="0"/>
        <pt x="367" y="246" on="0"/>
        <pt x="365" y="127" on="1"/>
        <pt x="365" y="0" on="1"/>
        <pt x="197" y="0" on="1"/>
        <pt x="197" y="139" on="1"/>
        <pt x="197" y="329" on="0"/>
        <pt x="155" y="480" on="1"/>
        <pt x="130" y="569" on="0"/>
        <pt x="113" y="673" on="0"/>
        <pt x="113" y="729" on="1"/>
        <pt x="113" y="888" on="0"/>
        <pt x="286" y="1108" on="0"/>
        <pt x="442" y="1143" on="1"/>
        <pt x="618" y="987" on="1"/>
        <pt x="795" y="1143" on="1"/>
        <pt x="951" y="1107" on="0"/>
        <pt x="1114" y="881" on="0"/>
        <pt x="1114" y="696" on="1"/>
        <pt x="1114" y="119" on="1"/>
        <pt x="1014" y="0" on="1"/>
        <pt x="946" y="0" on="1"/>
        <pt x="946" y="713" on="1"/>
        <pt x="946" y="960" on="0"/>
        <pt x="795" y="1032" on="1"/>
        <pt x="618" y="874" on="1"/>
      </contour>
      <contour>
        <pt x="504" y="567" on="1"/>
        <pt x="504" y="519" on="0"/>
        <pt x="558" y="465" on="0"/>
        <pt x="606" y="465" on="1"/>
        <pt x="654" y="465" on="0"/>
        <pt x="711" y="519" on="0"/>
        <pt x="711" y="567" on="1"/>
        <pt x="711" y="615" on="0"/>
        <pt x="654" y="672" on="0"/>
        <pt x="606" y="672" on="1"/>
        <pt x="558" y="672" on="0"/>
        <pt x="504" y="615" on="0"/>
      </contour>
    </TTGlyph>
    <TTGlyph name="uni0E06" xMin="59" yMin="-18" xMax="1128" yMax="1141">
      <contour>
        <pt x="317" y="162" on="1"/>
        <pt x="317" y="115" on="0"/>
        <pt x="368" y="66" on="0"/>
        <pt x="403" y="66" on="1"/>
        <pt x="481" y="66" on="0"/>
        <pt x="481" y="158" on="1"/>
        <pt x="481" y="322" on="1"/>
        <pt x="405" y="310" on="0"/>
        <pt x="317" y="226" on="0"/>
      </contour>
      <contour>
        <pt x="481" y="494" on="1"/>
        <pt x="481" y="624" on="0"/>
        <pt x="560" y="778" on="0"/>
        <pt x="643" y="831" on="1"/>
        <pt x="639" y="889" on="0"/>
        <pt x="593" y="993" on="0"/>
        <pt x="561" y="1020" on="1"/>
        <pt x="434" y="909" on="1"/>
        <pt x="289" y="1038" on="1"/>
        <pt x="189" y="993" on="0"/>
        <pt x="168" y="846" on="1"/>
        <pt x="187" y="869" on="0"/>
        <pt x="264" y="899" on="0"/>
        <pt x="301" y="899" on="1"/>
        <pt x="374" y="899" on="0"/>
        <pt x="463" y="809" on="0"/>
        <pt x="463" y="729" on="1"/>
        <pt x="463" y="652" on="0"/>
        <pt x="366" y="559" on="0"/>
        <pt x="281" y="559" on="1"/>
        <pt x="172" y="559" on="0"/>
        <pt x="59" y="684" on="0"/>
        <pt x="59" y="795" on="1"/>
        <pt x="59" y="918" on="0"/>
        <pt x="190" y="1109" on="0"/>
        <pt x="299" y="1141" on="1"/>
        <pt x="434" y="1018" on="1"/>
        <pt x="569" y="1141" on="1"/>
        <pt x="665" y="1108" on="0"/>
        <pt x="782" y="939" on="0"/>
        <pt x="791" y="829" on="1"/>
        <pt x="736" y="786" on="0"/>
        <pt x="675" y="701" on="0"/>
        <pt x="649" y="602" on="0"/>
        <pt x="649" y="500" on="1"/>
        <pt x="649" y="395" on="1"/>
        <pt x="749" y="372" on="0"/>
        <pt x="899" y="265" on="0"/>
        <pt x="961" y="193" on="1"/>
        <pt x="961" y="1008" on="1"/>
        <pt x="1061" y="1126" on="1"/>
        <pt x="1128" y="1126" on="1"/>
        <pt x="1128" y="0" on="1"/>
        <pt x="961" y="0" on="1"/>
        <pt x="877" y="135" on="0"/>
        <pt x="728" y="281" on="0"/>
        <pt x="649" y="309" on="1"/>
        <pt x="649" y="211" on="1"/>
        <pt x="649" y="97" on="0"/>
        <pt x="543" y="-18" on="0"/>
        <pt x="426" y="-18" on="1"/>
        <pt x="326" y="-18" on="0"/>
        <pt x="223" y="80" on="0"/>
        <pt x="223" y="162" on="1"/>
        <pt x="223" y="261" on="0"/>
        <pt x="358" y="387" on="0"/>
        <pt x="481" y="401" on="1"/>
      </contour>
      <contour>
        <pt x="369" y="729" on="1"/>
        <pt x="369" y="767" on="0"/>
        <pt x="319" y="815" on="0"/>
        <pt x="279" y="815" on="1"/>
        <pt x="240" y="815" on="0"/>
        <pt x="190" y="767" on="0"/>
        <pt x="190" y="729" on="1"/>
        <pt x="190" y="689" on="0"/>
        <pt x="240" y="641" on="0"/>
        <pt x="279" y="641" on="1"/>
        <pt x="319" y="641" on="0"/>
        <pt x="369" y="689" on="0"/>
      </contour>
    </TTGlyph>
    <TTGlyph name="uni0E07" xMin="49" yMin="-20" xMax="805" yMax="1137">
      <contour>
        <pt x="588" y="756" on="1"/>
        <pt x="498" y="756" on="0"/>
        <pt x="397" y="855" on="0"/>
        <pt x="397" y="946" on="1"/>
        <pt x="397" y="1036" on="0"/>
        <pt x="503" y="1137" on="0"/>
        <pt x="600" y="1137" on="1"/>
        <pt x="699" y="1137" on="0"/>
        <pt x="805" y="1036" on="0"/>
        <pt x="805" y="946" on="1"/>
        <pt x="805" y="313" on="1"/>
        <pt x="805" y="132" on="0"/>
        <pt x="685" y="-20" on="0"/>
        <pt x="539" y="-20" on="1"/>
        <pt x="445" y="-20" on="0"/>
        <pt x="333" y="35" on="0"/>
        <pt x="256" y="164" on="0"/>
        <pt x="209" y="332" on="1"/>
        <pt x="183" y="426" on="0"/>
        <pt x="147" y="532" on="0"/>
        <pt x="114" y="583" on="0"/>
        <pt x="77" y="594" on="0"/>
        <pt x="49" y="594" on="1"/>
        <pt x="49" y="680" on="1"/>
        <pt x="174" y="680" on="0"/>
        <pt x="268" y="636" on="0"/>
        <pt x="332" y="515" on="0"/>
        <pt x="369" y="375" on="1"/>
        <pt x="403" y="246" on="0"/>
        <pt x="452" y="118" on="0"/>
        <pt x="500" y="63" on="0"/>
        <pt x="543" y="63" on="1"/>
        <pt x="594" y="63" on="0"/>
        <pt x="637" y="155" on="0"/>
        <pt x="637" y="268" on="1"/>
        <pt x="637" y="760" on="1"/>
        <pt x="627" y="756" on="0"/>
      </contour>
      <contour>
        <pt x="500" y="946" on="1"/>
        <pt x="500" y="898" on="0"/>
        <pt x="554" y="844" on="0"/>
        <pt x="602" y="844" on="1"/>
        <pt x="650" y="844" on="0"/>
        <pt x="707" y="898" on="0"/>
        <pt x="707" y="946" on="1"/>
        <pt x="707" y="994" on="0"/>
        <pt x="650" y="1051" on="0"/>
        <pt x="602" y="1051" on="1"/>
        <pt x="554" y="1051" on="0"/>
        <pt x="500" y="994" on="0"/>
      </contour>
    </TTGlyph>
    <TTGlyph name="uni0E08" xMin="94" yMin="-20" xMax="1024" yMax="1147">
      <contour>
        <pt x="762" y="-20" on="1"/>
        <pt x="667" y="-20" on="0"/>
        <pt x="556" y="31" on="0"/>
        <pt x="480" y="149" on="0"/>
        <pt x="444" y="274" on="1"/>
        <pt x="418" y="369" on="1"/>
        <pt x="366" y="348" on="0"/>
        <pt x="313" y="348" on="1"/>
        <pt x="214" y="348" on="0"/>
        <pt x="111" y="448" on="0"/>
        <pt x="111" y="539" on="1"/>
        <pt x="111" y="628" on="0"/>
        <pt x="216" y="729" on="0"/>
        <pt x="313" y="729" on="1"/>
        <pt x="405" y="729" on="0"/>
        <pt x="518" y="615" on="0"/>
        <pt x="555" y="487" on="1"/>
        <pt x="637" y="211" on="1"/>
        <pt x="660" y="132" on="0"/>
        <pt x="720" y="63" on="0"/>
        <pt x="760" y="63" on="1"/>
        <pt x="814" y="63" on="0"/>
        <pt x="856" y="158" on="0"/>
        <pt x="856" y="268" on="1"/>
        <pt x="856" y="686" on="1"/>
        <pt x="856" y="864" on="0"/>
        <pt x="690" y="1049" on="0"/>
        <pt x="541" y="1049" on="1"/>
        <pt x="328" y="1049" on="0"/>
        <pt x="141" y="930" on="1"/>
        <pt x="94" y="1008" on="1"/>
        <pt x="296" y="1147" on="0"/>
        <pt x="559" y="1147" on="1"/>
        <pt x="786" y="1147" on="0"/>
        <pt x="1024" y="913" on="0"/>
        <pt x="1024" y="700" on="1"/>
        <pt x="1024" y="313" on="1"/>
        <pt x="1024" y="130" on="0"/>
        <pt x="904" y="-20" on="0"/>
      </contour>
      <contour>
        <pt x="213" y="539" on="1"/>
        <pt x="213" y="491" on="0"/>
        <pt x="267" y="436" on="0"/>
        <pt x="315" y="436" on="1"/>
        <pt x="363" y="436" on="0"/>
        <pt x="420" y="491" on="0"/>
        <pt x="420" y="539" on="1"/>
        <pt x="420" y="587" on="0"/>
        <pt x="363" y="643" on="0"/>
        <pt x="315" y="643" on="1"/>
        <pt x="267" y="643" on="0"/>
        <pt x="213" y="587" on="0"/>
      </contour>
    </TTGlyph>
    <TTGlyph name="uni0E09" xMin="86" yMin="-18" xMax="1282" yMax="1147">
      <contour>
        <pt x="494" y="168" on="1"/>
        <pt x="640" y="334" on="0"/>
        <pt x="856" y="387" on="1"/>
        <pt x="856" y="686" on="1"/>
        <pt x="856" y="864" on="0"/>
        <pt x="690" y="1049" on="0"/>
        <pt x="541" y="1049" on="1"/>
        <pt x="328" y="1049" on="0"/>
        <pt x="141" y="930" on="1"/>
        <pt x="94" y="1008" on="1"/>
        <pt x="296" y="1147" on="0"/>
        <pt x="559" y="1147" on="1"/>
        <pt x="786" y="1147" on="0"/>
        <pt x="1024" y="913" on="0"/>
        <pt x="1024" y="700" on="1"/>
        <pt x="1024" y="401" on="1"/>
        <pt x="1147" y="387" on="0"/>
        <pt x="1282" y="261" on="0"/>
        <pt x="1282" y="162" on="1"/>
        <pt x="1282" y="80" on="0"/>
        <pt x="1179" y="-18" on="0"/>
        <pt x="1079" y="-18" on="1"/>
        <pt x="962" y="-18" on="0"/>
        <pt x="856" y="96" on="0"/>
        <pt x="856" y="211" on="1"/>
        <pt x="856" y="309" on="1"/>
        <pt x="633" y="227" on="0"/>
        <pt x="494" y="0" on="1"/>
        <pt x="326" y="0" on="1"/>
        <pt x="326" y="387" on="1"/>
        <pt x="316" y="383" on="0"/>
        <pt x="276" y="383" on="1"/>
        <pt x="187" y="383" on="0"/>
        <pt x="86" y="482" on="0"/>
        <pt x="86" y="573" on="1"/>
        <pt x="86" y="663" on="0"/>
        <pt x="192" y="766" on="0"/>
        <pt x="289" y="766" on="1"/>
        <pt x="388" y="766" on="0"/>
        <pt x="494" y="663" on="0"/>
        <pt x="494" y="573" on="1"/>
      </contour>
      <contour>
        <pt x="1188" y="162" on="1"/>
        <pt x="1188" y="227" on="0"/>
        <pt x="1100" y="310" on="0"/>
        <pt x="1024" y="322" on="1"/>
        <pt x="1024" y="158" on="1"/>
        <pt x="1024" y="113" on="0"/>
        <pt x="1065" y="66" on="0"/>
        <pt x="1102" y="66" on="1"/>
        <pt x="1137" y="66" on="0"/>
        <pt x="1188" y="115" on="0"/>
      </contour>
      <contour>
        <pt x="188" y="573" on="1"/>
        <pt x="188" y="525" on="0"/>
        <pt x="243" y="471" on="0"/>
        <pt x="291" y="471" on="1"/>
        <pt x="339" y="471" on="0"/>
        <pt x="395" y="525" on="0"/>
        <pt x="395" y="573" on="1"/>
        <pt x="395" y="621" on="0"/>
        <pt x="339" y="678" on="0"/>
        <pt x="291" y="678" on="1"/>
        <pt x="243" y="678" on="0"/>
        <pt x="188" y="621" on="0"/>
      </contour>
    </TTGlyph>
    <TTGlyph name="uni0E0A" xMin="59" yMin="0" xMax="1346" yMax="1206">
      <contour>
        <pt x="369" y="770" on="1"/>
        <pt x="369" y="808" on="0"/>
        <pt x="319" y="856" on="0"/>
        <pt x="279" y="856" on="1"/>
        <pt x="240" y="856" on="0"/>
        <pt x="190" y="808" on="0"/>
        <pt x="190" y="770" on="1"/>
        <pt x="190" y="730" on="0"/>
        <pt x="240" y="682" on="0"/>
        <pt x="279" y="682" on="1"/>
        <pt x="319" y="682" on="0"/>
        <pt x="369" y="730" on="0"/>
      </contour>
      <contour>
        <pt x="961" y="670" on="1"/>
        <pt x="961" y="791" on="0"/>
        <pt x="866" y="827" on="1"/>
        <pt x="866" y="874" on="1"/>
        <pt x="919" y="890" on="0"/>
        <pt x="1010" y="981" on="0"/>
        <pt x="1096" y="1114" on="1"/>
        <pt x="1157" y="1206" on="1"/>
        <pt x="1346" y="1206" on="1"/>
        <pt x="1201" y="996" on="0"/>
        <pt x="1148" y="933" on="0"/>
        <pt x="1096" y="889" on="0"/>
        <pt x="1042" y="860" on="0"/>
        <pt x="1008" y="850" on="1"/>
        <pt x="1068" y="830" on="0"/>
        <pt x="1128" y="738" on="0"/>
        <pt x="1128" y="678" on="1"/>
        <pt x="1128" y="354" on="1"/>
        <pt x="1128" y="185" on="0"/>
        <pt x="946" y="0" on="0"/>
        <pt x="782" y="0" on="1"/>
        <pt x="319" y="0" on="1"/>
        <pt x="319" y="86" on="1"/>
        <pt x="481" y="86" on="1"/>
        <pt x="481" y="494" on="1"/>
        <pt x="481" y="624" on="0"/>
        <pt x="560" y="778" on="0"/>
        <pt x="643" y="831" on="1"/>
        <pt x="635" y="933" on="0"/>
        <pt x="508" y="1057" on="0"/>
        <pt x="408" y="1057" on="1"/>
        <pt x="296" y="1057" on="0"/>
        <pt x="179" y="965" on="0"/>
        <pt x="168" y="887" on="1"/>
        <pt x="187" y="910" on="0"/>
        <pt x="264" y="940" on="0"/>
        <pt x="301" y="940" on="1"/>
        <pt x="374" y="940" on="0"/>
        <pt x="463" y="850" on="0"/>
        <pt x="463" y="770" on="1"/>
        <pt x="463" y="693" on="0"/>
        <pt x="366" y="600" on="0"/>
        <pt x="281" y="600" on="1"/>
        <pt x="172" y="600" on="0"/>
        <pt x="59" y="725" on="0"/>
        <pt x="59" y="838" on="1"/>
        <pt x="59" y="980" on="0"/>
        <pt x="259" y="1147" on="0"/>
        <pt x="434" y="1147" on="1"/>
        <pt x="586" y="1147" on="0"/>
        <pt x="779" y="975" on="0"/>
        <pt x="791" y="829" on="1"/>
        <pt x="736" y="786" on="0"/>
        <pt x="675" y="701" on="0"/>
        <pt x="649" y="602" on="0"/>
        <pt x="649" y="500" on="1"/>
        <pt x="649" y="86" on="1"/>
        <pt x="717" y="86" on="1"/>
        <pt x="835" y="86" on="0"/>
        <pt x="961" y="247" on="0"/>
        <pt x="961" y="389" on="1"/>
      </contour>
    </TTGlyph>
    <TTGlyph name="uni0E0B" xMin="59" yMin="0" xMax="1346" yMax="1206">
      <contour>
        <pt x="481" y="494" on="1"/>
        <pt x="481" y="624" on="0"/>
        <pt x="560" y="778" on="0"/>
        <pt x="643" y="831" on="1"/>
        <pt x="639" y="889" on="0"/>
        <pt x="593" y="993" on="0"/>
        <pt x="561" y="1020" on="1"/>
        <pt x="434" y="909" on="1"/>
        <pt x="289" y="1038" on="1"/>
        <pt x="189" y="993" on="0"/>
        <pt x="168" y="846" on="1"/>
        <pt x="187" y="869" on="0"/>
        <pt x="264" y="899" on="0"/>
        <pt x="301" y="899" on="1"/>
        <pt x="374" y="899" on="0"/>
        <pt x="463" y="809" on="0"/>
        <pt x="463" y="729" on="1"/>
        <pt x="463" y="652" on="0"/>
        <pt x="366" y="559" on="0"/>
        <pt x="281" y="559" on="1"/>
        <pt x="172" y="559" on="0"/>
        <pt x="59" y="684" on="0"/>
        <pt x="59" y="795" on="1"/>
        <pt x="59" y="918" on="0"/>
        <pt x="190" y="1109" on="0"/>
        <pt x="299" y="1141" on="1"/>
        <pt x="434" y="1018" on="1"/>
        <pt x="569" y="1141" on="1"/>
        <pt x="665" y="1108" on="0"/>
        <pt x="782" y="939" on="0"/>
        <pt x="791" y="829" on="1"/>
        <pt x="736" y="786" on="0"/>
        <pt x="675" y="701" on="0"/>
        <pt x="649" y="602" on="0"/>
        <pt x="649" y="500" on="1"/>
        <pt x="649" y="86" on="1"/>
        <pt x="717" y="86" on="1"/>
        <pt x="835" y="86" on="0"/>
        <pt x="961" y="247" on="0"/>
        <pt x="961" y="389" on="1"/>
        <pt x="961" y="670" on="1"/>
        <pt x="961" y="791" on="0"/>
        <pt x="866" y="827" on="1"/>
        <pt x="866" y="874" on="1"/>
        <pt x="919" y="890" on="0"/>
        <pt x="1010" y="981" on="0"/>
        <pt x="1096" y="1114" on="1"/>
        <pt x="1157" y="1206" on="1"/>
        <pt x="1346" y="1206" on="1"/>
        <pt x="1201" y="996" on="0"/>
        <pt x="1148" y="933" on="0"/>
        <pt x="1096" y="889" on="0"/>
        <pt x="1042" y="860" on="0"/>
        <pt x="1008" y="850" on="1"/>
        <pt x="1068" y="830" on="0"/>
        <pt x="1128" y="738" on="0"/>
        <pt x="1128" y="678" on="1"/>
        <pt x="1128" y="354" on="1"/>
        <pt x="1128" y="185" on="0"/>
        <pt x="946" y="0" on="0"/>
        <pt x="782" y="0" on="1"/>
        <pt x="319" y="0" on="1"/>
        <pt x="319" y="86" on="1"/>
        <pt x="481" y="86" on="1"/>
      </contour>
      <contour>
        <pt x="369" y="729" on="1"/>
        <pt x="369" y="767" on="0"/>
        <pt x="319" y="815" on="0"/>
        <pt x="279" y="815" on="1"/>
        <pt x="240" y="815" on="0"/>
        <pt x="190" y="767" on="0"/>
        <pt x="190" y="729" on="1"/>
        <pt x="190" y="689" on="0"/>
        <pt x="240" y="641" on="0"/>
        <pt x="279" y="641" on="1"/>
        <pt x="319" y="641" on="0"/>
        <pt x="369" y="689" on="0"/>
      </contour>
    </TTGlyph>
    <TTGlyph name="uni0E0C" xMin="133" yMin="-18" xMax="1556" yMax="1147">
      <contour>
        <pt x="745" y="162" on="1"/>
        <pt x="745" y="115" on="0"/>
        <pt x="796" y="66" on="0"/>
        <pt x="831" y="66" on="1"/>
        <pt x="909" y="66" on="0"/>
        <pt x="909" y="158" on="1"/>
        <pt x="909" y="322" on="1"/>
        <pt x="833" y="310" on="0"/>
        <pt x="745" y="226" on="0"/>
      </contour>
      <contour>
        <pt x="166" y="393" on="1"/>
        <pt x="166" y="509" on="0"/>
        <pt x="276" y="645" on="0"/>
        <pt x="387" y="670" on="1"/>
        <pt x="349" y="703" on="0"/>
        <pt x="183" y="750" on="0"/>
        <pt x="133" y="750" on="1"/>
        <pt x="142" y="941" on="0"/>
        <pt x="392" y="1147" on="0"/>
        <pt x="610" y="1147" on="1"/>
        <pt x="845" y="1147" on="0"/>
        <pt x="1077" y="927" on="0"/>
        <pt x="1077" y="696" on="1"/>
        <pt x="1077" y="395" on="1"/>
        <pt x="1177" y="372" on="0"/>
        <pt x="1327" y="265" on="0"/>
        <pt x="1389" y="193" on="1"/>
        <pt x="1389" y="1008" on="1"/>
        <pt x="1489" y="1126" on="1"/>
        <pt x="1556" y="1126" on="1"/>
        <pt x="1556" y="0" on="1"/>
        <pt x="1389" y="0" on="1"/>
        <pt x="1305" y="135" on="0"/>
        <pt x="1156" y="281" on="0"/>
        <pt x="1077" y="309" on="1"/>
        <pt x="1077" y="211" on="1"/>
        <pt x="1077" y="97" on="0"/>
        <pt x="971" y="-18" on="0"/>
        <pt x="854" y="-18" on="1"/>
        <pt x="754" y="-18" on="0"/>
        <pt x="651" y="80" on="0"/>
        <pt x="651" y="162" on="1"/>
        <pt x="651" y="261" on="0"/>
        <pt x="786" y="387" on="0"/>
        <pt x="909" y="401" on="1"/>
        <pt x="909" y="705" on="1"/>
        <pt x="909" y="885" on="0"/>
        <pt x="762" y="1055" on="0"/>
        <pt x="612" y="1055" on="1"/>
        <pt x="355" y="1055" on="0"/>
        <pt x="305" y="797" on="1"/>
        <pt x="372" y="787" on="0"/>
        <pt x="513" y="710" on="0"/>
        <pt x="551" y="662" on="1"/>
        <pt x="551" y="645" on="1"/>
        <pt x="435" y="622" on="0"/>
        <pt x="334" y="498" on="0"/>
        <pt x="334" y="393" on="1"/>
        <pt x="334" y="360" on="1"/>
        <pt x="346" y="365" on="0"/>
        <pt x="383" y="365" on="1"/>
        <pt x="473" y="365" on="0"/>
        <pt x="573" y="263" on="0"/>
        <pt x="573" y="172" on="1"/>
        <pt x="573" y="82" on="0"/>
        <pt x="468" y="-18" on="0"/>
        <pt x="371" y="-18" on="1"/>
        <pt x="272" y="-18" on="0"/>
        <pt x="166" y="82" on="0"/>
        <pt x="166" y="172" on="1"/>
      </contour>
      <contour>
        <pt x="471" y="174" on="1"/>
        <pt x="471" y="222" on="0"/>
        <pt x="417" y="276" on="0"/>
        <pt x="369" y="276" on="1"/>
        <pt x="321" y="276" on="0"/>
        <pt x="264" y="222" on="0"/>
        <pt x="264" y="174" on="1"/>
        <pt x="264" y="126" on="0"/>
        <pt x="321" y="70" on="0"/>
        <pt x="369" y="70" on="1"/>
        <pt x="417" y="70" on="0"/>
        <pt x="471" y="126" on="0"/>
      </contour>
    </TTGlyph>
    <TTGlyph name="uni0E0D" xMin="133" yMin="-475" xMax="1608" yMax="1147">
      <contour>
        <pt x="1090" y="-475" on="1"/>
        <pt x="982" y="-475" on="0"/>
        <pt x="848" y="-365" on="0"/>
        <pt x="848" y="-274" on="1"/>
        <pt x="848" y="-197" on="0"/>
        <pt x="951" y="-102" on="0"/>
        <pt x="1036" y="-102" on="1"/>
        <pt x="1121" y="-102" on="0"/>
        <pt x="1221" y="-190" on="0"/>
        <pt x="1221" y="-264" on="1"/>
        <pt x="1221" y="-306" on="0"/>
        <pt x="1189" y="-374" on="0"/>
        <pt x="1169" y="-391" on="1"/>
        <pt x="1356" y="-354" on="0"/>
        <pt x="1454" y="-78" on="1"/>
        <pt x="1608" y="-127" on="1"/>
        <pt x="1546" y="-300" on="0"/>
        <pt x="1294" y="-475" on="0"/>
      </contour>
      <contour>
        <pt x="946" y="-276" on="1"/>
        <pt x="946" y="-315" on="0"/>
        <pt x="994" y="-362" on="0"/>
        <pt x="1036" y="-362" on="1"/>
        <pt x="1073" y="-362" on="0"/>
        <pt x="1124" y="-315" on="0"/>
        <pt x="1124" y="-276" on="1"/>
        <pt x="1124" y="-234" on="0"/>
        <pt x="1073" y="-188" on="0"/>
        <pt x="1036" y="-188" on="1"/>
        <pt x="994" y="-188" on="0"/>
        <pt x="946" y="-234" on="0"/>
      </contour>
      <contour>
        <pt x="891" y="0" on="1"/>
        <pt x="891" y="715" on="1"/>
        <pt x="891" y="901" on="0"/>
        <pt x="745" y="1057" on="0"/>
        <pt x="594" y="1057" on="1"/>
        <pt x="464" y="1057" on="0"/>
        <pt x="313" y="923" on="0"/>
        <pt x="305" y="797" on="1"/>
        <pt x="373" y="787" on="0"/>
        <pt x="511" y="709" on="0"/>
        <pt x="551" y="662" on="1"/>
        <pt x="551" y="645" on="1"/>
        <pt x="435" y="622" on="0"/>
        <pt x="334" y="497" on="0"/>
        <pt x="334" y="391" on="1"/>
        <pt x="334" y="360" on="1"/>
        <pt x="346" y="365" on="0"/>
        <pt x="383" y="365" on="1"/>
        <pt x="473" y="365" on="0"/>
        <pt x="573" y="265" on="0"/>
        <pt x="573" y="174" on="1"/>
        <pt x="573" y="84" on="0"/>
        <pt x="468" y="-18" on="0"/>
        <pt x="371" y="-18" on="1"/>
        <pt x="272" y="-18" on="0"/>
        <pt x="166" y="82" on="0"/>
        <pt x="166" y="172" on="1"/>
        <pt x="166" y="393" on="1"/>
        <pt x="166" y="622" on="0"/>
        <pt x="387" y="670" on="1"/>
        <pt x="349" y="703" on="0"/>
        <pt x="183" y="750" on="0"/>
        <pt x="133" y="750" on="1"/>
        <pt x="147" y="955" on="0"/>
        <pt x="383" y="1147" on="0"/>
        <pt x="610" y="1147" on="1"/>
        <pt x="840" y="1147" on="0"/>
        <pt x="1059" y="934" on="0"/>
        <pt x="1059" y="696" on="1"/>
        <pt x="1059" y="86" on="1"/>
        <pt x="1126" y="86" on="1"/>
        <pt x="1244" y="86" on="0"/>
        <pt x="1370" y="247" on="0"/>
        <pt x="1370" y="389" on="1"/>
        <pt x="1370" y="1008" on="1"/>
        <pt x="1470" y="1126" on="1"/>
        <pt x="1538" y="1126" on="1"/>
        <pt x="1538" y="354" on="1"/>
        <pt x="1538" y="187" on="0"/>
        <pt x="1356" y="0" on="0"/>
        <pt x="1192" y="0" on="1"/>
      </contour>
      <contour>
        <pt x="471" y="174" on="1"/>
        <pt x="471" y="222" on="0"/>
        <pt x="417" y="276" on="0"/>
        <pt x="369" y="276" on="1"/>
        <pt x="321" y="276" on="0"/>
        <pt x="264" y="222" on="0"/>
        <pt x="264" y="174" on="1"/>
        <pt x="264" y="126" on="0"/>
        <pt x="321" y="70" on="0"/>
        <pt x="369" y="70" on="1"/>
        <pt x="417" y="70" on="0"/>
        <pt x="471" y="126" on="0"/>
      </contour>
    </TTGlyph>
    <TTGlyph name="uni0E0D.alt1" xMin="133" yMin="-18" xMax="1538" yMax="1147">
      <contour>
        <pt x="891" y="0" on="1"/>
        <pt x="891" y="715" on="1"/>
        <pt x="891" y="901" on="0"/>
        <pt x="745" y="1057" on="0"/>
        <pt x="594" y="1057" on="1"/>
        <pt x="464" y="1057" on="0"/>
        <pt x="313" y="923" on="0"/>
        <pt x="305" y="797" on="1"/>
        <pt x="373" y="787" on="0"/>
        <pt x="511" y="709" on="0"/>
        <pt x="551" y="662" on="1"/>
        <pt x="551" y="645" on="1"/>
        <pt x="435" y="622" on="0"/>
        <pt x="334" y="497" on="0"/>
        <pt x="334" y="391" on="1"/>
        <pt x="334" y="358" on="1"/>
        <pt x="344" y="362" on="0"/>
        <pt x="383" y="362" on="1"/>
        <pt x="473" y="362" on="0"/>
        <pt x="573" y="263" on="0"/>
        <pt x="573" y="172" on="1"/>
        <pt x="573" y="82" on="0"/>
        <pt x="468" y="-18" on="0"/>
        <pt x="371" y="-18" on="1"/>
        <pt x="272" y="-18" on="0"/>
        <pt x="166" y="82" on="0"/>
        <pt x="166" y="172" on="1"/>
        <pt x="166" y="393" on="1"/>
        <pt x="166" y="622" on="0"/>
        <pt x="387" y="670" on="1"/>
        <pt x="349" y="703" on="0"/>
        <pt x="183" y="750" on="0"/>
        <pt x="133" y="750" on="1"/>
        <pt x="147" y="955" on="0"/>
        <pt x="383" y="1147" on="0"/>
        <pt x="610" y="1147" on="1"/>
        <pt x="840" y="1147" on="0"/>
        <pt x="1059" y="934" on="0"/>
        <pt x="1059" y="696" on="1"/>
        <pt x="1059" y="86" on="1"/>
        <pt x="1126" y="86" on="1"/>
        <pt x="1244" y="86" on="0"/>
        <pt x="1370" y="247" on="0"/>
        <pt x="1370" y="389" on="1"/>
        <pt x="1370" y="1008" on="1"/>
        <pt x="1470" y="1126" on="1"/>
        <pt x="1538" y="1126" on="1"/>
        <pt x="1538" y="354" on="1"/>
        <pt x="1538" y="187" on="0"/>
        <pt x="1356" y="0" on="0"/>
        <pt x="1192" y="0" on="1"/>
      </contour>
      <contour>
        <pt x="471" y="172" on="1"/>
        <pt x="471" y="220" on="0"/>
        <pt x="417" y="274" on="0"/>
        <pt x="369" y="274" on="1"/>
        <pt x="321" y="274" on="0"/>
        <pt x="264" y="220" on="0"/>
        <pt x="264" y="172" on="1"/>
        <pt x="264" y="124" on="0"/>
        <pt x="321" y="68" on="0"/>
        <pt x="369" y="68" on="1"/>
        <pt x="417" y="68" on="0"/>
        <pt x="471" y="124" on="0"/>
      </contour>
    </TTGlyph>
    <TTGlyph name="uni0E0E" xMin="45" yMin="-520" xMax="1178" yMax="1147">
      <contour>
        <pt x="516" y="-195" on="1"/>
        <pt x="467" y="-195" on="0"/>
        <pt x="403" y="-242" on="0"/>
        <pt x="403" y="-287" on="1"/>
        <pt x="403" y="-333" on="0"/>
        <pt x="463" y="-381" on="0"/>
        <pt x="508" y="-381" on="1"/>
        <pt x="559" y="-381" on="0"/>
        <pt x="652" y="-306" on="0"/>
        <pt x="680" y="-244" on="1"/>
        <pt x="593" y="-195" on="0"/>
      </contour>
      <contour>
        <pt x="1010" y="715" on="1"/>
        <pt x="1010" y="901" on="0"/>
        <pt x="864" y="1057" on="0"/>
        <pt x="713" y="1057" on="1"/>
        <pt x="583" y="1057" on="0"/>
        <pt x="432" y="923" on="0"/>
        <pt x="424" y="797" on="1"/>
        <pt x="492" y="787" on="0"/>
        <pt x="630" y="709" on="0"/>
        <pt x="670" y="662" on="1"/>
        <pt x="670" y="645" on="1"/>
        <pt x="554" y="622" on="0"/>
        <pt x="453" y="497" on="0"/>
        <pt x="453" y="391" on="1"/>
        <pt x="453" y="172" on="1"/>
        <pt x="453" y="82" on="0"/>
        <pt x="347" y="-18" on="0"/>
        <pt x="248" y="-18" on="1"/>
        <pt x="151" y="-18" on="0"/>
        <pt x="45" y="82" on="0"/>
        <pt x="45" y="172" on="1"/>
        <pt x="45" y="263" on="0"/>
        <pt x="146" y="365" on="0"/>
        <pt x="236" y="365" on="1"/>
        <pt x="273" y="365" on="0"/>
        <pt x="285" y="360" on="1"/>
        <pt x="285" y="393" on="1"/>
        <pt x="285" y="622" on="0"/>
        <pt x="506" y="670" on="1"/>
        <pt x="466" y="704" on="0"/>
        <pt x="304" y="750" on="0"/>
        <pt x="252" y="750" on="1"/>
        <pt x="266" y="955" on="0"/>
        <pt x="502" y="1147" on="0"/>
        <pt x="729" y="1147" on="1"/>
        <pt x="957" y="1147" on="0"/>
        <pt x="1178" y="934" on="0"/>
        <pt x="1178" y="696" on="1"/>
        <pt x="1178" y="-408" on="1"/>
        <pt x="1073" y="-520" on="1"/>
        <pt x="1020" y="-520" on="1"/>
        <pt x="921" y="-403" on="0"/>
        <pt x="786" y="-307" on="1"/>
        <pt x="735" y="-379" on="0"/>
        <pt x="593" y="-467" on="0"/>
        <pt x="508" y="-467" on="1"/>
        <pt x="419" y="-467" on="0"/>
        <pt x="305" y="-372" on="0"/>
        <pt x="305" y="-289" on="1"/>
        <pt x="305" y="-206" on="0"/>
        <pt x="418" y="-109" on="0"/>
        <pt x="512" y="-109" on="1"/>
        <pt x="619" y="-109" on="0"/>
        <pt x="713" y="-156" on="1"/>
        <pt x="748" y="-27" on="1"/>
        <pt x="901" y="-70" on="1"/>
        <pt x="874" y="-151" on="0"/>
        <pt x="838" y="-223" on="1"/>
        <pt x="936" y="-286" on="0"/>
        <pt x="1010" y="-360" on="1"/>
      </contour>
      <contour>
        <pt x="147" y="174" on="1"/>
        <pt x="147" y="126" on="0"/>
        <pt x="202" y="70" on="0"/>
        <pt x="250" y="70" on="1"/>
        <pt x="298" y="70" on="0"/>
        <pt x="354" y="126" on="0"/>
        <pt x="354" y="174" on="1"/>
        <pt x="354" y="222" on="0"/>
        <pt x="298" y="276" on="0"/>
        <pt x="250" y="276" on="1"/>
        <pt x="202" y="276" on="0"/>
        <pt x="147" y="222" on="0"/>
      </contour>
    </TTGlyph>
    <TTGlyph name="uni0E0F" xMin="45" yMin="-520" xMax="1178" yMax="1147">
      <contour>
        <pt x="147" y="174" on="1"/>
        <pt x="147" y="126" on="0"/>
        <pt x="202" y="70" on="0"/>
        <pt x="250" y="70" on="1"/>
        <pt x="298" y="70" on="0"/>
        <pt x="354" y="126" on="0"/>
        <pt x="354" y="174" on="1"/>
        <pt x="354" y="222" on="0"/>
        <pt x="298" y="276" on="0"/>
        <pt x="250" y="276" on="1"/>
        <pt x="202" y="276" on="0"/>
        <pt x="147" y="222" on="0"/>
      </contour>
      <contour>
        <pt x="315" y="-213" on="1"/>
        <pt x="266" y="-213" on="0"/>
        <pt x="203" y="-260" on="0"/>
        <pt x="203" y="-305" on="1"/>
        <pt x="203" y="-352" on="0"/>
        <pt x="262" y="-399" on="0"/>
        <pt x="307" y="-399" on="1"/>
        <pt x="355" y="-399" on="0"/>
        <pt x="444" y="-337" on="0"/>
        <pt x="473" y="-283" on="1"/>
        <pt x="389" y="-213" on="0"/>
      </contour>
      <contour>
        <pt x="307" y="-485" on="1"/>
        <pt x="216" y="-485" on="0"/>
        <pt x="104" y="-390" on="0"/>
        <pt x="104" y="-307" on="1"/>
        <pt x="104" y="-223" on="0"/>
        <pt x="220" y="-127" on="0"/>
        <pt x="311" y="-127" on="1"/>
        <pt x="364" y="-127" on="0"/>
        <pt x="474" y="-168" on="0"/>
        <pt x="516" y="-199" on="1"/>
        <pt x="555" y="-108" on="0"/>
        <pt x="596" y="51" on="1"/>
        <pt x="750" y="10" on="1"/>
        <pt x="693" y="-156" on="0"/>
        <pt x="606" y="-276" on="1"/>
        <pt x="622" y="-292" on="0"/>
        <pt x="682" y="-367" on="1"/>
        <pt x="715" y="-340" on="0"/>
        <pt x="786" y="-233" on="0"/>
        <pt x="807" y="-184" on="1"/>
        <pt x="913" y="-251" on="0"/>
        <pt x="1010" y="-350" on="1"/>
        <pt x="1010" y="715" on="1"/>
        <pt x="1010" y="901" on="0"/>
        <pt x="864" y="1057" on="0"/>
        <pt x="713" y="1057" on="1"/>
        <pt x="583" y="1057" on="0"/>
        <pt x="432" y="923" on="0"/>
        <pt x="424" y="797" on="1"/>
        <pt x="492" y="787" on="0"/>
        <pt x="630" y="709" on="0"/>
        <pt x="670" y="662" on="1"/>
        <pt x="670" y="645" on="1"/>
        <pt x="554" y="622" on="0"/>
        <pt x="453" y="497" on="0"/>
        <pt x="453" y="391" on="1"/>
        <pt x="453" y="172" on="1"/>
        <pt x="453" y="82" on="0"/>
        <pt x="347" y="-18" on="0"/>
        <pt x="248" y="-18" on="1"/>
        <pt x="151" y="-18" on="0"/>
        <pt x="45" y="82" on="0"/>
        <pt x="45" y="172" on="1"/>
        <pt x="45" y="263" on="0"/>
        <pt x="146" y="365" on="0"/>
        <pt x="236" y="365" on="1"/>
        <pt x="273" y="365" on="0"/>
        <pt x="285" y="360" on="1"/>
        <pt x="285" y="393" on="1"/>
        <pt x="285" y="622" on="0"/>
        <pt x="506" y="670" on="1"/>
        <pt x="466" y="704" on="0"/>
        <pt x="304" y="750" on="0"/>
        <pt x="252" y="750" on="1"/>
        <pt x="266" y="955" on="0"/>
        <pt x="502" y="1147" on="0"/>
        <pt x="729" y="1147" on="1"/>
        <pt x="957" y="1147" on="0"/>
        <pt x="1178" y="934" on="0"/>
        <pt x="1178" y="696" on="1"/>
        <pt x="1178" y="-408" on="1"/>
        <pt x="1073" y="-520" on="1"/>
        <pt x="1020" y="-520" on="1"/>
        <pt x="912" y="-376" on="0"/>
        <pt x="834" y="-311" on="1"/>
        <pt x="813" y="-353" on="0"/>
        <pt x="707" y="-464" on="0"/>
        <pt x="657" y="-498" on="1"/>
        <pt x="607" y="-416" on="0"/>
        <pt x="547" y="-356" on="1"/>
        <pt x="441" y="-485" on="0"/>
      </contour>
    </TTGlyph>
    <TTGlyph name="uni0E10" xMin="84" yMin="-520" xMax="1094" yMax="1167">
      <contour>
        <pt x="283" y="-213" on="1"/>
        <pt x="238" y="-213" on="0"/>
        <pt x="182" y="-260" on="0"/>
        <pt x="182" y="-305" on="1"/>
        <pt x="182" y="-352" on="0"/>
        <pt x="236" y="-399" on="0"/>
        <pt x="274" y="-399" on="1"/>
        <pt x="370" y="-399" on="0"/>
        <pt x="432" y="-283" on="1"/>
        <pt x="348" y="-213" on="0"/>
      </contour>
      <contour>
        <pt x="752" y="-393" on="1"/>
        <pt x="721" y="-424" on="0"/>
        <pt x="640" y="-486" on="0"/>
        <pt x="616" y="-498" on="1"/>
        <pt x="566" y="-416" on="0"/>
        <pt x="506" y="-356" on="1"/>
        <pt x="455" y="-418" on="0"/>
        <pt x="347" y="-485" on="0"/>
        <pt x="274" y="-485" on="1"/>
        <pt x="188" y="-485" on="0"/>
        <pt x="84" y="-394" on="0"/>
        <pt x="84" y="-307" on="1"/>
        <pt x="84" y="-221" on="0"/>
        <pt x="189" y="-127" on="0"/>
        <pt x="279" y="-127" on="1"/>
        <pt x="377" y="-127" on="0"/>
        <pt x="475" y="-199" on="1"/>
        <pt x="498" y="-147" on="0"/>
        <pt x="528" y="-49" on="1"/>
        <pt x="666" y="-98" on="1"/>
        <pt x="621" y="-197" on="0"/>
        <pt x="565" y="-276" on="1"/>
        <pt x="581" y="-292" on="0"/>
        <pt x="641" y="-367" on="1"/>
        <pt x="679" y="-344" on="0"/>
        <pt x="739" y="-281" on="1"/>
        <pt x="848" y="-331" on="0"/>
        <pt x="926" y="-389" on="1"/>
        <pt x="926" y="-276" on="1"/>
        <pt x="921" y="-279" on="0"/>
        <pt x="903" y="-279" on="1"/>
        <pt x="852" y="-279" on="0"/>
        <pt x="788" y="-220" on="0"/>
        <pt x="788" y="-166" on="1"/>
        <pt x="788" y="-112" on="0"/>
        <pt x="856" y="-51" on="0"/>
        <pt x="918" y="-51" on="1"/>
        <pt x="981" y="-51" on="0"/>
        <pt x="1053" y="-112" on="0"/>
        <pt x="1053" y="-168" on="1"/>
        <pt x="1053" y="-438" on="1"/>
        <pt x="948" y="-520" on="1"/>
        <pt x="926" y="-520" on="1"/>
        <pt x="838" y="-440" on="0"/>
      </contour>
      <contour>
        <pt x="860" y="-166" on="1"/>
        <pt x="860" y="-215" on="0"/>
        <pt x="911" y="-215" on="1"/>
        <pt x="961" y="-215" on="0"/>
        <pt x="961" y="-166" on="1"/>
        <pt x="961" y="-115" on="0"/>
        <pt x="911" y="-115" on="1"/>
        <pt x="860" y="-115" on="0"/>
      </contour>
      <contour>
        <pt x="129" y="797" on="1"/>
        <pt x="129" y="974" on="0"/>
        <pt x="276" y="1126" on="0"/>
        <pt x="444" y="1126" on="1"/>
        <pt x="543" y="1126" on="0"/>
        <pt x="788" y="1103" on="1"/>
        <pt x="858" y="1098" on="1"/>
        <pt x="958" y="1098" on="0"/>
        <pt x="1016" y="1141" on="1"/>
        <pt x="1053" y="1167" on="1"/>
        <pt x="1094" y="1122" on="1"/>
        <pt x="1068" y="1093" on="0"/>
        <pt x="1017" y="1037" on="0"/>
        <pt x="947" y="993" on="0"/>
        <pt x="851" y="967" on="0"/>
        <pt x="782" y="967" on="1"/>
        <pt x="710" y="971" on="1"/>
        <pt x="472" y="989" on="0"/>
        <pt x="440" y="989" on="1"/>
        <pt x="302" y="989" on="0"/>
        <pt x="203" y="910" on="0"/>
        <pt x="203" y="815" on="1"/>
        <pt x="586" y="815" on="1"/>
        <pt x="804" y="815" on="0"/>
        <pt x="1010" y="641" on="0"/>
        <pt x="1010" y="455" on="1"/>
        <pt x="1010" y="313" on="1"/>
        <pt x="1010" y="130" on="0"/>
        <pt x="890" y="-20" on="0"/>
        <pt x="748" y="-20" on="1"/>
        <pt x="650" y="-20" on="0"/>
        <pt x="539" y="33" on="0"/>
        <pt x="462" y="157" on="0"/>
        <pt x="428" y="279" on="1"/>
        <pt x="376" y="258" on="0"/>
        <pt x="324" y="258" on="1"/>
        <pt x="225" y="258" on="0"/>
        <pt x="121" y="358" on="0"/>
        <pt x="121" y="449" on="1"/>
        <pt x="121" y="538" on="0"/>
        <pt x="227" y="641" on="0"/>
        <pt x="324" y="641" on="1"/>
        <pt x="414" y="641" on="0"/>
        <pt x="525" y="529" on="0"/>
        <pt x="565" y="397" on="1"/>
        <pt x="623" y="211" on="1"/>
        <pt x="647" y="132" on="0"/>
        <pt x="703" y="63" on="0"/>
        <pt x="745" y="63" on="1"/>
        <pt x="798" y="63" on="0"/>
        <pt x="842" y="155" on="0"/>
        <pt x="842" y="268" on="1"/>
        <pt x="842" y="436" on="1"/>
        <pt x="842" y="594" on="0"/>
        <pt x="698" y="727" on="0"/>
        <pt x="537" y="727" on="1"/>
        <pt x="129" y="727" on="1"/>
      </contour>
      <contour>
        <pt x="223" y="449" on="1"/>
        <pt x="223" y="401" on="0"/>
        <pt x="278" y="346" on="0"/>
        <pt x="326" y="346" on="1"/>
        <pt x="374" y="346" on="0"/>
        <pt x="430" y="401" on="0"/>
        <pt x="430" y="449" on="1"/>
        <pt x="430" y="497" on="0"/>
        <pt x="374" y="553" on="0"/>
        <pt x="326" y="553" on="1"/>
        <pt x="278" y="553" on="0"/>
        <pt x="223" y="497" on="0"/>
      </contour>
    </TTGlyph>
    <TTGlyph name="uni0E10.alt1" xMin="121" yMin="-20" xMax="1094" yMax="1167">
      <contour>
        <pt x="129" y="797" on="1"/>
        <pt x="129" y="974" on="0"/>
        <pt x="276" y="1126" on="0"/>
        <pt x="444" y="1126" on="1"/>
        <pt x="543" y="1126" on="0"/>
        <pt x="788" y="1103" on="1"/>
        <pt x="858" y="1098" on="1"/>
        <pt x="958" y="1098" on="0"/>
        <pt x="1016" y="1141" on="1"/>
        <pt x="1053" y="1167" on="1"/>
        <pt x="1094" y="1122" on="1"/>
        <pt x="1068" y="1093" on="0"/>
        <pt x="1017" y="1037" on="0"/>
        <pt x="947" y="993" on="0"/>
        <pt x="851" y="967" on="0"/>
        <pt x="782" y="967" on="1"/>
        <pt x="710" y="971" on="1"/>
        <pt x="472" y="989" on="0"/>
        <pt x="440" y="989" on="1"/>
        <pt x="302" y="989" on="0"/>
        <pt x="203" y="910" on="0"/>
        <pt x="203" y="815" on="1"/>
        <pt x="586" y="815" on="1"/>
        <pt x="804" y="815" on="0"/>
        <pt x="1010" y="641" on="0"/>
        <pt x="1010" y="455" on="1"/>
        <pt x="1010" y="313" on="1"/>
        <pt x="1010" y="130" on="0"/>
        <pt x="890" y="-20" on="0"/>
        <pt x="748" y="-20" on="1"/>
        <pt x="650" y="-20" on="0"/>
        <pt x="539" y="33" on="0"/>
        <pt x="462" y="157" on="0"/>
        <pt x="428" y="279" on="1"/>
        <pt x="376" y="258" on="0"/>
        <pt x="324" y="258" on="1"/>
        <pt x="225" y="258" on="0"/>
        <pt x="121" y="358" on="0"/>
        <pt x="121" y="449" on="1"/>
        <pt x="121" y="538" on="0"/>
        <pt x="227" y="641" on="0"/>
        <pt x="324" y="641" on="1"/>
        <pt x="414" y="641" on="0"/>
        <pt x="525" y="529" on="0"/>
        <pt x="565" y="397" on="1"/>
        <pt x="623" y="211" on="1"/>
        <pt x="647" y="132" on="0"/>
        <pt x="703" y="63" on="0"/>
        <pt x="745" y="63" on="1"/>
        <pt x="798" y="63" on="0"/>
        <pt x="842" y="155" on="0"/>
        <pt x="842" y="268" on="1"/>
        <pt x="842" y="436" on="1"/>
        <pt x="842" y="594" on="0"/>
        <pt x="698" y="727" on="0"/>
        <pt x="537" y="727" on="1"/>
        <pt x="129" y="727" on="1"/>
      </contour>
      <contour>
        <pt x="223" y="449" on="1"/>
        <pt x="223" y="401" on="0"/>
        <pt x="278" y="346" on="0"/>
        <pt x="326" y="346" on="1"/>
        <pt x="374" y="346" on="0"/>
        <pt x="430" y="401" on="0"/>
        <pt x="430" y="449" on="1"/>
        <pt x="430" y="497" on="0"/>
        <pt x="374" y="553" on="0"/>
        <pt x="326" y="553" on="1"/>
        <pt x="278" y="553" on="0"/>
        <pt x="223" y="497" on="0"/>
      </contour>
    </TTGlyph>
    <TTGlyph name="uni0E11" xMin="59" yMin="0" xMax="1346" yMax="1147">
      <contour>
        <pt x="1178" y="0" on="1"/>
        <pt x="1178" y="926" on="1"/>
        <pt x="1178" y="1012" on="0"/>
        <pt x="1141" y="1012" on="1"/>
        <pt x="1118" y="1012" on="0"/>
        <pt x="1075" y="949" on="0"/>
        <pt x="1047" y="881" on="1"/>
        <pt x="686" y="0" on="1"/>
        <pt x="481" y="0" on="1"/>
        <pt x="481" y="494" on="1"/>
        <pt x="481" y="624" on="0"/>
        <pt x="560" y="778" on="0"/>
        <pt x="643" y="831" on="1"/>
        <pt x="639" y="889" on="0"/>
        <pt x="593" y="993" on="0"/>
        <pt x="561" y="1020" on="1"/>
        <pt x="434" y="909" on="1"/>
        <pt x="289" y="1038" on="1"/>
        <pt x="189" y="993" on="0"/>
        <pt x="168" y="846" on="1"/>
        <pt x="187" y="869" on="0"/>
        <pt x="264" y="899" on="0"/>
        <pt x="301" y="899" on="1"/>
        <pt x="374" y="899" on="0"/>
        <pt x="463" y="809" on="0"/>
        <pt x="463" y="729" on="1"/>
        <pt x="463" y="652" on="0"/>
        <pt x="366" y="559" on="0"/>
        <pt x="281" y="559" on="1"/>
        <pt x="172" y="559" on="0"/>
        <pt x="59" y="684" on="0"/>
        <pt x="59" y="795" on="1"/>
        <pt x="59" y="918" on="0"/>
        <pt x="190" y="1109" on="0"/>
        <pt x="299" y="1141" on="1"/>
        <pt x="434" y="1018" on="1"/>
        <pt x="569" y="1141" on="1"/>
        <pt x="665" y="1108" on="0"/>
        <pt x="782" y="939" on="0"/>
        <pt x="791" y="829" on="1"/>
        <pt x="736" y="786" on="0"/>
        <pt x="675" y="701" on="0"/>
        <pt x="649" y="602" on="0"/>
        <pt x="649" y="500" on="1"/>
        <pt x="649" y="176" on="1"/>
        <pt x="946" y="907" on="1"/>
        <pt x="1002" y="1046" on="0"/>
        <pt x="1102" y="1147" on="0"/>
        <pt x="1182" y="1147" on="1"/>
        <pt x="1266" y="1147" on="0"/>
        <pt x="1346" y="1045" on="0"/>
        <pt x="1346" y="926" on="1"/>
        <pt x="1346" y="119" on="1"/>
        <pt x="1245" y="0" on="1"/>
      </contour>
      <contour>
        <pt x="369" y="729" on="1"/>
        <pt x="369" y="767" on="0"/>
        <pt x="319" y="815" on="0"/>
        <pt x="279" y="815" on="1"/>
        <pt x="240" y="815" on="0"/>
        <pt x="190" y="767" on="0"/>
        <pt x="190" y="729" on="1"/>
        <pt x="190" y="689" on="0"/>
        <pt x="240" y="641" on="0"/>
        <pt x="279" y="641" on="1"/>
        <pt x="319" y="641" on="0"/>
        <pt x="369" y="689" on="0"/>
      </contour>
    </TTGlyph>
    <TTGlyph name="uni0E12" xMin="113" yMin="-18" xMax="1593" yMax="1143">
      <contour>
        <pt x="1114" y="395" on="1"/>
        <pt x="1214" y="372" on="0"/>
        <pt x="1363" y="265" on="0"/>
        <pt x="1425" y="193" on="1"/>
        <pt x="1425" y="1008" on="1"/>
        <pt x="1526" y="1126" on="1"/>
        <pt x="1593" y="1126" on="1"/>
        <pt x="1593" y="0" on="1"/>
        <pt x="1425" y="0" on="1"/>
        <pt x="1339" y="139" on="0"/>
        <pt x="1191" y="281" on="0"/>
        <pt x="1114" y="309" on="1"/>
        <pt x="1114" y="211" on="1"/>
        <pt x="1114" y="97" on="0"/>
        <pt x="1008" y="-18" on="0"/>
        <pt x="891" y="-18" on="1"/>
        <pt x="791" y="-18" on="0"/>
        <pt x="688" y="80" on="0"/>
        <pt x="688" y="162" on="1"/>
        <pt x="688" y="261" on="0"/>
        <pt x="823" y="387" on="0"/>
        <pt x="946" y="401" on="1"/>
        <pt x="946" y="713" on="1"/>
        <pt x="946" y="960" on="0"/>
        <pt x="795" y="1032" on="1"/>
        <pt x="618" y="874" on="1"/>
        <pt x="440" y="1032" on="1"/>
        <pt x="351" y="998" on="0"/>
        <pt x="258" y="854" on="0"/>
        <pt x="258" y="758" on="1"/>
        <pt x="258" y="695" on="0"/>
        <pt x="291" y="556" on="0"/>
        <pt x="332" y="407" on="0"/>
        <pt x="365" y="248" on="0"/>
        <pt x="365" y="164" on="1"/>
        <pt x="502" y="295" on="1"/>
        <pt x="587" y="377" on="0"/>
        <pt x="629" y="461" on="1"/>
        <pt x="526" y="461" on="0"/>
        <pt x="416" y="560" on="0"/>
        <pt x="416" y="651" on="1"/>
        <pt x="416" y="741" on="0"/>
        <pt x="521" y="842" on="0"/>
        <pt x="618" y="842" on="1"/>
        <pt x="716" y="842" on="0"/>
        <pt x="821" y="737" on="0"/>
        <pt x="821" y="635" on="1"/>
        <pt x="821" y="534" on="0"/>
        <pt x="728" y="371" on="0"/>
        <pt x="645" y="293" on="1"/>
        <pt x="408" y="70" on="0"/>
        <pt x="344" y="0" on="1"/>
        <pt x="197" y="0" on="1"/>
        <pt x="197" y="139" on="1"/>
        <pt x="197" y="329" on="0"/>
        <pt x="155" y="480" on="1"/>
        <pt x="130" y="569" on="0"/>
        <pt x="113" y="673" on="0"/>
        <pt x="113" y="729" on="1"/>
        <pt x="113" y="888" on="0"/>
        <pt x="286" y="1108" on="0"/>
        <pt x="442" y="1143" on="1"/>
        <pt x="618" y="987" on="1"/>
        <pt x="795" y="1143" on="1"/>
        <pt x="951" y="1107" on="0"/>
        <pt x="1114" y="881" on="0"/>
        <pt x="1114" y="696" on="1"/>
      </contour>
      <contour>
        <pt x="782" y="162" on="1"/>
        <pt x="782" y="115" on="0"/>
        <pt x="833" y="66" on="0"/>
        <pt x="868" y="66" on="1"/>
        <pt x="946" y="66" on="0"/>
        <pt x="946" y="158" on="1"/>
        <pt x="946" y="322" on="1"/>
        <pt x="870" y="310" on="0"/>
        <pt x="782" y="226" on="0"/>
      </contour>
      <contour>
        <pt x="723" y="649" on="1"/>
        <pt x="723" y="697" on="0"/>
        <pt x="669" y="754" on="0"/>
        <pt x="621" y="754" on="1"/>
        <pt x="573" y="754" on="0"/>
        <pt x="516" y="697" on="0"/>
        <pt x="516" y="649" on="1"/>
        <pt x="516" y="601" on="0"/>
        <pt x="573" y="547" on="0"/>
        <pt x="621" y="547" on="1"/>
        <pt x="669" y="547" on="0"/>
        <pt x="723" y="601" on="0"/>
      </contour>
    </TTGlyph>
    <TTGlyph name="uni0E13" xMin="133" yMin="-18" xMax="1847" yMax="1147">
      <contour>
        <pt x="471" y="172" on="1"/>
        <pt x="471" y="220" on="0"/>
        <pt x="417" y="274" on="0"/>
        <pt x="369" y="274" on="1"/>
        <pt x="321" y="274" on="0"/>
        <pt x="264" y="220" on="0"/>
        <pt x="264" y="172" on="1"/>
        <pt x="264" y="124" on="0"/>
        <pt x="321" y="68" on="0"/>
        <pt x="369" y="68" on="1"/>
        <pt x="417" y="68" on="0"/>
        <pt x="471" y="124" on="0"/>
      </contour>
      <contour>
        <pt x="1753" y="162" on="1"/>
        <pt x="1753" y="227" on="0"/>
        <pt x="1666" y="310" on="0"/>
        <pt x="1589" y="322" on="1"/>
        <pt x="1589" y="158" on="1"/>
        <pt x="1589" y="113" on="0"/>
        <pt x="1630" y="66" on="0"/>
        <pt x="1667" y="66" on="1"/>
        <pt x="1702" y="66" on="0"/>
        <pt x="1753" y="115" on="0"/>
      </contour>
      <contour>
        <pt x="1421" y="1008" on="1"/>
        <pt x="1522" y="1126" on="1"/>
        <pt x="1589" y="1126" on="1"/>
        <pt x="1589" y="401" on="1"/>
        <pt x="1712" y="387" on="0"/>
        <pt x="1847" y="261" on="0"/>
        <pt x="1847" y="162" on="1"/>
        <pt x="1847" y="80" on="0"/>
        <pt x="1745" y="-18" on="0"/>
        <pt x="1645" y="-18" on="1"/>
        <pt x="1527" y="-18" on="0"/>
        <pt x="1421" y="96" on="0"/>
        <pt x="1421" y="211" on="1"/>
        <pt x="1421" y="309" on="1"/>
        <pt x="1198" y="227" on="0"/>
        <pt x="1059" y="0" on="1"/>
        <pt x="891" y="0" on="1"/>
        <pt x="891" y="715" on="1"/>
        <pt x="891" y="901" on="0"/>
        <pt x="745" y="1057" on="0"/>
        <pt x="594" y="1057" on="1"/>
        <pt x="464" y="1057" on="0"/>
        <pt x="313" y="923" on="0"/>
        <pt x="305" y="797" on="1"/>
        <pt x="373" y="787" on="0"/>
        <pt x="511" y="709" on="0"/>
        <pt x="551" y="662" on="1"/>
        <pt x="551" y="645" on="1"/>
        <pt x="435" y="622" on="0"/>
        <pt x="334" y="497" on="0"/>
        <pt x="334" y="391" on="1"/>
        <pt x="334" y="358" on="1"/>
        <pt x="344" y="362" on="0"/>
        <pt x="383" y="362" on="1"/>
        <pt x="473" y="362" on="0"/>
        <pt x="573" y="263" on="0"/>
        <pt x="573" y="172" on="1"/>
        <pt x="573" y="82" on="0"/>
        <pt x="468" y="-18" on="0"/>
        <pt x="371" y="-18" on="1"/>
        <pt x="272" y="-18" on="0"/>
        <pt x="166" y="82" on="0"/>
        <pt x="166" y="172" on="1"/>
        <pt x="166" y="393" on="1"/>
        <pt x="166" y="622" on="0"/>
        <pt x="387" y="670" on="1"/>
        <pt x="349" y="703" on="0"/>
        <pt x="183" y="750" on="0"/>
        <pt x="133" y="750" on="1"/>
        <pt x="147" y="955" on="0"/>
        <pt x="383" y="1147" on="0"/>
        <pt x="610" y="1147" on="1"/>
        <pt x="840" y="1147" on="0"/>
        <pt x="1059" y="934" on="0"/>
        <pt x="1059" y="696" on="1"/>
        <pt x="1059" y="168" on="1"/>
        <pt x="1205" y="334" on="0"/>
        <pt x="1421" y="387" on="1"/>
      </contour>
    </TTGlyph>
    <TTGlyph name="uni0E14" xMin="113" yMin="0" xMax="1114" yMax="1147">
      <contour>
        <pt x="197" y="0" on="1"/>
        <pt x="197" y="139" on="1"/>
        <pt x="197" y="329" on="0"/>
        <pt x="155" y="480" on="1"/>
        <pt x="130" y="569" on="0"/>
        <pt x="113" y="673" on="0"/>
        <pt x="113" y="729" on="1"/>
        <pt x="113" y="923" on="0"/>
        <pt x="381" y="1147" on="0"/>
        <pt x="618" y="1147" on="1"/>
        <pt x="866" y="1147" on="0"/>
        <pt x="1114" y="923" on="0"/>
        <pt x="1114" y="696" on="1"/>
        <pt x="1114" y="119" on="1"/>
        <pt x="1014" y="0" on="1"/>
        <pt x="946" y="0" on="1"/>
        <pt x="946" y="713" on="1"/>
        <pt x="946" y="1055" on="0"/>
        <pt x="618" y="1055" on="1"/>
        <pt x="451" y="1055" on="0"/>
        <pt x="258" y="894" on="0"/>
        <pt x="258" y="758" on="1"/>
        <pt x="258" y="695" on="0"/>
        <pt x="291" y="558" on="0"/>
        <pt x="332" y="406" on="0"/>
        <pt x="365" y="236" on="0"/>
        <pt x="365" y="141" on="1"/>
        <pt x="414" y="184" on="0"/>
        <pt x="494" y="242" on="1"/>
        <pt x="543" y="279" on="0"/>
        <pt x="621" y="347" on="0"/>
        <pt x="637" y="379" on="1"/>
        <pt x="534" y="379" on="0"/>
        <pt x="424" y="478" on="0"/>
        <pt x="424" y="569" on="1"/>
        <pt x="424" y="659" on="0"/>
        <pt x="530" y="760" on="0"/>
        <pt x="627" y="760" on="1"/>
        <pt x="724" y="760" on="0"/>
        <pt x="829" y="655" on="0"/>
        <pt x="829" y="553" on="1"/>
        <pt x="829" y="449" on="0"/>
        <pt x="735" y="298" on="0"/>
        <pt x="623" y="215" on="1"/>
        <pt x="547" y="158" on="0"/>
        <pt x="401" y="50" on="0"/>
        <pt x="344" y="0" on="1"/>
      </contour>
      <contour>
        <pt x="731" y="567" on="1"/>
        <pt x="731" y="615" on="0"/>
        <pt x="677" y="672" on="0"/>
        <pt x="629" y="672" on="1"/>
        <pt x="581" y="672" on="0"/>
        <pt x="524" y="615" on="0"/>
        <pt x="524" y="567" on="1"/>
        <pt x="524" y="519" on="0"/>
        <pt x="581" y="465" on="0"/>
        <pt x="629" y="465" on="1"/>
        <pt x="677" y="465" on="0"/>
        <pt x="731" y="519" on="0"/>
      </contour>
    </TTGlyph>
    <TTGlyph name="uni0E15" xMin="113" yMin="0" xMax="1114" yMax="1143">
      <contour>
        <pt x="113" y="729" on="1"/>
        <pt x="113" y="888" on="0"/>
        <pt x="286" y="1108" on="0"/>
        <pt x="442" y="1143" on="1"/>
        <pt x="618" y="987" on="1"/>
        <pt x="795" y="1143" on="1"/>
        <pt x="951" y="1107" on="0"/>
        <pt x="1114" y="881" on="0"/>
        <pt x="1114" y="696" on="1"/>
        <pt x="1114" y="119" on="1"/>
        <pt x="1014" y="0" on="1"/>
        <pt x="946" y="0" on="1"/>
        <pt x="946" y="713" on="1"/>
        <pt x="946" y="960" on="0"/>
        <pt x="795" y="1032" on="1"/>
        <pt x="618" y="874" on="1"/>
        <pt x="440" y="1032" on="1"/>
        <pt x="351" y="998" on="0"/>
        <pt x="258" y="854" on="0"/>
        <pt x="258" y="758" on="1"/>
        <pt x="258" y="695" on="0"/>
        <pt x="291" y="558" on="0"/>
        <pt x="332" y="406" on="0"/>
        <pt x="365" y="236" on="0"/>
        <pt x="365" y="141" on="1"/>
        <pt x="414" y="184" on="0"/>
        <pt x="494" y="242" on="1"/>
        <pt x="543" y="279" on="0"/>
        <pt x="621" y="347" on="0"/>
        <pt x="637" y="379" on="1"/>
        <pt x="534" y="379" on="0"/>
        <pt x="424" y="478" on="0"/>
        <pt x="424" y="569" on="1"/>
        <pt x="424" y="659" on="0"/>
        <pt x="530" y="760" on="0"/>
        <pt x="627" y="760" on="1"/>
        <pt x="724" y="760" on="0"/>
        <pt x="829" y="655" on="0"/>
        <pt x="829" y="553" on="1"/>
        <pt x="829" y="449" on="0"/>
        <pt x="735" y="298" on="0"/>
        <pt x="623" y="215" on="1"/>
        <pt x="547" y="158" on="0"/>
        <pt x="401" y="50" on="0"/>
        <pt x="344" y="0" on="1"/>
        <pt x="197" y="0" on="1"/>
        <pt x="197" y="139" on="1"/>
        <pt x="197" y="329" on="0"/>
        <pt x="155" y="480" on="1"/>
        <pt x="130" y="569" on="0"/>
        <pt x="113" y="673" on="0"/>
      </contour>
      <contour>
        <pt x="731" y="567" on="1"/>
        <pt x="731" y="615" on="0"/>
        <pt x="677" y="672" on="0"/>
        <pt x="629" y="672" on="1"/>
        <pt x="581" y="672" on="0"/>
        <pt x="524" y="615" on="0"/>
        <pt x="524" y="567" on="1"/>
        <pt x="524" y="519" on="0"/>
        <pt x="581" y="465" on="0"/>
        <pt x="629" y="465" on="1"/>
        <pt x="677" y="465" on="0"/>
        <pt x="731" y="519" on="0"/>
      </contour>
    </TTGlyph>
    <TTGlyph name="uni0E16" xMin="133" yMin="-18" xMax="1059" yMax="1147">
      <contour>
        <pt x="334" y="358" on="1"/>
        <pt x="344" y="362" on="0"/>
        <pt x="383" y="362" on="1"/>
        <pt x="473" y="362" on="0"/>
        <pt x="573" y="263" on="0"/>
        <pt x="573" y="172" on="1"/>
        <pt x="573" y="82" on="0"/>
        <pt x="468" y="-18" on="0"/>
        <pt x="371" y="-18" on="1"/>
        <pt x="272" y="-18" on="0"/>
        <pt x="166" y="82" on="0"/>
        <pt x="166" y="172" on="1"/>
        <pt x="166" y="393" on="1"/>
        <pt x="166" y="622" on="0"/>
        <pt x="387" y="670" on="1"/>
        <pt x="349" y="703" on="0"/>
        <pt x="183" y="750" on="0"/>
        <pt x="133" y="750" on="1"/>
        <pt x="147" y="955" on="0"/>
        <pt x="383" y="1147" on="0"/>
        <pt x="610" y="1147" on="1"/>
        <pt x="840" y="1147" on="0"/>
        <pt x="1059" y="934" on="0"/>
        <pt x="1059" y="696" on="1"/>
        <pt x="1059" y="119" on="1"/>
        <pt x="958" y="0" on="1"/>
        <pt x="891" y="0" on="1"/>
        <pt x="891" y="715" on="1"/>
        <pt x="891" y="901" on="0"/>
        <pt x="745" y="1057" on="0"/>
        <pt x="594" y="1057" on="1"/>
        <pt x="464" y="1057" on="0"/>
        <pt x="313" y="923" on="0"/>
        <pt x="305" y="797" on="1"/>
        <pt x="373" y="787" on="0"/>
        <pt x="511" y="709" on="0"/>
        <pt x="551" y="662" on="1"/>
        <pt x="551" y="645" on="1"/>
        <pt x="435" y="622" on="0"/>
        <pt x="334" y="497" on="0"/>
        <pt x="334" y="391" on="1"/>
      </contour>
      <contour>
        <pt x="471" y="172" on="1"/>
        <pt x="471" y="220" on="0"/>
        <pt x="417" y="274" on="0"/>
        <pt x="369" y="274" on="1"/>
        <pt x="321" y="274" on="0"/>
        <pt x="264" y="220" on="0"/>
        <pt x="264" y="172" on="1"/>
        <pt x="264" y="124" on="0"/>
        <pt x="321" y="68" on="0"/>
        <pt x="369" y="68" on="1"/>
        <pt x="417" y="68" on="0"/>
        <pt x="471" y="124" on="0"/>
      </contour>
    </TTGlyph>
    <TTGlyph name="uni0E17" xMin="45" yMin="0" xMax="1149" yMax="1147">
      <contour>
        <pt x="285" y="758" on="1"/>
        <pt x="275" y="754" on="0"/>
        <pt x="236" y="754" on="1"/>
        <pt x="146" y="754" on="0"/>
        <pt x="45" y="853" on="0"/>
        <pt x="45" y="944" on="1"/>
        <pt x="45" y="1034" on="0"/>
        <pt x="151" y="1137" on="0"/>
        <pt x="248" y="1137" on="1"/>
        <pt x="347" y="1137" on="0"/>
        <pt x="453" y="1034" on="0"/>
        <pt x="453" y="944" on="1"/>
        <pt x="453" y="440" on="1"/>
        <pt x="457" y="440" on="1"/>
        <pt x="674" y="907" on="1"/>
        <pt x="739" y="1048" on="0"/>
        <pt x="854" y="1147" on="0"/>
        <pt x="952" y="1147" on="1"/>
        <pt x="1149" y="1147" on="0"/>
        <pt x="1149" y="926" on="1"/>
        <pt x="1149" y="119" on="1"/>
        <pt x="1049" y="0" on="1"/>
        <pt x="981" y="0" on="1"/>
        <pt x="981" y="926" on="1"/>
        <pt x="981" y="1012" on="0"/>
        <pt x="909" y="1012" on="1"/>
        <pt x="867" y="1012" on="0"/>
        <pt x="805" y="944" on="0"/>
        <pt x="762" y="854" on="1"/>
        <pt x="453" y="201" on="1"/>
        <pt x="453" y="0" on="1"/>
        <pt x="285" y="0" on="1"/>
      </contour>
      <contour>
        <pt x="147" y="944" on="1"/>
        <pt x="147" y="896" on="0"/>
        <pt x="202" y="842" on="0"/>
        <pt x="250" y="842" on="1"/>
        <pt x="298" y="842" on="0"/>
        <pt x="354" y="896" on="0"/>
        <pt x="354" y="944" on="1"/>
        <pt x="354" y="992" on="0"/>
        <pt x="298" y="1049" on="0"/>
        <pt x="250" y="1049" on="1"/>
        <pt x="202" y="1049" on="0"/>
        <pt x="147" y="992" on="0"/>
      </contour>
    </TTGlyph>
    <TTGlyph name="uni0E18" xMin="139" yMin="0" xMax="1063" yMax="1167">
      <contour>
        <pt x="852" y="436" on="1"/>
        <pt x="852" y="594" on="0"/>
        <pt x="708" y="727" on="0"/>
        <pt x="547" y="727" on="1"/>
        <pt x="139" y="727" on="1"/>
        <pt x="139" y="797" on="1"/>
        <pt x="139" y="983" on="0"/>
        <pt x="273" y="1126" on="0"/>
        <pt x="434" y="1126" on="1"/>
        <pt x="530" y="1126" on="0"/>
        <pt x="760" y="1103" on="1"/>
        <pt x="827" y="1098" on="1"/>
        <pt x="926" y="1098" on="0"/>
        <pt x="986" y="1141" on="1"/>
        <pt x="1022" y="1167" on="1"/>
        <pt x="1063" y="1122" on="1"/>
        <pt x="1037" y="1093" on="0"/>
        <pt x="986" y="1037" on="0"/>
        <pt x="916" y="993" on="0"/>
        <pt x="821" y="967" on="0"/>
        <pt x="752" y="967" on="1"/>
        <pt x="683" y="971" on="1"/>
        <pt x="461" y="989" on="0"/>
        <pt x="430" y="989" on="1"/>
        <pt x="335" y="989" on="0"/>
        <pt x="250" y="957" on="0"/>
        <pt x="213" y="882" on="0"/>
        <pt x="213" y="815" on="1"/>
        <pt x="596" y="815" on="1"/>
        <pt x="814" y="815" on="0"/>
        <pt x="1020" y="641" on="0"/>
        <pt x="1020" y="455" on="1"/>
        <pt x="1020" y="354" on="1"/>
        <pt x="1020" y="187" on="0"/>
        <pt x="838" y="0" on="0"/>
        <pt x="674" y="0" on="1"/>
        <pt x="174" y="0" on="1"/>
        <pt x="174" y="406" on="1"/>
        <pt x="274" y="524" on="1"/>
        <pt x="342" y="524" on="1"/>
        <pt x="342" y="86" on="1"/>
        <pt x="594" y="86" on="1"/>
        <pt x="852" y="86" on="0"/>
        <pt x="852" y="387" on="1"/>
      </contour>
    </TTGlyph>
    <TTGlyph name="uni0E19" xMin="45" yMin="-18" xMax="1241" yMax="1137">
      <contour>
        <pt x="147" y="944" on="1"/>
        <pt x="147" y="896" on="0"/>
        <pt x="202" y="842" on="0"/>
        <pt x="250" y="842" on="1"/>
        <pt x="298" y="842" on="0"/>
        <pt x="354" y="896" on="0"/>
        <pt x="354" y="944" on="1"/>
        <pt x="354" y="992" on="0"/>
        <pt x="298" y="1049" on="0"/>
        <pt x="250" y="1049" on="1"/>
        <pt x="202" y="1049" on="0"/>
        <pt x="147" y="992" on="0"/>
      </contour>
      <contour>
        <pt x="1147" y="162" on="1"/>
        <pt x="1147" y="227" on="0"/>
        <pt x="1059" y="310" on="0"/>
        <pt x="983" y="322" on="1"/>
        <pt x="983" y="158" on="1"/>
        <pt x="983" y="113" on="0"/>
        <pt x="1024" y="66" on="0"/>
        <pt x="1061" y="66" on="1"/>
        <pt x="1096" y="66" on="0"/>
        <pt x="1147" y="115" on="0"/>
      </contour>
      <contour>
        <pt x="453" y="168" on="1"/>
        <pt x="599" y="334" on="0"/>
        <pt x="815" y="387" on="1"/>
        <pt x="815" y="1008" on="1"/>
        <pt x="915" y="1126" on="1"/>
        <pt x="983" y="1126" on="1"/>
        <pt x="983" y="401" on="1"/>
        <pt x="1106" y="387" on="0"/>
        <pt x="1241" y="261" on="0"/>
        <pt x="1241" y="162" on="1"/>
        <pt x="1241" y="80" on="0"/>
        <pt x="1138" y="-18" on="0"/>
        <pt x="1038" y="-18" on="1"/>
        <pt x="921" y="-18" on="0"/>
        <pt x="815" y="96" on="0"/>
        <pt x="815" y="211" on="1"/>
        <pt x="815" y="309" on="1"/>
        <pt x="592" y="227" on="0"/>
        <pt x="453" y="0" on="1"/>
        <pt x="285" y="0" on="1"/>
        <pt x="285" y="758" on="1"/>
        <pt x="275" y="754" on="0"/>
        <pt x="236" y="754" on="1"/>
        <pt x="146" y="754" on="0"/>
        <pt x="45" y="853" on="0"/>
        <pt x="45" y="944" on="1"/>
        <pt x="45" y="1034" on="0"/>
        <pt x="151" y="1137" on="0"/>
        <pt x="248" y="1137" on="1"/>
        <pt x="347" y="1137" on="0"/>
        <pt x="453" y="1034" on="0"/>
        <pt x="453" y="944" on="1"/>
      </contour>
    </TTGlyph>
    <TTGlyph name="uni0E1A" xMin="45" yMin="0" xMax="1096" yMax="1137">
      <contour>
        <pt x="147" y="946" on="1"/>
        <pt x="147" y="898" on="0"/>
        <pt x="202" y="844" on="0"/>
        <pt x="250" y="844" on="1"/>
        <pt x="298" y="844" on="0"/>
        <pt x="354" y="898" on="0"/>
        <pt x="354" y="946" on="1"/>
        <pt x="354" y="994" on="0"/>
        <pt x="298" y="1051" on="0"/>
        <pt x="250" y="1051" on="1"/>
        <pt x="202" y="1051" on="0"/>
        <pt x="147" y="994" on="0"/>
      </contour>
      <contour>
        <pt x="453" y="86" on="1"/>
        <pt x="684" y="86" on="1"/>
        <pt x="802" y="86" on="0"/>
        <pt x="928" y="247" on="0"/>
        <pt x="928" y="389" on="1"/>
        <pt x="928" y="1008" on="1"/>
        <pt x="1028" y="1126" on="1"/>
        <pt x="1096" y="1126" on="1"/>
        <pt x="1096" y="354" on="1"/>
        <pt x="1096" y="187" on="0"/>
        <pt x="914" y="0" on="0"/>
        <pt x="750" y="0" on="1"/>
        <pt x="123" y="0" on="1"/>
        <pt x="123" y="86" on="1"/>
        <pt x="285" y="86" on="1"/>
        <pt x="285" y="760" on="1"/>
        <pt x="275" y="756" on="0"/>
        <pt x="236" y="756" on="1"/>
        <pt x="146" y="756" on="0"/>
        <pt x="45" y="855" on="0"/>
        <pt x="45" y="946" on="1"/>
        <pt x="45" y="1036" on="0"/>
        <pt x="151" y="1137" on="0"/>
        <pt x="248" y="1137" on="1"/>
        <pt x="347" y="1137" on="0"/>
        <pt x="453" y="1036" on="0"/>
        <pt x="453" y="946" on="1"/>
      </contour>
    </TTGlyph>
    <TTGlyph name="uni0E1B" xMin="45" yMin="0" xMax="1096" yMax="1690">
      <contour>
        <pt x="147" y="946" on="1"/>
        <pt x="147" y="898" on="0"/>
        <pt x="202" y="844" on="0"/>
        <pt x="250" y="844" on="1"/>
        <pt x="298" y="844" on="0"/>
        <pt x="354" y="898" on="0"/>
        <pt x="354" y="946" on="1"/>
        <pt x="354" y="994" on="0"/>
        <pt x="298" y="1051" on="0"/>
        <pt x="250" y="1051" on="1"/>
        <pt x="202" y="1051" on="0"/>
        <pt x="147" y="994" on="0"/>
      </contour>
      <contour>
        <pt x="453" y="86" on="1"/>
        <pt x="684" y="86" on="1"/>
        <pt x="802" y="86" on="0"/>
        <pt x="928" y="247" on="0"/>
        <pt x="928" y="389" on="1"/>
        <pt x="928" y="1571" on="1"/>
        <pt x="1028" y="1690" on="1"/>
        <pt x="1096" y="1690" on="1"/>
        <pt x="1096" y="354" on="1"/>
        <pt x="1096" y="187" on="0"/>
        <pt x="914" y="0" on="0"/>
        <pt x="750" y="0" on="1"/>
        <pt x="123" y="0" on="1"/>
        <pt x="123" y="86" on="1"/>
        <pt x="285" y="86" on="1"/>
        <pt x="285" y="760" on="1"/>
        <pt x="275" y="756" on="0"/>
        <pt x="236" y="756" on="1"/>
        <pt x="146" y="756" on="0"/>
        <pt x="45" y="855" on="0"/>
        <pt x="45" y="946" on="1"/>
        <pt x="45" y="1036" on="0"/>
        <pt x="151" y="1137" on="0"/>
        <pt x="248" y="1137" on="1"/>
        <pt x="347" y="1137" on="0"/>
        <pt x="453" y="1036" on="0"/>
        <pt x="453" y="946" on="1"/>
      </contour>
    </TTGlyph>
    <TTGlyph name="uni0E1C" xMin="184" yMin="0" xMax="1159" yMax="1137">
      <contour>
        <pt x="489" y="946" on="1"/>
        <pt x="489" y="994" on="0"/>
        <pt x="435" y="1051" on="0"/>
        <pt x="387" y="1051" on="1"/>
        <pt x="339" y="1051" on="0"/>
        <pt x="283" y="994" on="0"/>
        <pt x="283" y="946" on="1"/>
        <pt x="283" y="898" on="0"/>
        <pt x="339" y="844" on="0"/>
        <pt x="387" y="844" on="1"/>
        <pt x="435" y="844" on="0"/>
        <pt x="489" y="898" on="0"/>
      </contour>
      <contour>
        <pt x="977" y="0" on="1"/>
        <pt x="948" y="84" on="0"/>
        <pt x="870" y="213" on="0"/>
        <pt x="788" y="333" on="0"/>
        <pt x="706" y="459" on="0"/>
        <pt x="672" y="539" on="1"/>
        <pt x="638" y="459" on="0"/>
        <pt x="556" y="333" on="0"/>
        <pt x="473" y="213" on="0"/>
        <pt x="396" y="84" on="0"/>
        <pt x="367" y="0" on="1"/>
        <pt x="184" y="0" on="1"/>
        <pt x="184" y="946" on="1"/>
        <pt x="184" y="1036" on="0"/>
        <pt x="290" y="1137" on="0"/>
        <pt x="389" y="1137" on="1"/>
        <pt x="486" y="1137" on="0"/>
        <pt x="592" y="1036" on="0"/>
        <pt x="592" y="946" on="1"/>
        <pt x="592" y="855" on="0"/>
        <pt x="491" y="756" on="0"/>
        <pt x="401" y="756" on="1"/>
        <pt x="362" y="756" on="0"/>
        <pt x="352" y="760" on="1"/>
        <pt x="352" y="182" on="1"/>
        <pt x="379" y="249" on="0"/>
        <pt x="452" y="360" on="0"/>
        <pt x="529" y="472" on="0"/>
        <pt x="599" y="594" on="0"/>
        <pt x="623" y="672" on="1"/>
        <pt x="721" y="672" on="1"/>
        <pt x="745" y="594" on="0"/>
        <pt x="815" y="472" on="0"/>
        <pt x="891" y="360" on="0"/>
        <pt x="964" y="249" on="0"/>
        <pt x="991" y="182" on="1"/>
        <pt x="991" y="1008" on="1"/>
        <pt x="1092" y="1126" on="1"/>
        <pt x="1159" y="1126" on="1"/>
        <pt x="1159" y="119" on="1"/>
        <pt x="1061" y="0" on="1"/>
      </contour>
    </TTGlyph>
    <TTGlyph name="uni0E1D" xMin="184" yMin="0" xMax="1159" yMax="1690">
      <contour>
        <pt x="489" y="946" on="1"/>
        <pt x="489" y="994" on="0"/>
        <pt x="435" y="1051" on="0"/>
        <pt x="387" y="1051" on="1"/>
        <pt x="339" y="1051" on="0"/>
        <pt x="283" y="994" on="0"/>
        <pt x="283" y="946" on="1"/>
        <pt x="283" y="898" on="0"/>
        <pt x="339" y="844" on="0"/>
        <pt x="387" y="844" on="1"/>
        <pt x="435" y="844" on="0"/>
        <pt x="489" y="898" on="0"/>
      </contour>
      <contour>
        <pt x="977" y="0" on="1"/>
        <pt x="948" y="84" on="0"/>
        <pt x="870" y="213" on="0"/>
        <pt x="788" y="333" on="0"/>
        <pt x="706" y="459" on="0"/>
        <pt x="672" y="539" on="1"/>
        <pt x="638" y="459" on="0"/>
        <pt x="556" y="333" on="0"/>
        <pt x="473" y="213" on="0"/>
        <pt x="396" y="84" on="0"/>
        <pt x="367" y="0" on="1"/>
        <pt x="184" y="0" on="1"/>
        <pt x="184" y="946" on="1"/>
        <pt x="184" y="1036" on="0"/>
        <pt x="290" y="1137" on="0"/>
        <pt x="389" y="1137" on="1"/>
        <pt x="486" y="1137" on="0"/>
        <pt x="592" y="1036" on="0"/>
        <pt x="592" y="946" on="1"/>
        <pt x="592" y="855" on="0"/>
        <pt x="491" y="756" on="0"/>
        <pt x="401" y="756" on="1"/>
        <pt x="362" y="756" on="0"/>
        <pt x="352" y="760" on="1"/>
        <pt x="352" y="182" on="1"/>
        <pt x="379" y="249" on="0"/>
        <pt x="452" y="360" on="0"/>
        <pt x="529" y="472" on="0"/>
        <pt x="599" y="594" on="0"/>
        <pt x="623" y="672" on="1"/>
        <pt x="721" y="672" on="1"/>
        <pt x="745" y="594" on="0"/>
        <pt x="815" y="472" on="0"/>
        <pt x="891" y="360" on="0"/>
        <pt x="964" y="249" on="0"/>
        <pt x="991" y="182" on="1"/>
        <pt x="991" y="1571" on="1"/>
        <pt x="1092" y="1690" on="1"/>
        <pt x="1159" y="1690" on="1"/>
        <pt x="1159" y="119" on="1"/>
        <pt x="1061" y="0" on="1"/>
      </contour>
    </TTGlyph>
    <TTGlyph name="uni0E1E" xMin="45" yMin="0" xMax="1262" yMax="1137">
      <contour>
        <pt x="147" y="944" on="1"/>
        <pt x="147" y="896" on="0"/>
        <pt x="202" y="842" on="0"/>
        <pt x="250" y="842" on="1"/>
        <pt x="298" y="842" on="0"/>
        <pt x="354" y="896" on="0"/>
        <pt x="354" y="944" on="1"/>
        <pt x="354" y="992" on="0"/>
        <pt x="298" y="1049" on="0"/>
        <pt x="250" y="1049" on="1"/>
        <pt x="202" y="1049" on="0"/>
        <pt x="147" y="992" on="0"/>
      </contour>
      <contour>
        <pt x="1163" y="0" on="1"/>
        <pt x="1057" y="0" on="1"/>
        <pt x="772" y="965" on="1"/>
        <pt x="489" y="0" on="1"/>
        <pt x="285" y="0" on="1"/>
        <pt x="285" y="758" on="1"/>
        <pt x="275" y="754" on="0"/>
        <pt x="236" y="754" on="1"/>
        <pt x="146" y="754" on="0"/>
        <pt x="45" y="853" on="0"/>
        <pt x="45" y="944" on="1"/>
        <pt x="45" y="1034" on="0"/>
        <pt x="151" y="1137" on="0"/>
        <pt x="248" y="1137" on="1"/>
        <pt x="347" y="1137" on="0"/>
        <pt x="453" y="1034" on="0"/>
        <pt x="453" y="944" on="1"/>
        <pt x="453" y="223" on="1"/>
        <pt x="721" y="1116" on="1"/>
        <pt x="825" y="1116" on="1"/>
        <pt x="1094" y="223" on="1"/>
        <pt x="1094" y="1008" on="1"/>
        <pt x="1194" y="1126" on="1"/>
        <pt x="1262" y="1126" on="1"/>
        <pt x="1262" y="119" on="1"/>
      </contour>
    </TTGlyph>
    <TTGlyph name="uni0E1F" xMin="45" yMin="0" xMax="1262" yMax="1690">
      <contour>
        <pt x="147" y="944" on="1"/>
        <pt x="147" y="896" on="0"/>
        <pt x="202" y="842" on="0"/>
        <pt x="250" y="842" on="1"/>
        <pt x="298" y="842" on="0"/>
        <pt x="354" y="896" on="0"/>
        <pt x="354" y="944" on="1"/>
        <pt x="354" y="992" on="0"/>
        <pt x="298" y="1049" on="0"/>
        <pt x="250" y="1049" on="1"/>
        <pt x="202" y="1049" on="0"/>
        <pt x="147" y="992" on="0"/>
      </contour>
      <contour>
        <pt x="1163" y="0" on="1"/>
        <pt x="1057" y="0" on="1"/>
        <pt x="772" y="965" on="1"/>
        <pt x="489" y="0" on="1"/>
        <pt x="285" y="0" on="1"/>
        <pt x="285" y="758" on="1"/>
        <pt x="275" y="754" on="0"/>
        <pt x="236" y="754" on="1"/>
        <pt x="146" y="754" on="0"/>
        <pt x="45" y="853" on="0"/>
        <pt x="45" y="944" on="1"/>
        <pt x="45" y="1034" on="0"/>
        <pt x="151" y="1137" on="0"/>
        <pt x="248" y="1137" on="1"/>
        <pt x="347" y="1137" on="0"/>
        <pt x="453" y="1034" on="0"/>
        <pt x="453" y="944" on="1"/>
        <pt x="453" y="223" on="1"/>
        <pt x="721" y="1116" on="1"/>
        <pt x="825" y="1116" on="1"/>
        <pt x="1094" y="223" on="1"/>
        <pt x="1094" y="1571" on="1"/>
        <pt x="1194" y="1690" on="1"/>
        <pt x="1262" y="1690" on="1"/>
        <pt x="1262" y="119" on="1"/>
      </contour>
    </TTGlyph>
    <TTGlyph name="uni0E20" xMin="45" yMin="-18" xMax="1178" yMax="1147">
      <contour>
        <pt x="285" y="393" on="1"/>
        <pt x="285" y="622" on="0"/>
        <pt x="506" y="670" on="1"/>
        <pt x="466" y="704" on="0"/>
        <pt x="304" y="750" on="0"/>
        <pt x="252" y="750" on="1"/>
        <pt x="266" y="955" on="0"/>
        <pt x="502" y="1147" on="0"/>
        <pt x="729" y="1147" on="1"/>
        <pt x="957" y="1147" on="0"/>
        <pt x="1178" y="934" on="0"/>
        <pt x="1178" y="696" on="1"/>
        <pt x="1178" y="119" on="1"/>
        <pt x="1077" y="0" on="1"/>
        <pt x="1010" y="0" on="1"/>
        <pt x="1010" y="715" on="1"/>
        <pt x="1010" y="901" on="0"/>
        <pt x="864" y="1057" on="0"/>
        <pt x="713" y="1057" on="1"/>
        <pt x="583" y="1057" on="0"/>
        <pt x="432" y="923" on="0"/>
        <pt x="424" y="797" on="1"/>
        <pt x="492" y="787" on="0"/>
        <pt x="630" y="709" on="0"/>
        <pt x="670" y="662" on="1"/>
        <pt x="670" y="645" on="1"/>
        <pt x="554" y="622" on="0"/>
        <pt x="453" y="497" on="0"/>
        <pt x="453" y="391" on="1"/>
        <pt x="453" y="172" on="1"/>
        <pt x="453" y="82" on="0"/>
        <pt x="347" y="-18" on="0"/>
        <pt x="248" y="-18" on="1"/>
        <pt x="151" y="-18" on="0"/>
        <pt x="45" y="82" on="0"/>
        <pt x="45" y="172" on="1"/>
        <pt x="45" y="263" on="0"/>
        <pt x="146" y="365" on="0"/>
        <pt x="236" y="365" on="1"/>
        <pt x="273" y="365" on="0"/>
        <pt x="285" y="360" on="1"/>
      </contour>
      <contour>
        <pt x="147" y="174" on="1"/>
        <pt x="147" y="126" on="0"/>
        <pt x="202" y="70" on="0"/>
        <pt x="250" y="70" on="1"/>
        <pt x="298" y="70" on="0"/>
        <pt x="354" y="126" on="0"/>
        <pt x="354" y="174" on="1"/>
        <pt x="354" y="222" on="0"/>
        <pt x="298" y="276" on="0"/>
        <pt x="250" y="276" on="1"/>
        <pt x="202" y="276" on="0"/>
        <pt x="147" y="222" on="0"/>
      </contour>
    </TTGlyph>
    <TTGlyph name="uni0E21" xMin="86" yMin="-18" xMax="1042" yMax="1137">
      <contour>
        <pt x="207" y="944" on="1"/>
        <pt x="207" y="896" on="0"/>
        <pt x="261" y="842" on="0"/>
        <pt x="309" y="842" on="1"/>
        <pt x="357" y="842" on="0"/>
        <pt x="414" y="896" on="0"/>
        <pt x="414" y="944" on="1"/>
        <pt x="414" y="992" on="0"/>
        <pt x="357" y="1049" on="0"/>
        <pt x="309" y="1049" on="1"/>
        <pt x="261" y="1049" on="0"/>
        <pt x="207" y="992" on="0"/>
      </contour>
      <contour>
        <pt x="180" y="162" on="1"/>
        <pt x="180" y="115" on="0"/>
        <pt x="231" y="66" on="0"/>
        <pt x="266" y="66" on="1"/>
        <pt x="303" y="66" on="0"/>
        <pt x="344" y="113" on="0"/>
        <pt x="344" y="158" on="1"/>
        <pt x="344" y="322" on="1"/>
        <pt x="268" y="310" on="0"/>
        <pt x="180" y="226" on="0"/>
      </contour>
      <contour>
        <pt x="1042" y="0" on="1"/>
        <pt x="874" y="0" on="1"/>
        <pt x="735" y="228" on="0"/>
        <pt x="512" y="309" on="1"/>
        <pt x="512" y="211" on="1"/>
        <pt x="512" y="96" on="0"/>
        <pt x="406" y="-18" on="0"/>
        <pt x="289" y="-18" on="1"/>
        <pt x="189" y="-18" on="0"/>
        <pt x="86" y="80" on="0"/>
        <pt x="86" y="162" on="1"/>
        <pt x="86" y="261" on="0"/>
        <pt x="221" y="387" on="0"/>
        <pt x="344" y="401" on="1"/>
        <pt x="344" y="758" on="1"/>
        <pt x="334" y="754" on="0"/>
        <pt x="295" y="754" on="1"/>
        <pt x="205" y="754" on="0"/>
        <pt x="104" y="853" on="0"/>
        <pt x="104" y="944" on="1"/>
        <pt x="104" y="1034" on="0"/>
        <pt x="210" y="1137" on="0"/>
        <pt x="307" y="1137" on="1"/>
        <pt x="406" y="1137" on="0"/>
        <pt x="512" y="1034" on="0"/>
        <pt x="512" y="944" on="1"/>
        <pt x="512" y="387" on="1"/>
        <pt x="727" y="335" on="0"/>
        <pt x="874" y="168" on="1"/>
        <pt x="874" y="1008" on="1"/>
        <pt x="975" y="1126" on="1"/>
        <pt x="1042" y="1126" on="1"/>
      </contour>
    </TTGlyph>
    <TTGlyph name="uni0E22" xMin="133" yMin="0" xMax="971" yMax="1137">
      <contour>
        <pt x="266" y="944" on="1"/>
        <pt x="266" y="896" on="0"/>
        <pt x="321" y="842" on="0"/>
        <pt x="369" y="842" on="1"/>
        <pt x="417" y="842" on="0"/>
        <pt x="473" y="896" on="0"/>
        <pt x="473" y="944" on="1"/>
        <pt x="473" y="992" on="0"/>
        <pt x="417" y="1049" on="0"/>
        <pt x="369" y="1049" on="1"/>
        <pt x="321" y="1049" on="0"/>
        <pt x="266" y="992" on="0"/>
      </contour>
      <contour>
        <pt x="481" y="0" on="1"/>
        <pt x="308" y="0" on="0"/>
        <pt x="135" y="173" on="0"/>
        <pt x="135" y="332" on="1"/>
        <pt x="135" y="439" on="0"/>
        <pt x="237" y="573" on="0"/>
        <pt x="330" y="592" on="1"/>
        <pt x="284" y="600" on="0"/>
        <pt x="188" y="691" on="0"/>
        <pt x="133" y="821" on="0"/>
        <pt x="133" y="901" on="1"/>
        <pt x="135" y="1009" on="0"/>
        <pt x="260" y="1137" on="0"/>
        <pt x="371" y="1137" on="1"/>
        <pt x="468" y="1137" on="0"/>
        <pt x="573" y="1036" on="0"/>
        <pt x="573" y="946" on="1"/>
        <pt x="573" y="855" on="0"/>
        <pt x="468" y="756" on="0"/>
        <pt x="371" y="756" on="1"/>
        <pt x="346" y="756" on="0"/>
        <pt x="330" y="760" on="1"/>
        <pt x="347" y="694" on="0"/>
        <pt x="445" y="629" on="0"/>
        <pt x="508" y="623" on="1"/>
        <pt x="508" y="563" on="1"/>
        <pt x="303" y="538" on="0"/>
        <pt x="303" y="340" on="1"/>
        <pt x="303" y="217" on="0"/>
        <pt x="418" y="86" on="0"/>
        <pt x="547" y="86" on="1"/>
        <pt x="559" y="86" on="1"/>
        <pt x="803" y="86" on="0"/>
        <pt x="803" y="342" on="1"/>
        <pt x="803" y="1008" on="1"/>
        <pt x="903" y="1126" on="1"/>
        <pt x="971" y="1126" on="1"/>
        <pt x="971" y="332" on="1"/>
        <pt x="971" y="173" on="0"/>
        <pt x="798" y="0" on="0"/>
        <pt x="625" y="0" on="1"/>
      </contour>
    </TTGlyph>
    <TTGlyph name="uni0E23" xMin="70" yMin="-18" xMax="991" yMax="1167">
      <contour>
        <pt x="469" y="174" on="1"/>
        <pt x="469" y="126" on="0"/>
        <pt x="523" y="70" on="0"/>
        <pt x="571" y="70" on="1"/>
        <pt x="619" y="70" on="0"/>
        <pt x="676" y="126" on="0"/>
        <pt x="676" y="174" on="1"/>
        <pt x="676" y="222" on="0"/>
        <pt x="619" y="276" on="0"/>
        <pt x="571" y="276" on="1"/>
        <pt x="523" y="276" on="0"/>
        <pt x="469" y="222" on="0"/>
      </contour>
      <contour>
        <pt x="606" y="436" on="1"/>
        <pt x="606" y="594" on="0"/>
        <pt x="462" y="727" on="0"/>
        <pt x="301" y="727" on="1"/>
        <pt x="70" y="727" on="1"/>
        <pt x="70" y="797" on="1"/>
        <pt x="70" y="974" on="0"/>
        <pt x="217" y="1126" on="0"/>
        <pt x="385" y="1126" on="1"/>
        <pt x="478" y="1126" on="0"/>
        <pt x="692" y="1103" on="1"/>
        <pt x="756" y="1098" on="1"/>
        <pt x="854" y="1098" on="0"/>
        <pt x="914" y="1141" on="1"/>
        <pt x="950" y="1167" on="1"/>
        <pt x="991" y="1122" on="1"/>
        <pt x="926" y="1046" on="0"/>
        <pt x="851" y="995" on="0"/>
        <pt x="751" y="967" on="0"/>
        <pt x="680" y="967" on="1"/>
        <pt x="648" y="967" on="0"/>
        <pt x="535" y="978" on="1"/>
        <pt x="422" y="989" on="0"/>
        <pt x="381" y="989" on="1"/>
        <pt x="242" y="989" on="0"/>
        <pt x="143" y="909" on="0"/>
        <pt x="143" y="815" on="1"/>
        <pt x="350" y="815" on="1"/>
        <pt x="568" y="815" on="0"/>
        <pt x="774" y="641" on="0"/>
        <pt x="774" y="455" on="1"/>
        <pt x="774" y="172" on="1"/>
        <pt x="774" y="82" on="0"/>
        <pt x="668" y="-18" on="0"/>
        <pt x="569" y="-18" on="1"/>
        <pt x="472" y="-18" on="0"/>
        <pt x="367" y="82" on="0"/>
        <pt x="367" y="172" on="1"/>
        <pt x="367" y="263" on="0"/>
        <pt x="467" y="365" on="0"/>
        <pt x="557" y="365" on="1"/>
        <pt x="593" y="365" on="0"/>
        <pt x="606" y="360" on="1"/>
      </contour>
    </TTGlyph>
    <TTGlyph name="uni0E24" xMin="133" yMin="-520" xMax="1059" yMax="1147">
      <contour>
        <pt x="334" y="358" on="1"/>
        <pt x="344" y="362" on="0"/>
        <pt x="383" y="362" on="1"/>
        <pt x="473" y="362" on="0"/>
        <pt x="573" y="263" on="0"/>
        <pt x="573" y="172" on="1"/>
        <pt x="573" y="82" on="0"/>
        <pt x="468" y="-18" on="0"/>
        <pt x="371" y="-18" on="1"/>
        <pt x="272" y="-18" on="0"/>
        <pt x="166" y="82" on="0"/>
        <pt x="166" y="172" on="1"/>
        <pt x="166" y="393" on="1"/>
        <pt x="166" y="622" on="0"/>
        <pt x="387" y="670" on="1"/>
        <pt x="349" y="703" on="0"/>
        <pt x="183" y="750" on="0"/>
        <pt x="133" y="750" on="1"/>
        <pt x="147" y="955" on="0"/>
        <pt x="383" y="1147" on="0"/>
        <pt x="610" y="1147" on="1"/>
        <pt x="840" y="1147" on="0"/>
        <pt x="1059" y="934" on="0"/>
        <pt x="1059" y="696" on="1"/>
        <pt x="1059" y="-401" on="1"/>
        <pt x="958" y="-520" on="1"/>
        <pt x="891" y="-520" on="1"/>
        <pt x="891" y="715" on="1"/>
        <pt x="891" y="901" on="0"/>
        <pt x="745" y="1057" on="0"/>
        <pt x="594" y="1057" on="1"/>
        <pt x="464" y="1057" on="0"/>
        <pt x="313" y="923" on="0"/>
        <pt x="305" y="797" on="1"/>
        <pt x="373" y="787" on="0"/>
        <pt x="511" y="709" on="0"/>
        <pt x="551" y="662" on="1"/>
        <pt x="551" y="645" on="1"/>
        <pt x="435" y="622" on="0"/>
        <pt x="334" y="497" on="0"/>
        <pt x="334" y="391" on="1"/>
      </contour>
      <contour>
        <pt x="471" y="172" on="1"/>
        <pt x="471" y="220" on="0"/>
        <pt x="417" y="274" on="0"/>
        <pt x="369" y="274" on="1"/>
        <pt x="321" y="274" on="0"/>
        <pt x="264" y="220" on="0"/>
        <pt x="264" y="172" on="1"/>
        <pt x="264" y="124" on="0"/>
        <pt x="321" y="68" on="0"/>
        <pt x="369" y="68" on="1"/>
        <pt x="417" y="68" on="0"/>
        <pt x="471" y="124" on="0"/>
      </contour>
    </TTGlyph>
    <TTGlyph name="uni0E25" xMin="119" yMin="-18" xMax="1049" yMax="1147">
      <contour>
        <pt x="311" y="358" on="1"/>
        <pt x="321" y="362" on="0"/>
        <pt x="360" y="362" on="1"/>
        <pt x="450" y="362" on="0"/>
        <pt x="551" y="263" on="0"/>
        <pt x="551" y="172" on="1"/>
        <pt x="551" y="82" on="0"/>
        <pt x="445" y="-18" on="0"/>
        <pt x="348" y="-18" on="1"/>
        <pt x="249" y="-18" on="0"/>
        <pt x="143" y="82" on="0"/>
        <pt x="143" y="172" on="1"/>
        <pt x="143" y="358" on="1"/>
        <pt x="143" y="521" on="0"/>
        <pt x="310" y="674" on="0"/>
        <pt x="473" y="674" on="1"/>
        <pt x="715" y="674" on="0"/>
        <pt x="881" y="348" on="1"/>
        <pt x="881" y="686" on="1"/>
        <pt x="881" y="864" on="0"/>
        <pt x="715" y="1049" on="0"/>
        <pt x="565" y="1049" on="1"/>
        <pt x="353" y="1049" on="0"/>
        <pt x="166" y="930" on="1"/>
        <pt x="119" y="1008" on="1"/>
        <pt x="321" y="1147" on="0"/>
        <pt x="584" y="1147" on="1"/>
        <pt x="811" y="1147" on="0"/>
        <pt x="1049" y="913" on="0"/>
        <pt x="1049" y="700" on="1"/>
        <pt x="1049" y="119" on="1"/>
        <pt x="948" y="0" on="1"/>
        <pt x="881" y="0" on="1"/>
        <pt x="881" y="174" on="1"/>
        <pt x="795" y="370" on="0"/>
        <pt x="590" y="575" on="0"/>
        <pt x="483" y="575" on="1"/>
        <pt x="311" y="575" on="0"/>
        <pt x="311" y="395" on="1"/>
      </contour>
      <contour>
        <pt x="449" y="172" on="1"/>
        <pt x="449" y="220" on="0"/>
        <pt x="394" y="274" on="0"/>
        <pt x="346" y="274" on="1"/>
        <pt x="298" y="274" on="0"/>
        <pt x="242" y="220" on="0"/>
        <pt x="242" y="172" on="1"/>
        <pt x="242" y="124" on="0"/>
        <pt x="298" y="68" on="0"/>
        <pt x="346" y="68" on="1"/>
        <pt x="394" y="68" on="0"/>
        <pt x="449" y="124" on="0"/>
      </contour>
    </TTGlyph>
    <TTGlyph name="uni0E26" xMin="45" yMin="-520" xMax="1178" yMax="1147">
      <contour>
        <pt x="285" y="393" on="1"/>
        <pt x="285" y="622" on="0"/>
        <pt x="506" y="670" on="1"/>
        <pt x="466" y="704" on="0"/>
        <pt x="304" y="750" on="0"/>
        <pt x="252" y="750" on="1"/>
        <pt x="266" y="955" on="0"/>
        <pt x="502" y="1147" on="0"/>
        <pt x="729" y="1147" on="1"/>
        <pt x="957" y="1147" on="0"/>
        <pt x="1178" y="934" on="0"/>
        <pt x="1178" y="696" on="1"/>
        <pt x="1178" y="-401" on="1"/>
        <pt x="1077" y="-520" on="1"/>
        <pt x="1010" y="-520" on="1"/>
        <pt x="1010" y="715" on="1"/>
        <pt x="1010" y="901" on="0"/>
        <pt x="864" y="1057" on="0"/>
        <pt x="713" y="1057" on="1"/>
        <pt x="583" y="1057" on="0"/>
        <pt x="432" y="923" on="0"/>
        <pt x="424" y="797" on="1"/>
        <pt x="492" y="787" on="0"/>
        <pt x="630" y="709" on="0"/>
        <pt x="670" y="662" on="1"/>
        <pt x="670" y="645" on="1"/>
        <pt x="554" y="622" on="0"/>
        <pt x="453" y="497" on="0"/>
        <pt x="453" y="391" on="1"/>
        <pt x="453" y="172" on="1"/>
        <pt x="453" y="82" on="0"/>
        <pt x="347" y="-18" on="0"/>
        <pt x="248" y="-18" on="1"/>
        <pt x="151" y="-18" on="0"/>
        <pt x="45" y="82" on="0"/>
        <pt x="45" y="172" on="1"/>
        <pt x="45" y="263" on="0"/>
        <pt x="146" y="365" on="0"/>
        <pt x="236" y="365" on="1"/>
        <pt x="273" y="365" on="0"/>
        <pt x="285" y="360" on="1"/>
      </contour>
      <contour>
        <pt x="147" y="174" on="1"/>
        <pt x="147" y="126" on="0"/>
        <pt x="202" y="70" on="0"/>
        <pt x="250" y="70" on="1"/>
        <pt x="298" y="70" on="0"/>
        <pt x="354" y="126" on="0"/>
        <pt x="354" y="174" on="1"/>
        <pt x="354" y="222" on="0"/>
        <pt x="298" y="276" on="0"/>
        <pt x="250" y="276" on="1"/>
        <pt x="202" y="276" on="0"/>
        <pt x="147" y="222" on="0"/>
      </contour>
    </TTGlyph>
    <TTGlyph name="uni0E27" xMin="-4" yMin="-18" xMax="823" yMax="1147">
      <contour>
        <pt x="823" y="172" on="1"/>
        <pt x="823" y="82" on="0"/>
        <pt x="718" y="-18" on="0"/>
        <pt x="618" y="-18" on="1"/>
        <pt x="521" y="-18" on="0"/>
        <pt x="416" y="82" on="0"/>
        <pt x="416" y="172" on="1"/>
        <pt x="416" y="263" on="0"/>
        <pt x="516" y="365" on="0"/>
        <pt x="606" y="365" on="1"/>
        <pt x="643" y="365" on="0"/>
        <pt x="655" y="360" on="1"/>
        <pt x="655" y="686" on="1"/>
        <pt x="655" y="863" on="0"/>
        <pt x="517" y="1049" on="0"/>
        <pt x="389" y="1049" on="1"/>
        <pt x="311" y="1049" on="0"/>
        <pt x="160" y="1001" on="0"/>
        <pt x="43" y="930" on="1"/>
        <pt x="-4" y="1008" on="1"/>
        <pt x="200" y="1147" on="0"/>
        <pt x="420" y="1147" on="1"/>
        <pt x="823" y="1147" on="0"/>
        <pt x="823" y="698" on="1"/>
      </contour>
      <contour>
        <pt x="518" y="174" on="1"/>
        <pt x="518" y="126" on="0"/>
        <pt x="573" y="70" on="0"/>
        <pt x="621" y="70" on="1"/>
        <pt x="669" y="70" on="0"/>
        <pt x="725" y="126" on="0"/>
        <pt x="725" y="174" on="1"/>
        <pt x="725" y="222" on="0"/>
        <pt x="669" y="276" on="0"/>
        <pt x="621" y="276" on="1"/>
        <pt x="573" y="276" on="0"/>
        <pt x="518" y="222" on="0"/>
      </contour>
    </TTGlyph>
    <TTGlyph name="uni0E28" xMin="113" yMin="0" xMax="1288" yMax="1206">
      <contour>
        <pt x="451" y="467" on="1"/>
        <pt x="413" y="426" on="0"/>
        <pt x="367" y="246" on="0"/>
        <pt x="365" y="127" on="1"/>
        <pt x="365" y="0" on="1"/>
        <pt x="197" y="0" on="1"/>
        <pt x="197" y="139" on="1"/>
        <pt x="197" y="329" on="0"/>
        <pt x="155" y="480" on="1"/>
        <pt x="130" y="569" on="0"/>
        <pt x="113" y="673" on="0"/>
        <pt x="113" y="729" on="1"/>
        <pt x="113" y="923" on="0"/>
        <pt x="381" y="1147" on="0"/>
        <pt x="618" y="1147" on="1"/>
        <pt x="859" y="1147" on="0"/>
        <pt x="985" y="1038" on="1"/>
        <pt x="1048" y="1117" on="0"/>
        <pt x="1102" y="1206" on="1"/>
        <pt x="1288" y="1206" on="1"/>
        <pt x="1202" y="1055" on="0"/>
        <pt x="1069" y="930" on="1"/>
        <pt x="1114" y="830" on="0"/>
        <pt x="1114" y="696" on="1"/>
        <pt x="1114" y="119" on="1"/>
        <pt x="1014" y="0" on="1"/>
        <pt x="946" y="0" on="1"/>
        <pt x="946" y="713" on="1"/>
        <pt x="946" y="771" on="0"/>
        <pt x="936" y="823" on="1"/>
        <pt x="846" y="761" on="0"/>
        <pt x="754" y="713" on="1"/>
        <pt x="811" y="662" on="0"/>
        <pt x="811" y="569" on="1"/>
        <pt x="811" y="478" on="0"/>
        <pt x="705" y="379" on="0"/>
        <pt x="608" y="379" on="1"/>
        <pt x="499" y="379" on="0"/>
      </contour>
      <contour>
        <pt x="891" y="936" on="1"/>
        <pt x="812" y="1055" on="0"/>
        <pt x="618" y="1055" on="1"/>
        <pt x="451" y="1055" on="0"/>
        <pt x="258" y="894" on="0"/>
        <pt x="258" y="758" on="1"/>
        <pt x="258" y="704" on="0"/>
        <pt x="280" y="598" on="0"/>
        <pt x="312" y="500" on="1"/>
        <pt x="336" y="410" on="1"/>
        <pt x="372" y="556" on="0"/>
        <pt x="442" y="691" on="0"/>
        <pt x="541" y="760" on="0"/>
        <pt x="608" y="760" on="1"/>
        <pt x="639" y="760" on="0"/>
        <pt x="668" y="754" on="1"/>
        <pt x="802" y="843" on="0"/>
      </contour>
      <contour>
        <pt x="504" y="567" on="1"/>
        <pt x="504" y="519" on="0"/>
        <pt x="558" y="465" on="0"/>
        <pt x="606" y="465" on="1"/>
        <pt x="654" y="465" on="0"/>
        <pt x="711" y="519" on="0"/>
        <pt x="711" y="567" on="1"/>
        <pt x="711" y="615" on="0"/>
        <pt x="654" y="672" on="0"/>
        <pt x="606" y="672" on="1"/>
        <pt x="558" y="672" on="0"/>
        <pt x="504" y="615" on="0"/>
      </contour>
    </TTGlyph>
    <TTGlyph name="uni0E29" xMin="45" yMin="0" xMax="1358" yMax="1137">
      <contour>
        <pt x="453" y="86" on="1"/>
        <pt x="684" y="86" on="1"/>
        <pt x="802" y="86" on="0"/>
        <pt x="928" y="247" on="0"/>
        <pt x="928" y="389" on="1"/>
        <pt x="928" y="440" on="1"/>
        <pt x="844" y="416" on="0"/>
        <pt x="750" y="416" on="1"/>
        <pt x="506" y="416" on="0"/>
        <pt x="506" y="606" on="1"/>
        <pt x="506" y="687" on="0"/>
        <pt x="608" y="778" on="0"/>
        <pt x="694" y="778" on="1"/>
        <pt x="782" y="778" on="0"/>
        <pt x="879" y="689" on="0"/>
        <pt x="879" y="616" on="1"/>
        <pt x="879" y="574" on="0"/>
        <pt x="850" y="514" on="0"/>
        <pt x="836" y="502" on="1"/>
        <pt x="885" y="514" on="0"/>
        <pt x="928" y="532" on="1"/>
        <pt x="928" y="1008" on="1"/>
        <pt x="1028" y="1126" on="1"/>
        <pt x="1096" y="1126" on="1"/>
        <pt x="1096" y="643" on="1"/>
        <pt x="1178" y="725" on="0"/>
        <pt x="1237" y="852" on="1"/>
        <pt x="1358" y="778" on="1"/>
        <pt x="1246" y="592" on="0"/>
        <pt x="1096" y="496" on="1"/>
        <pt x="1096" y="354" on="1"/>
        <pt x="1096" y="187" on="0"/>
        <pt x="914" y="0" on="0"/>
        <pt x="750" y="0" on="1"/>
        <pt x="123" y="0" on="1"/>
        <pt x="123" y="86" on="1"/>
        <pt x="285" y="86" on="1"/>
        <pt x="285" y="760" on="1"/>
        <pt x="275" y="756" on="0"/>
        <pt x="236" y="756" on="1"/>
        <pt x="146" y="756" on="0"/>
        <pt x="45" y="855" on="0"/>
        <pt x="45" y="946" on="1"/>
        <pt x="45" y="1036" on="0"/>
        <pt x="151" y="1137" on="0"/>
        <pt x="248" y="1137" on="1"/>
        <pt x="347" y="1137" on="0"/>
        <pt x="453" y="1036" on="0"/>
        <pt x="453" y="946" on="1"/>
      </contour>
      <contour>
        <pt x="147" y="946" on="1"/>
        <pt x="147" y="898" on="0"/>
        <pt x="202" y="844" on="0"/>
        <pt x="250" y="844" on="1"/>
        <pt x="298" y="844" on="0"/>
        <pt x="354" y="898" on="0"/>
        <pt x="354" y="946" on="1"/>
        <pt x="354" y="994" on="0"/>
        <pt x="298" y="1051" on="0"/>
        <pt x="250" y="1051" on="1"/>
        <pt x="202" y="1051" on="0"/>
        <pt x="147" y="994" on="0"/>
      </contour>
      <contour>
        <pt x="604" y="604" on="1"/>
        <pt x="604" y="566" on="0"/>
        <pt x="652" y="518" on="0"/>
        <pt x="694" y="518" on="1"/>
        <pt x="731" y="518" on="0"/>
        <pt x="782" y="566" on="0"/>
        <pt x="782" y="604" on="1"/>
        <pt x="782" y="646" on="0"/>
        <pt x="731" y="692" on="0"/>
        <pt x="694" y="692" on="1"/>
        <pt x="652" y="692" on="0"/>
        <pt x="604" y="646" on="0"/>
      </contour>
    </TTGlyph>
    <TTGlyph name="uni0E2A" xMin="119" yMin="-18" xMax="1223" yMax="1206">
      <contour>
        <pt x="311" y="358" on="1"/>
        <pt x="321" y="362" on="0"/>
        <pt x="360" y="362" on="1"/>
        <pt x="450" y="362" on="0"/>
        <pt x="551" y="263" on="0"/>
        <pt x="551" y="172" on="1"/>
        <pt x="551" y="82" on="0"/>
        <pt x="445" y="-18" on="0"/>
        <pt x="348" y="-18" on="1"/>
        <pt x="249" y="-18" on="0"/>
        <pt x="143" y="82" on="0"/>
        <pt x="143" y="172" on="1"/>
        <pt x="143" y="358" on="1"/>
        <pt x="143" y="520" on="0"/>
        <pt x="307" y="672" on="0"/>
        <pt x="469" y="674" on="1"/>
        <pt x="672" y="785" on="0"/>
        <pt x="817" y="928" on="1"/>
        <pt x="735" y="1049" on="0"/>
        <pt x="565" y="1049" on="1"/>
        <pt x="353" y="1049" on="0"/>
        <pt x="166" y="930" on="1"/>
        <pt x="119" y="1008" on="1"/>
        <pt x="321" y="1147" on="0"/>
        <pt x="584" y="1147" on="1"/>
        <pt x="799" y="1147" on="0"/>
        <pt x="920" y="1038" on="1"/>
        <pt x="981" y="1116" on="0"/>
        <pt x="1036" y="1206" on="1"/>
        <pt x="1223" y="1206" on="1"/>
        <pt x="1131" y="1046" on="0"/>
        <pt x="1001" y="928" on="1"/>
        <pt x="1049" y="828" on="0"/>
        <pt x="1049" y="700" on="1"/>
        <pt x="1049" y="119" on="1"/>
        <pt x="948" y="0" on="1"/>
        <pt x="881" y="0" on="1"/>
        <pt x="881" y="174" on="1"/>
        <pt x="795" y="370" on="0"/>
        <pt x="590" y="575" on="0"/>
        <pt x="483" y="575" on="1"/>
        <pt x="311" y="575" on="0"/>
        <pt x="311" y="395" on="1"/>
      </contour>
      <contour>
        <pt x="881" y="348" on="1"/>
        <pt x="881" y="686" on="1"/>
        <pt x="881" y="757" on="0"/>
        <pt x="864" y="819" on="1"/>
        <pt x="736" y="730" on="0"/>
        <pt x="573" y="657" on="1"/>
        <pt x="659" y="631" on="0"/>
        <pt x="810" y="484" on="0"/>
      </contour>
      <contour>
        <pt x="449" y="172" on="1"/>
        <pt x="449" y="220" on="0"/>
        <pt x="394" y="274" on="0"/>
        <pt x="346" y="274" on="1"/>
        <pt x="298" y="274" on="0"/>
        <pt x="242" y="220" on="0"/>
        <pt x="242" y="172" on="1"/>
        <pt x="242" y="124" on="0"/>
        <pt x="298" y="68" on="0"/>
        <pt x="346" y="68" on="1"/>
        <pt x="394" y="68" on="0"/>
        <pt x="449" y="124" on="0"/>
      </contour>
    </TTGlyph>
    <TTGlyph name="uni0E2B" xMin="45" yMin="0" xMax="1147" yMax="1137">
      <contour>
        <pt x="453" y="0" on="1"/>
        <pt x="285" y="0" on="1"/>
        <pt x="285" y="758" on="1"/>
        <pt x="275" y="754" on="0"/>
        <pt x="236" y="754" on="1"/>
        <pt x="146" y="754" on="0"/>
        <pt x="45" y="853" on="0"/>
        <pt x="45" y="944" on="1"/>
        <pt x="45" y="1034" on="0"/>
        <pt x="151" y="1137" on="0"/>
        <pt x="248" y="1137" on="1"/>
        <pt x="347" y="1137" on="0"/>
        <pt x="453" y="1034" on="0"/>
        <pt x="453" y="944" on="1"/>
        <pt x="453" y="295" on="1"/>
        <pt x="509" y="406" on="0"/>
        <pt x="742" y="664" on="0"/>
        <pt x="864" y="754" on="1"/>
        <pt x="805" y="796" on="0"/>
        <pt x="737" y="897" on="0"/>
        <pt x="737" y="952" on="1"/>
        <pt x="737" y="1042" on="0"/>
        <pt x="847" y="1137" on="0"/>
        <pt x="940" y="1137" on="1"/>
        <pt x="1035" y="1137" on="0"/>
        <pt x="1147" y="1039" on="0"/>
        <pt x="1147" y="954" on="1"/>
        <pt x="1147" y="856" on="0"/>
        <pt x="1038" y="770" on="1"/>
        <pt x="1096" y="725" on="0"/>
        <pt x="1147" y="608" on="0"/>
        <pt x="1147" y="500" on="1"/>
        <pt x="1147" y="119" on="1"/>
        <pt x="1047" y="0" on="1"/>
        <pt x="979" y="0" on="1"/>
        <pt x="979" y="510" on="1"/>
        <pt x="979" y="581" on="0"/>
        <pt x="947" y="680" on="0"/>
        <pt x="926" y="698" on="1"/>
        <pt x="570" y="392" on="0"/>
      </contour>
      <contour>
        <pt x="147" y="944" on="1"/>
        <pt x="147" y="896" on="0"/>
        <pt x="202" y="842" on="0"/>
        <pt x="250" y="842" on="1"/>
        <pt x="298" y="842" on="0"/>
        <pt x="354" y="896" on="0"/>
        <pt x="354" y="944" on="1"/>
        <pt x="354" y="992" on="0"/>
        <pt x="298" y="1049" on="0"/>
        <pt x="250" y="1049" on="1"/>
        <pt x="202" y="1049" on="0"/>
        <pt x="147" y="992" on="0"/>
      </contour>
      <contour>
        <pt x="940" y="1049" on="1"/>
        <pt x="897" y="1049" on="0"/>
        <pt x="844" y="999" on="0"/>
        <pt x="844" y="954" on="1"/>
        <pt x="844" y="878" on="0"/>
        <pt x="948" y="819" on="1"/>
        <pt x="1036" y="884" on="0"/>
        <pt x="1036" y="952" on="1"/>
        <pt x="1036" y="1000" on="0"/>
        <pt x="980" y="1049" on="0"/>
      </contour>
    </TTGlyph>
    <TTGlyph name="uni0E2C" xMin="45" yMin="0" xMax="1577" yMax="1464">
      <contour>
        <pt x="1057" y="0" on="1"/>
        <pt x="772" y="965" on="1"/>
        <pt x="489" y="0" on="1"/>
        <pt x="285" y="0" on="1"/>
        <pt x="285" y="758" on="1"/>
        <pt x="275" y="754" on="0"/>
        <pt x="236" y="754" on="1"/>
        <pt x="146" y="754" on="0"/>
        <pt x="45" y="853" on="0"/>
        <pt x="45" y="944" on="1"/>
        <pt x="45" y="1034" on="0"/>
        <pt x="151" y="1137" on="0"/>
        <pt x="248" y="1137" on="1"/>
        <pt x="347" y="1137" on="0"/>
        <pt x="453" y="1034" on="0"/>
        <pt x="453" y="944" on="1"/>
        <pt x="453" y="223" on="1"/>
        <pt x="721" y="1116" on="1"/>
        <pt x="825" y="1116" on="1"/>
        <pt x="1094" y="223" on="1"/>
        <pt x="1094" y="1067" on="1"/>
        <pt x="1003" y="1075" on="0"/>
        <pt x="887" y="1181" on="0"/>
        <pt x="887" y="1268" on="1"/>
        <pt x="887" y="1345" on="0"/>
        <pt x="990" y="1440" on="0"/>
        <pt x="1075" y="1440" on="1"/>
        <pt x="1160" y="1440" on="0"/>
        <pt x="1260" y="1352" on="0"/>
        <pt x="1260" y="1278" on="1"/>
        <pt x="1260" y="1236" on="0"/>
        <pt x="1228" y="1168" on="0"/>
        <pt x="1208" y="1151" on="1"/>
        <pt x="1290" y="1185" on="0"/>
        <pt x="1399" y="1335" on="0"/>
        <pt x="1440" y="1464" on="1"/>
        <pt x="1577" y="1415" on="1"/>
        <pt x="1479" y="1138" on="0"/>
        <pt x="1262" y="1081" on="1"/>
        <pt x="1262" y="0" on="1"/>
      </contour>
      <contour>
        <pt x="147" y="944" on="1"/>
        <pt x="147" y="896" on="0"/>
        <pt x="202" y="842" on="0"/>
        <pt x="250" y="842" on="1"/>
        <pt x="298" y="842" on="0"/>
        <pt x="354" y="896" on="0"/>
        <pt x="354" y="944" on="1"/>
        <pt x="354" y="992" on="0"/>
        <pt x="298" y="1049" on="0"/>
        <pt x="250" y="1049" on="1"/>
        <pt x="202" y="1049" on="0"/>
        <pt x="147" y="992" on="0"/>
      </contour>
      <contour>
        <pt x="985" y="1266" on="1"/>
        <pt x="985" y="1227" on="0"/>
        <pt x="1033" y="1180" on="0"/>
        <pt x="1075" y="1180" on="1"/>
        <pt x="1112" y="1180" on="0"/>
        <pt x="1163" y="1227" on="0"/>
        <pt x="1163" y="1266" on="1"/>
        <pt x="1163" y="1308" on="0"/>
        <pt x="1112" y="1354" on="0"/>
        <pt x="1075" y="1354" on="1"/>
        <pt x="1033" y="1354" on="0"/>
        <pt x="985" y="1308" on="0"/>
      </contour>
    </TTGlyph>
    <TTGlyph name="uni0E2D" xMin="131" yMin="0" xMax="1061" yMax="1145">
      <contour>
        <pt x="469" y="616" on="1"/>
        <pt x="469" y="664" on="0"/>
        <pt x="415" y="721" on="0"/>
        <pt x="367" y="721" on="1"/>
        <pt x="319" y="721" on="0"/>
        <pt x="262" y="664" on="0"/>
        <pt x="262" y="616" on="1"/>
        <pt x="262" y="568" on="0"/>
        <pt x="319" y="514" on="0"/>
        <pt x="367" y="514" on="1"/>
        <pt x="415" y="514" on="0"/>
        <pt x="469" y="568" on="0"/>
      </contour>
      <contour>
        <pt x="893" y="684" on="1"/>
        <pt x="893" y="862" on="0"/>
        <pt x="727" y="1047" on="0"/>
        <pt x="578" y="1047" on="1"/>
        <pt x="368" y="1047" on="0"/>
        <pt x="178" y="928" on="1"/>
        <pt x="131" y="1006" on="1"/>
        <pt x="340" y="1145" on="0"/>
        <pt x="596" y="1145" on="1"/>
        <pt x="823" y="1145" on="0"/>
        <pt x="1061" y="911" on="0"/>
        <pt x="1061" y="698" on="1"/>
        <pt x="1061" y="332" on="1"/>
        <pt x="1061" y="173" on="0"/>
        <pt x="888" y="0" on="0"/>
        <pt x="715" y="0" on="1"/>
        <pt x="510" y="0" on="1"/>
        <pt x="337" y="0" on="0"/>
        <pt x="164" y="173" on="0"/>
        <pt x="164" y="332" on="1"/>
        <pt x="164" y="616" on="1"/>
        <pt x="164" y="706" on="0"/>
        <pt x="270" y="807" on="0"/>
        <pt x="369" y="807" on="1"/>
        <pt x="466" y="807" on="0"/>
        <pt x="571" y="706" on="0"/>
        <pt x="571" y="616" on="1"/>
        <pt x="571" y="525" on="0"/>
        <pt x="471" y="426" on="0"/>
        <pt x="381" y="426" on="1"/>
        <pt x="342" y="426" on="0"/>
        <pt x="332" y="430" on="1"/>
        <pt x="332" y="340" on="1"/>
        <pt x="332" y="217" on="0"/>
        <pt x="446" y="86" on="0"/>
        <pt x="575" y="86" on="1"/>
        <pt x="649" y="86" on="1"/>
        <pt x="893" y="86" on="0"/>
        <pt x="893" y="342" on="1"/>
      </contour>
    </TTGlyph>
    <TTGlyph name="uni0E2E" xMin="160" yMin="0" xMax="1182" yMax="1206">
      <contour>
        <pt x="469" y="532" on="1"/>
        <pt x="469" y="580" on="0"/>
        <pt x="415" y="637" on="0"/>
        <pt x="367" y="637" on="1"/>
        <pt x="319" y="637" on="0"/>
        <pt x="262" y="580" on="0"/>
        <pt x="262" y="532" on="1"/>
        <pt x="262" y="484" on="0"/>
        <pt x="319" y="430" on="0"/>
        <pt x="367" y="430" on="1"/>
        <pt x="415" y="430" on="0"/>
        <pt x="469" y="484" on="0"/>
      </contour>
      <contour>
        <pt x="1061" y="332" on="1"/>
        <pt x="1061" y="173" on="0"/>
        <pt x="888" y="0" on="0"/>
        <pt x="715" y="0" on="1"/>
        <pt x="510" y="0" on="1"/>
        <pt x="337" y="0" on="0"/>
        <pt x="164" y="173" on="0"/>
        <pt x="164" y="332" on="1"/>
        <pt x="164" y="532" on="1"/>
        <pt x="164" y="622" on="0"/>
        <pt x="270" y="723" on="0"/>
        <pt x="369" y="723" on="1"/>
        <pt x="466" y="723" on="0"/>
        <pt x="571" y="622" on="0"/>
        <pt x="571" y="532" on="1"/>
        <pt x="571" y="441" on="0"/>
        <pt x="471" y="342" on="0"/>
        <pt x="381" y="342" on="1"/>
        <pt x="342" y="342" on="0"/>
        <pt x="332" y="346" on="1"/>
        <pt x="332" y="340" on="1"/>
        <pt x="332" y="217" on="0"/>
        <pt x="446" y="86" on="0"/>
        <pt x="575" y="86" on="1"/>
        <pt x="649" y="86" on="1"/>
        <pt x="893" y="86" on="0"/>
        <pt x="893" y="342" on="1"/>
        <pt x="893" y="776" on="1"/>
        <pt x="893" y="795" on="0"/>
        <pt x="886" y="841" on="0"/>
        <pt x="883" y="848" on="1"/>
        <pt x="815" y="813" on="0"/>
        <pt x="625" y="774" on="0"/>
        <pt x="530" y="774" on="1"/>
        <pt x="356" y="774" on="0"/>
        <pt x="160" y="875" on="0"/>
        <pt x="160" y="961" on="1"/>
        <pt x="160" y="1047" on="0"/>
        <pt x="370" y="1147" on="0"/>
        <pt x="549" y="1147" on="1"/>
        <pt x="799" y="1147" on="0"/>
        <pt x="938" y="1053" on="1"/>
        <pt x="978" y="1112" on="0"/>
        <pt x="997" y="1206" on="1"/>
        <pt x="1182" y="1206" on="1"/>
        <pt x="1163" y="1132" on="0"/>
        <pt x="1080" y="977" on="0"/>
        <pt x="1036" y="934" on="1"/>
        <pt x="1061" y="874" on="0"/>
        <pt x="1061" y="788" on="1"/>
      </contour>
      <contour>
        <pt x="573" y="1075" on="1"/>
        <pt x="464" y="1075" on="0"/>
        <pt x="334" y="1010" on="0"/>
        <pt x="334" y="958" on="1"/>
        <pt x="334" y="907" on="0"/>
        <pt x="442" y="850" on="0"/>
        <pt x="537" y="850" on="1"/>
        <pt x="738" y="850" on="0"/>
        <pt x="862" y="948" on="1"/>
        <pt x="830" y="1006" on="0"/>
        <pt x="666" y="1075" on="0"/>
      </contour>
    </TTGlyph>
    <TTGlyph name="uni0E2F" xMin="45" yMin="0" xMax="932" yMax="1126">
      <contour>
        <pt x="143" y="899" on="1"/>
        <pt x="143" y="861" on="0"/>
        <pt x="191" y="813" on="0"/>
        <pt x="233" y="813" on="1"/>
        <pt x="271" y="813" on="0"/>
        <pt x="322" y="861" on="0"/>
        <pt x="322" y="899" on="1"/>
        <pt x="322" y="941" on="0"/>
        <pt x="271" y="987" on="0"/>
        <pt x="233" y="987" on="1"/>
        <pt x="191" y="987" on="0"/>
        <pt x="143" y="941" on="0"/>
      </contour>
      <contour>
        <pt x="932" y="1126" on="1"/>
        <pt x="932" y="119" on="1"/>
        <pt x="831" y="0" on="1"/>
        <pt x="764" y="0" on="1"/>
        <pt x="764" y="911" on="1"/>
        <pt x="643" y="795" on="0"/>
        <pt x="411" y="690" on="0"/>
        <pt x="293" y="690" on="1"/>
        <pt x="175" y="690" on="0"/>
        <pt x="45" y="802" on="0"/>
        <pt x="45" y="901" on="1"/>
        <pt x="45" y="982" on="0"/>
        <pt x="147" y="1073" on="0"/>
        <pt x="233" y="1073" on="1"/>
        <pt x="321" y="1073" on="0"/>
        <pt x="418" y="982" on="0"/>
        <pt x="418" y="901" on="1"/>
        <pt x="418" y="859" on="0"/>
        <pt x="384" y="790" on="0"/>
        <pt x="362" y="774" on="1"/>
        <pt x="501" y="806" on="0"/>
        <pt x="710" y="990" on="0"/>
        <pt x="772" y="1126" on="1"/>
      </contour>
    </TTGlyph>
    <TTGlyph name="uni0E30" xMin="80" yMin="121" xMax="932" yMax="1047">
      <contour>
        <pt x="410" y="696" on="1"/>
        <pt x="541" y="727" on="0"/>
        <pt x="746" y="904" on="0"/>
        <pt x="811" y="1047" on="1"/>
        <pt x="932" y="973" on="1"/>
        <pt x="828" y="797" on="0"/>
        <pt x="516" y="610" on="0"/>
        <pt x="328" y="610" on="1"/>
        <pt x="207" y="610" on="0"/>
        <pt x="80" y="706" on="0"/>
        <pt x="80" y="801" on="1"/>
        <pt x="80" y="881" on="0"/>
        <pt x="182" y="973" on="0"/>
        <pt x="268" y="973" on="1"/>
        <pt x="356" y="973" on="0"/>
        <pt x="453" y="883" on="0"/>
        <pt x="453" y="811" on="1"/>
        <pt x="453" y="769" on="0"/>
        <pt x="424" y="709" on="0"/>
      </contour>
      <contour>
        <pt x="178" y="799" on="1"/>
        <pt x="178" y="761" on="0"/>
        <pt x="226" y="713" on="0"/>
        <pt x="268" y="713" on="1"/>
        <pt x="305" y="713" on="0"/>
        <pt x="356" y="761" on="0"/>
        <pt x="356" y="799" on="1"/>
        <pt x="356" y="841" on="0"/>
        <pt x="305" y="887" on="0"/>
        <pt x="268" y="887" on="1"/>
        <pt x="226" y="887" on="0"/>
        <pt x="178" y="841" on="0"/>
      </contour>
      <contour>
        <pt x="410" y="207" on="1"/>
        <pt x="541" y="238" on="0"/>
        <pt x="747" y="415" on="0"/>
        <pt x="811" y="557" on="1"/>
        <pt x="932" y="483" on="1"/>
        <pt x="829" y="309" on="0"/>
        <pt x="516" y="121" on="0"/>
        <pt x="328" y="121" on="1"/>
        <pt x="207" y="121" on="0"/>
        <pt x="80" y="217" on="0"/>
        <pt x="80" y="311" on="1"/>
        <pt x="80" y="392" on="0"/>
        <pt x="182" y="483" on="0"/>
        <pt x="268" y="483" on="1"/>
        <pt x="356" y="483" on="0"/>
        <pt x="453" y="394" on="0"/>
        <pt x="453" y="322" on="1"/>
        <pt x="453" y="280" on="0"/>
        <pt x="424" y="219" on="0"/>
      </contour>
      <contour>
        <pt x="178" y="309" on="1"/>
        <pt x="178" y="271" on="0"/>
        <pt x="226" y="223" on="0"/>
        <pt x="268" y="223" on="1"/>
        <pt x="305" y="223" on="0"/>
        <pt x="356" y="271" on="0"/>
        <pt x="356" y="309" on="1"/>
        <pt x="356" y="351" on="0"/>
        <pt x="305" y="397" on="0"/>
        <pt x="268" y="397" on="1"/>
        <pt x="226" y="397" on="0"/>
        <pt x="178" y="351" on="0"/>
      </contour>
    </TTGlyph>
    <TTGlyph name="uni0E31" xMin="-651" yMin="1223" xMax="109" yMax="1620">
      <contour>
        <pt x="-410" y="1223" on="1"/>
        <pt x="-517" y="1223" on="0"/>
        <pt x="-651" y="1334" on="0"/>
        <pt x="-651" y="1423" on="1"/>
        <pt x="-651" y="1502" on="0"/>
        <pt x="-550" y="1595" on="0"/>
        <pt x="-463" y="1595" on="1"/>
        <pt x="-378" y="1595" on="0"/>
        <pt x="-279" y="1506" on="0"/>
        <pt x="-279" y="1434" on="1"/>
        <pt x="-279" y="1392" on="0"/>
        <pt x="-310" y="1324" on="0"/>
        <pt x="-330" y="1307" on="1"/>
        <pt x="-142" y="1345" on="0"/>
        <pt x="-45" y="1620" on="1"/>
        <pt x="109" y="1571" on="1"/>
        <pt x="47" y="1397" on="0"/>
        <pt x="-205" y="1223" on="0"/>
      </contour>
      <contour>
        <pt x="-553" y="1421" on="1"/>
        <pt x="-553" y="1383" on="0"/>
        <pt x="-505" y="1335" on="0"/>
        <pt x="-463" y="1335" on="1"/>
        <pt x="-426" y="1335" on="0"/>
        <pt x="-375" y="1383" on="0"/>
        <pt x="-375" y="1421" on="1"/>
        <pt x="-375" y="1463" on="0"/>
        <pt x="-426" y="1509" on="0"/>
        <pt x="-463" y="1509" on="1"/>
        <pt x="-505" y="1509" on="0"/>
        <pt x="-553" y="1463" on="0"/>
      </contour>
    </TTGlyph>
    <TTGlyph name="uni0E32" xMin="-4" yMin="0" xMax="823" yMax="1147">
      <contour>
        <pt x="823" y="119" on="1"/>
        <pt x="723" y="0" on="1"/>
        <pt x="655" y="0" on="1"/>
        <pt x="655" y="686" on="1"/>
        <pt x="655" y="863" on="0"/>
        <pt x="517" y="1049" on="0"/>
        <pt x="389" y="1049" on="1"/>
        <pt x="311" y="1049" on="0"/>
        <pt x="160" y="1001" on="0"/>
        <pt x="43" y="930" on="1"/>
        <pt x="-4" y="1008" on="1"/>
        <pt x="200" y="1147" on="0"/>
        <pt x="420" y="1147" on="1"/>
        <pt x="823" y="1147" on="0"/>
        <pt x="823" y="696" on="1"/>
      </contour>
    </TTGlyph>
    <TTGlyph name="uni0E33" xMin="-461" yMin="0" xMax="823" yMax="1575">
      <contour>
        <pt x="-461" y="1403" on="1"/>
        <pt x="-461" y="1483" on="0"/>
        <pt x="-367" y="1575" on="0"/>
        <pt x="-279" y="1575" on="1"/>
        <pt x="-189" y="1575" on="0"/>
        <pt x="-92" y="1483" on="0"/>
        <pt x="-92" y="1403" on="1"/>
        <pt x="-92" y="1321" on="0"/>
        <pt x="-189" y="1231" on="0"/>
        <pt x="-279" y="1231" on="1"/>
        <pt x="-367" y="1231" on="0"/>
        <pt x="-461" y="1321" on="0"/>
      </contour>
      <contour>
        <pt x="-371" y="1403" on="1"/>
        <pt x="-371" y="1361" on="0"/>
        <pt x="-318" y="1311" on="0"/>
        <pt x="-276" y="1311" on="1"/>
        <pt x="-236" y="1311" on="0"/>
        <pt x="-182" y="1361" on="0"/>
        <pt x="-182" y="1403" on="1"/>
        <pt x="-182" y="1445" on="0"/>
        <pt x="-236" y="1495" on="0"/>
        <pt x="-276" y="1495" on="1"/>
        <pt x="-318" y="1495" on="0"/>
        <pt x="-371" y="1445" on="0"/>
      </contour>
      <contour>
        <pt x="823" y="119" on="1"/>
        <pt x="723" y="0" on="1"/>
        <pt x="655" y="0" on="1"/>
        <pt x="655" y="686" on="1"/>
        <pt x="655" y="863" on="0"/>
        <pt x="517" y="1049" on="0"/>
        <pt x="389" y="1049" on="1"/>
        <pt x="311" y="1049" on="0"/>
        <pt x="160" y="1001" on="0"/>
        <pt x="43" y="930" on="1"/>
        <pt x="-4" y="1008" on="1"/>
        <pt x="200" y="1147" on="0"/>
        <pt x="420" y="1147" on="1"/>
        <pt x="823" y="1147" on="0"/>
        <pt x="823" y="696" on="1"/>
      </contour>
    </TTGlyph>
    <TTGlyph name="uni0E34" xMin="-1051" yMin="1206" xMax="-184" yMax="1622">
      <contour>
        <pt x="-184" y="1206" on="1"/>
        <pt x="-440" y="1259" on="0"/>
        <pt x="-834" y="1303" on="0"/>
        <pt x="-1051" y="1303" on="1"/>
        <pt x="-1017" y="1454" on="0"/>
        <pt x="-806" y="1622" on="0"/>
        <pt x="-659" y="1622" on="1"/>
        <pt x="-475" y="1622" on="0"/>
        <pt x="-227" y="1409" on="0"/>
      </contour>
      <contour>
        <pt x="-641" y="1501" on="1"/>
        <pt x="-829" y="1501" on="0"/>
        <pt x="-885" y="1374" on="1"/>
        <pt x="-724" y="1374" on="0"/>
        <pt x="-439" y="1329" on="0"/>
        <pt x="-311" y="1300" on="1"/>
        <pt x="-353" y="1391" on="0"/>
        <pt x="-520" y="1501" on="0"/>
      </contour>
    </TTGlyph>
    <TTGlyph name="uni0E35" xMin="-1051" yMin="1206" xMax="-184" yMax="1692">
      <contour>
        <pt x="-184" y="1206" on="1"/>
        <pt x="-440" y="1259" on="0"/>
        <pt x="-834" y="1303" on="0"/>
        <pt x="-1051" y="1303" on="1"/>
        <pt x="-1017" y="1454" on="0"/>
        <pt x="-806" y="1622" on="0"/>
        <pt x="-659" y="1622" on="1"/>
        <pt x="-457" y="1622" on="0"/>
        <pt x="-330" y="1495" on="1"/>
        <pt x="-330" y="1692" on="1"/>
        <pt x="-219" y="1692" on="1"/>
        <pt x="-219" y="1323" on="1"/>
        <pt x="-197" y="1268" on="0"/>
      </contour>
      <contour>
        <pt x="-641" y="1501" on="1"/>
        <pt x="-829" y="1501" on="0"/>
        <pt x="-885" y="1374" on="1"/>
        <pt x="-724" y="1374" on="0"/>
        <pt x="-439" y="1329" on="0"/>
        <pt x="-311" y="1300" on="1"/>
        <pt x="-353" y="1391" on="0"/>
        <pt x="-520" y="1501" on="0"/>
      </contour>
    </TTGlyph>
    <TTGlyph name="uni0E36" xMin="-1051" yMin="1206" xMax="-86" yMax="1677">
      <contour>
        <pt x="-184" y="1206" on="1"/>
        <pt x="-440" y="1259" on="0"/>
        <pt x="-834" y="1303" on="0"/>
        <pt x="-1051" y="1303" on="1"/>
        <pt x="-1017" y="1454" on="0"/>
        <pt x="-806" y="1622" on="0"/>
        <pt x="-659" y="1622" on="1"/>
        <pt x="-520" y="1622" on="0"/>
        <pt x="-414" y="1561" on="1"/>
        <pt x="-397" y="1612" on="0"/>
        <pt x="-310" y="1677" on="0"/>
        <pt x="-254" y="1677" on="1"/>
        <pt x="-182" y="1677" on="0"/>
        <pt x="-86" y="1581" on="0"/>
        <pt x="-86" y="1509" on="1"/>
        <pt x="-86" y="1448" on="0"/>
        <pt x="-162" y="1354" on="0"/>
        <pt x="-227" y="1343" on="1"/>
        <pt x="-202" y="1290" on="0"/>
      </contour>
      <contour>
        <pt x="-641" y="1501" on="1"/>
        <pt x="-829" y="1501" on="0"/>
        <pt x="-885" y="1374" on="1"/>
        <pt x="-724" y="1374" on="0"/>
        <pt x="-439" y="1329" on="0"/>
        <pt x="-311" y="1300" on="1"/>
        <pt x="-353" y="1391" on="0"/>
        <pt x="-520" y="1501" on="0"/>
      </contour>
      <contour>
        <pt x="-334" y="1509" on="1"/>
        <pt x="-334" y="1475" on="0"/>
        <pt x="-286" y="1427" on="0"/>
        <pt x="-252" y="1427" on="1"/>
        <pt x="-218" y="1427" on="0"/>
        <pt x="-170" y="1477" on="0"/>
        <pt x="-170" y="1509" on="1"/>
        <pt x="-170" y="1541" on="0"/>
        <pt x="-219" y="1593" on="0"/>
        <pt x="-252" y="1593" on="1"/>
        <pt x="-286" y="1593" on="0"/>
        <pt x="-334" y="1543" on="0"/>
      </contour>
    </TTGlyph>
    <TTGlyph name="uni0E37" xMin="-1051" yMin="1206" xMax="-184" yMax="1692">
      <contour>
        <pt x="-184" y="1206" on="1"/>
        <pt x="-440" y="1259" on="0"/>
        <pt x="-834" y="1303" on="0"/>
        <pt x="-1051" y="1303" on="1"/>
        <pt x="-1017" y="1454" on="0"/>
        <pt x="-806" y="1622" on="0"/>
        <pt x="-659" y="1622" on="1"/>
        <pt x="-588" y="1622" on="0"/>
        <pt x="-537" y="1608" on="1"/>
        <pt x="-537" y="1692" on="1"/>
        <pt x="-426" y="1692" on="1"/>
        <pt x="-426" y="1567" on="1"/>
        <pt x="-362" y="1530" on="0"/>
        <pt x="-326" y="1491" on="1"/>
        <pt x="-326" y="1692" on="1"/>
        <pt x="-215" y="1692" on="1"/>
        <pt x="-215" y="1313" on="1"/>
        <pt x="-201" y="1274" on="0"/>
      </contour>
      <contour>
        <pt x="-641" y="1501" on="1"/>
        <pt x="-829" y="1501" on="0"/>
        <pt x="-885" y="1374" on="1"/>
        <pt x="-724" y="1374" on="0"/>
        <pt x="-439" y="1329" on="0"/>
        <pt x="-311" y="1300" on="1"/>
        <pt x="-353" y="1391" on="0"/>
        <pt x="-520" y="1501" on="0"/>
      </contour>
    </TTGlyph>
    <TTGlyph name="uni0E38" xMin="-442" yMin="-520" xMax="-180" yMax="-102">
      <contour>
        <pt x="-307" y="-520" on="1"/>
        <pt x="-307" y="-326" on="1"/>
        <pt x="-313" y="-330" on="0"/>
        <pt x="-330" y="-330" on="1"/>
        <pt x="-442" y="-330" on="0"/>
        <pt x="-442" y="-217" on="1"/>
        <pt x="-442" y="-102" on="0"/>
        <pt x="-315" y="-102" on="1"/>
        <pt x="-252" y="-102" on="0"/>
        <pt x="-180" y="-163" on="0"/>
        <pt x="-180" y="-219" on="1"/>
        <pt x="-180" y="-520" on="1"/>
      </contour>
      <contour>
        <pt x="-373" y="-217" on="1"/>
        <pt x="-373" y="-266" on="0"/>
        <pt x="-322" y="-266" on="1"/>
        <pt x="-272" y="-266" on="0"/>
        <pt x="-272" y="-217" on="1"/>
        <pt x="-272" y="-166" on="0"/>
        <pt x="-322" y="-166" on="1"/>
        <pt x="-373" y="-166" on="0"/>
      </contour>
    </TTGlyph>
    <TTGlyph name="uni0E39" xMin="-748" yMin="-524" xMax="-180" yMax="-102">
      <contour>
        <pt x="-610" y="-524" on="1"/>
        <pt x="-610" y="-326" on="1"/>
        <pt x="-616" y="-330" on="0"/>
        <pt x="-633" y="-330" on="1"/>
        <pt x="-748" y="-330" on="0"/>
        <pt x="-748" y="-217" on="1"/>
        <pt x="-748" y="-102" on="0"/>
        <pt x="-618" y="-102" on="1"/>
        <pt x="-555" y="-102" on="0"/>
        <pt x="-483" y="-163" on="0"/>
        <pt x="-483" y="-219" on="1"/>
        <pt x="-483" y="-434" on="1"/>
        <pt x="-307" y="-434" on="1"/>
        <pt x="-307" y="-117" on="1"/>
        <pt x="-180" y="-117" on="1"/>
        <pt x="-180" y="-524" on="1"/>
      </contour>
      <contour>
        <pt x="-676" y="-217" on="1"/>
        <pt x="-676" y="-266" on="0"/>
        <pt x="-625" y="-266" on="1"/>
        <pt x="-575" y="-266" on="0"/>
        <pt x="-575" y="-217" on="1"/>
        <pt x="-575" y="-166" on="0"/>
        <pt x="-625" y="-166" on="1"/>
        <pt x="-676" y="-166" on="0"/>
      </contour>
    </TTGlyph>
    <TTGlyph name="uni0E3A" xMin="-375" yMin="-328" xMax="-166" yMax="-117">
      <contour>
        <pt x="-375" y="-221" on="1"/>
        <pt x="-375" y="-178" on="0"/>
        <pt x="-314" y="-117" on="0"/>
        <pt x="-270" y="-117" on="1"/>
        <pt x="-227" y="-117" on="0"/>
        <pt x="-166" y="-178" on="0"/>
        <pt x="-166" y="-221" on="1"/>
        <pt x="-166" y="-269" on="0"/>
        <pt x="-230" y="-328" on="0"/>
        <pt x="-270" y="-328" on="1"/>
        <pt x="-311" y="-328" on="0"/>
        <pt x="-375" y="-268" on="0"/>
      </contour>
    </TTGlyph>
    <TTGlyph name="uni0E3F" xMin="16" yMin="-162" xMax="1075" yMax="1556">
      <contour>
        <pt x="1014" y="1096" on="1"/>
        <pt x="1014" y="979" on="0"/>
        <pt x="892" y="818" on="0"/>
        <pt x="760" y="774" on="1"/>
        <pt x="760" y="766" on="1"/>
        <pt x="911" y="740" on="0"/>
        <pt x="1075" y="546" on="0"/>
        <pt x="1075" y="395" on="1"/>
        <pt x="1075" y="214" on="0"/>
        <pt x="838" y="18" on="0"/>
        <pt x="614" y="2" on="1"/>
        <pt x="614" y="-162" on="1"/>
        <pt x="512" y="-162" on="1"/>
        <pt x="512" y="0" on="1"/>
        <pt x="16" y="0" on="1"/>
        <pt x="16" y="86" on="1"/>
        <pt x="27" y="86" on="1"/>
        <pt x="113" y="86" on="0"/>
        <pt x="174" y="153" on="0"/>
        <pt x="174" y="233" on="1"/>
        <pt x="174" y="1237" on="1"/>
        <pt x="174" y="1288" on="0"/>
        <pt x="145" y="1349" on="0"/>
        <pt x="89" y="1376" on="0"/>
        <pt x="27" y="1376" on="1"/>
        <pt x="16" y="1376" on="1"/>
        <pt x="16" y="1462" on="1"/>
        <pt x="512" y="1462" on="1"/>
        <pt x="512" y="1556" on="1"/>
        <pt x="614" y="1556" on="1"/>
        <pt x="614" y="1458" on="1"/>
        <pt x="805" y="1441" on="0"/>
        <pt x="1014" y="1253" on="0"/>
      </contour>
      <contour>
        <pt x="856" y="401" on="1"/>
        <pt x="856" y="668" on="0"/>
        <pt x="614" y="707" on="1"/>
        <pt x="614" y="106" on="1"/>
        <pt x="740" y="126" on="0"/>
        <pt x="856" y="270" on="0"/>
      </contour>
      <contour>
        <pt x="381" y="102" on="1"/>
        <pt x="512" y="102" on="1"/>
        <pt x="512" y="715" on="1"/>
        <pt x="381" y="715" on="1"/>
      </contour>
      <contour>
        <pt x="795" y="1096" on="1"/>
        <pt x="795" y="1199" on="0"/>
        <pt x="699" y="1329" on="0"/>
        <pt x="614" y="1350" on="1"/>
        <pt x="614" y="834" on="1"/>
        <pt x="710" y="857" on="0"/>
        <pt x="795" y="984" on="0"/>
      </contour>
      <contour>
        <pt x="381" y="817" on="1"/>
        <pt x="512" y="817" on="1"/>
        <pt x="512" y="1360" on="1"/>
        <pt x="381" y="1360" on="1"/>
      </contour>
    </TTGlyph>
    <TTGlyph name="uni0E40" xMin="184" yMin="-18" xMax="592" yMax="1126">
      <contour>
        <pt x="489" y="172" on="1"/>
        <pt x="489" y="220" on="0"/>
        <pt x="435" y="274" on="0"/>
        <pt x="387" y="274" on="1"/>
        <pt x="339" y="274" on="0"/>
        <pt x="283" y="220" on="0"/>
        <pt x="283" y="172" on="1"/>
        <pt x="283" y="124" on="0"/>
        <pt x="339" y="68" on="0"/>
        <pt x="387" y="68" on="1"/>
        <pt x="435" y="68" on="0"/>
        <pt x="489" y="124" on="0"/>
      </contour>
      <contour>
        <pt x="184" y="1008" on="1"/>
        <pt x="285" y="1126" on="1"/>
        <pt x="352" y="1126" on="1"/>
        <pt x="352" y="358" on="1"/>
        <pt x="362" y="362" on="0"/>
        <pt x="401" y="362" on="1"/>
        <pt x="489" y="362" on="0"/>
        <pt x="592" y="265" on="0"/>
        <pt x="592" y="172" on="1"/>
        <pt x="592" y="82" on="0"/>
        <pt x="484" y="-18" on="0"/>
        <pt x="387" y="-18" on="1"/>
        <pt x="288" y="-18" on="0"/>
        <pt x="184" y="82" on="0"/>
        <pt x="184" y="172" on="1"/>
      </contour>
    </TTGlyph>
    <TTGlyph name="uni0E41" xMin="184" yMin="-18" xMax="1130" yMax="1126">
      <contour>
        <pt x="489" y="172" on="1"/>
        <pt x="489" y="220" on="0"/>
        <pt x="435" y="274" on="0"/>
        <pt x="387" y="274" on="1"/>
        <pt x="339" y="274" on="0"/>
        <pt x="283" y="220" on="0"/>
        <pt x="283" y="172" on="1"/>
        <pt x="283" y="124" on="0"/>
        <pt x="339" y="68" on="0"/>
        <pt x="387" y="68" on="1"/>
        <pt x="435" y="68" on="0"/>
        <pt x="489" y="124" on="0"/>
      </contour>
      <contour>
        <pt x="184" y="1008" on="1"/>
        <pt x="285" y="1126" on="1"/>
        <pt x="352" y="1126" on="1"/>
        <pt x="352" y="358" on="1"/>
        <pt x="362" y="362" on="0"/>
        <pt x="401" y="362" on="1"/>
        <pt x="489" y="362" on="0"/>
        <pt x="592" y="265" on="0"/>
        <pt x="592" y="172" on="1"/>
        <pt x="592" y="82" on="0"/>
        <pt x="484" y="-18" on="0"/>
        <pt x="387" y="-18" on="1"/>
        <pt x="288" y="-18" on="0"/>
        <pt x="184" y="82" on="0"/>
        <pt x="184" y="172" on="1"/>
      </contour>
      <contour>
        <pt x="1028" y="172" on="1"/>
        <pt x="1028" y="220" on="0"/>
        <pt x="974" y="274" on="0"/>
        <pt x="926" y="274" on="1"/>
        <pt x="878" y="274" on="0"/>
        <pt x="821" y="220" on="0"/>
        <pt x="821" y="172" on="1"/>
        <pt x="821" y="124" on="0"/>
        <pt x="878" y="68" on="0"/>
        <pt x="926" y="68" on="1"/>
        <pt x="974" y="68" on="0"/>
        <pt x="1028" y="124" on="0"/>
      </contour>
      <contour>
        <pt x="723" y="1008" on="1"/>
        <pt x="823" y="1126" on="1"/>
        <pt x="891" y="1126" on="1"/>
        <pt x="891" y="358" on="1"/>
        <pt x="901" y="362" on="0"/>
        <pt x="940" y="362" on="1"/>
        <pt x="1028" y="362" on="0"/>
        <pt x="1130" y="265" on="0"/>
        <pt x="1130" y="172" on="1"/>
        <pt x="1130" y="82" on="0"/>
        <pt x="1023" y="-18" on="0"/>
        <pt x="926" y="-18" on="1"/>
        <pt x="827" y="-18" on="0"/>
        <pt x="723" y="82" on="0"/>
        <pt x="723" y="172" on="1"/>
      </contour>
    </TTGlyph>
    <TTGlyph name="uni0E42" xMin="0" yMin="-18" xMax="901" yMax="2044">
      <contour>
        <pt x="559" y="358" on="1"/>
        <pt x="569" y="362" on="0"/>
        <pt x="608" y="362" on="1"/>
        <pt x="698" y="362" on="0"/>
        <pt x="799" y="265" on="0"/>
        <pt x="799" y="172" on="1"/>
        <pt x="799" y="82" on="0"/>
        <pt x="693" y="-18" on="0"/>
        <pt x="596" y="-18" on="1"/>
        <pt x="497" y="-18" on="0"/>
        <pt x="391" y="82" on="0"/>
        <pt x="391" y="172" on="1"/>
        <pt x="391" y="1313" on="1"/>
        <pt x="391" y="1470" on="0"/>
        <pt x="282" y="1604" on="0"/>
        <pt x="158" y="1604" on="1"/>
        <pt x="0" y="1604" on="1"/>
        <pt x="0" y="1673" on="1"/>
        <pt x="0" y="1851" on="0"/>
        <pt x="146" y="2003" on="0"/>
        <pt x="315" y="2003" on="1"/>
        <pt x="401" y="2003" on="0"/>
        <pt x="606" y="1979" on="1"/>
        <pt x="666" y="1974" on="1"/>
        <pt x="708" y="1974" on="0"/>
        <pt x="766" y="1986" on="0"/>
        <pt x="812" y="2008" on="0"/>
        <pt x="860" y="2044" on="1"/>
        <pt x="901" y="1999" on="1"/>
        <pt x="836" y="1923" on="0"/>
        <pt x="761" y="1872" on="0"/>
        <pt x="662" y="1843" on="0"/>
        <pt x="590" y="1843" on="1"/>
        <pt x="552" y="1843" on="0"/>
        <pt x="455" y="1855" on="1"/>
        <pt x="358" y="1866" on="0"/>
        <pt x="311" y="1866" on="1"/>
        <pt x="176" y="1866" on="0"/>
        <pt x="74" y="1787" on="0"/>
        <pt x="74" y="1692" on="1"/>
        <pt x="219" y="1692" on="1"/>
        <pt x="399" y="1692" on="0"/>
        <pt x="559" y="1512" on="0"/>
        <pt x="559" y="1331" on="1"/>
      </contour>
      <contour>
        <pt x="698" y="172" on="1"/>
        <pt x="698" y="220" on="0"/>
        <pt x="644" y="274" on="0"/>
        <pt x="596" y="274" on="1"/>
        <pt x="548" y="274" on="0"/>
        <pt x="492" y="220" on="0"/>
        <pt x="492" y="172" on="1"/>
        <pt x="492" y="124" on="0"/>
        <pt x="548" y="68" on="0"/>
        <pt x="596" y="68" on="1"/>
        <pt x="644" y="68" on="0"/>
        <pt x="698" y="124" on="0"/>
      </contour>
    </TTGlyph>
    <TTGlyph name="uni0E43" xMin="0" yMin="-18" xMax="829" yMax="2064">
      <contour>
        <pt x="590" y="358" on="1"/>
        <pt x="600" y="362" on="0"/>
        <pt x="639" y="362" on="1"/>
        <pt x="727" y="362" on="0"/>
        <pt x="829" y="265" on="0"/>
        <pt x="829" y="172" on="1"/>
        <pt x="829" y="82" on="0"/>
        <pt x="724" y="-18" on="0"/>
        <pt x="627" y="-18" on="1"/>
        <pt x="528" y="-18" on="0"/>
        <pt x="422" y="82" on="0"/>
        <pt x="422" y="172" on="1"/>
        <pt x="422" y="1411" on="1"/>
        <pt x="422" y="1541" on="0"/>
        <pt x="499" y="1693" on="0"/>
        <pt x="584" y="1749" on="1"/>
        <pt x="576" y="1853" on="0"/>
        <pt x="448" y="1974" on="0"/>
        <pt x="348" y="1974" on="1"/>
        <pt x="237" y="1974" on="0"/>
        <pt x="120" y="1883" on="0"/>
        <pt x="109" y="1804" on="1"/>
        <pt x="125" y="1825" on="0"/>
        <pt x="202" y="1858" on="0"/>
        <pt x="242" y="1858" on="1"/>
        <pt x="315" y="1858" on="0"/>
        <pt x="403" y="1766" on="0"/>
        <pt x="403" y="1688" on="1"/>
        <pt x="403" y="1608" on="0"/>
        <pt x="304" y="1518" on="0"/>
        <pt x="221" y="1518" on="1"/>
        <pt x="112" y="1518" on="0"/>
        <pt x="0" y="1644" on="0"/>
        <pt x="0" y="1755" on="1"/>
        <pt x="0" y="1897" on="0"/>
        <pt x="200" y="2064" on="0"/>
        <pt x="375" y="2064" on="1"/>
        <pt x="526" y="2064" on="0"/>
        <pt x="719" y="1894" on="0"/>
        <pt x="731" y="1747" on="1"/>
        <pt x="676" y="1704" on="0"/>
        <pt x="616" y="1617" on="0"/>
        <pt x="590" y="1518" on="0"/>
        <pt x="590" y="1417" on="1"/>
      </contour>
      <contour>
        <pt x="727" y="172" on="1"/>
        <pt x="727" y="220" on="0"/>
        <pt x="673" y="274" on="0"/>
        <pt x="625" y="274" on="1"/>
        <pt x="577" y="274" on="0"/>
        <pt x="520" y="220" on="0"/>
        <pt x="520" y="172" on="1"/>
        <pt x="520" y="124" on="0"/>
        <pt x="577" y="68" on="0"/>
        <pt x="625" y="68" on="1"/>
        <pt x="673" y="68" on="0"/>
        <pt x="727" y="124" on="0"/>
      </contour>
      <contour>
        <pt x="309" y="1688" on="1"/>
        <pt x="309" y="1726" on="0"/>
        <pt x="259" y="1774" on="0"/>
        <pt x="219" y="1774" on="1"/>
        <pt x="181" y="1774" on="0"/>
        <pt x="131" y="1726" on="0"/>
        <pt x="131" y="1688" on="1"/>
        <pt x="131" y="1647" on="0"/>
        <pt x="181" y="1599" on="0"/>
        <pt x="219" y="1599" on="1"/>
        <pt x="259" y="1599" on="0"/>
        <pt x="309" y="1647" on="0"/>
      </contour>
    </TTGlyph>
    <TTGlyph name="uni0E44" xMin="-29" yMin="-18" xMax="961" yMax="2064">
      <contour>
        <pt x="858" y="172" on="1"/>
        <pt x="858" y="220" on="0"/>
        <pt x="804" y="274" on="0"/>
        <pt x="756" y="274" on="1"/>
        <pt x="708" y="274" on="0"/>
        <pt x="651" y="220" on="0"/>
        <pt x="651" y="172" on="1"/>
        <pt x="651" y="124" on="0"/>
        <pt x="708" y="68" on="0"/>
        <pt x="756" y="68" on="1"/>
        <pt x="804" y="68" on="0"/>
        <pt x="858" y="124" on="0"/>
      </contour>
      <contour>
        <pt x="-29" y="1978" on="1"/>
        <pt x="-29" y="2064" on="1"/>
        <pt x="83" y="2064" on="0"/>
        <pt x="185" y="2022" on="0"/>
        <pt x="254" y="1901" on="0"/>
        <pt x="299" y="1733" on="1"/>
        <pt x="330" y="1800" on="1"/>
        <pt x="402" y="1958" on="0"/>
        <pt x="507" y="2064" on="0"/>
        <pt x="578" y="2064" on="1"/>
        <pt x="647" y="2064" on="0"/>
        <pt x="721" y="1963" on="0"/>
        <pt x="721" y="1843" on="1"/>
        <pt x="721" y="358" on="1"/>
        <pt x="731" y="362" on="0"/>
        <pt x="770" y="362" on="1"/>
        <pt x="860" y="362" on="0"/>
        <pt x="961" y="265" on="0"/>
        <pt x="961" y="172" on="1"/>
        <pt x="961" y="82" on="0"/>
        <pt x="855" y="-18" on="0"/>
        <pt x="758" y="-18" on="1"/>
        <pt x="659" y="-18" on="0"/>
        <pt x="553" y="82" on="0"/>
        <pt x="553" y="172" on="1"/>
        <pt x="553" y="1843" on="1"/>
        <pt x="553" y="1929" on="0"/>
        <pt x="516" y="1929" on="1"/>
        <pt x="494" y="1929" on="0"/>
        <pt x="445" y="1859" on="0"/>
        <pt x="416" y="1796" on="1"/>
        <pt x="260" y="1479" on="1"/>
        <pt x="211" y="1479" on="1"/>
        <pt x="152" y="1698" on="1"/>
        <pt x="121" y="1812" on="0"/>
        <pt x="72" y="1928" on="0"/>
        <pt x="19" y="1978" on="0"/>
      </contour>
    </TTGlyph>
    <TTGlyph name="uni0E45" xMin="-4" yMin="-520" xMax="823" yMax="1147">
      <contour>
        <pt x="823" y="-401" on="1"/>
        <pt x="723" y="-520" on="1"/>
        <pt x="655" y="-520" on="1"/>
        <pt x="655" y="686" on="1"/>
        <pt x="655" y="863" on="0"/>
        <pt x="517" y="1049" on="0"/>
        <pt x="389" y="1049" on="1"/>
        <pt x="311" y="1049" on="0"/>
        <pt x="160" y="1001" on="0"/>
        <pt x="43" y="930" on="1"/>
        <pt x="-4" y="1008" on="1"/>
        <pt x="200" y="1147" on="0"/>
        <pt x="420" y="1147" on="1"/>
        <pt x="823" y="1147" on="0"/>
        <pt x="823" y="696" on="1"/>
      </contour>
    </TTGlyph>
    <TTGlyph name="uni0E46" xMin="59" yMin="-520" xMax="850" yMax="1141">
      <contour>
        <pt x="434" y="909" on="1"/>
        <pt x="289" y="1038" on="1"/>
        <pt x="189" y="993" on="0"/>
        <pt x="168" y="846" on="1"/>
        <pt x="187" y="869" on="0"/>
        <pt x="264" y="899" on="0"/>
        <pt x="301" y="899" on="1"/>
        <pt x="374" y="899" on="0"/>
        <pt x="463" y="809" on="0"/>
        <pt x="463" y="729" on="1"/>
        <pt x="463" y="652" on="0"/>
        <pt x="366" y="559" on="0"/>
        <pt x="281" y="559" on="1"/>
        <pt x="172" y="559" on="0"/>
        <pt x="59" y="684" on="0"/>
        <pt x="59" y="795" on="1"/>
        <pt x="59" y="918" on="0"/>
        <pt x="190" y="1109" on="0"/>
        <pt x="299" y="1141" on="1"/>
        <pt x="434" y="1018" on="1"/>
        <pt x="569" y="1141" on="1"/>
        <pt x="850" y="1105" on="0"/>
        <pt x="850" y="799" on="1"/>
        <pt x="850" y="-401" on="1"/>
        <pt x="750" y="-520" on="1"/>
        <pt x="682" y="-520" on="1"/>
        <pt x="682" y="807" on="1"/>
        <pt x="682" y="995" on="0"/>
        <pt x="582" y="1036" on="1"/>
      </contour>
      <contour>
        <pt x="369" y="729" on="1"/>
        <pt x="369" y="767" on="0"/>
        <pt x="319" y="815" on="0"/>
        <pt x="279" y="815" on="1"/>
        <pt x="240" y="815" on="0"/>
        <pt x="190" y="767" on="0"/>
        <pt x="190" y="729" on="1"/>
        <pt x="190" y="689" on="0"/>
        <pt x="240" y="641" on="0"/>
        <pt x="279" y="641" on="1"/>
        <pt x="319" y="641" on="0"/>
        <pt x="369" y="689" on="0"/>
      </contour>
    </TTGlyph>
    <TTGlyph name="uni0E47" xMin="-860" yMin="1221" xMax="-94" yMax="1749">
      <contour>
        <pt x="-238" y="1341" on="1"/>
        <pt x="-281" y="1345" on="0"/>
        <pt x="-326" y="1398" on="0"/>
        <pt x="-326" y="1436" on="1"/>
        <pt x="-326" y="1471" on="0"/>
        <pt x="-279" y="1524" on="0"/>
        <pt x="-231" y="1524" on="1"/>
        <pt x="-123" y="1524" on="0"/>
        <pt x="-123" y="1401" on="1"/>
        <pt x="-123" y="1323" on="0"/>
        <pt x="-210" y="1221" on="0"/>
        <pt x="-283" y="1221" on="1"/>
        <pt x="-327" y="1221" on="0"/>
        <pt x="-424" y="1264" on="0"/>
        <pt x="-486" y="1311" on="1"/>
        <pt x="-553" y="1358" on="1"/>
        <pt x="-585" y="1293" on="0"/>
        <pt x="-645" y="1229" on="1"/>
        <pt x="-737" y="1248" on="0"/>
        <pt x="-860" y="1386" on="0"/>
        <pt x="-860" y="1479" on="1"/>
        <pt x="-860" y="1580" on="0"/>
        <pt x="-713" y="1702" on="0"/>
        <pt x="-590" y="1702" on="1"/>
        <pt x="-534" y="1702" on="0"/>
        <pt x="-368" y="1681" on="1"/>
        <pt x="-311" y="1677" on="1"/>
        <pt x="-279" y="1677" on="0"/>
        <pt x="-234" y="1687" on="0"/>
        <pt x="-195" y="1706" on="0"/>
        <pt x="-137" y="1749" on="1"/>
        <pt x="-94" y="1706" on="1"/>
        <pt x="-144" y="1640" on="0"/>
        <pt x="-245" y="1563" on="0"/>
        <pt x="-307" y="1563" on="1"/>
        <pt x="-358" y="1563" on="0"/>
        <pt x="-464" y="1578" on="1"/>
        <pt x="-571" y="1593" on="0"/>
        <pt x="-612" y="1593" on="1"/>
        <pt x="-764" y="1593" on="0"/>
        <pt x="-764" y="1479" on="1"/>
        <pt x="-764" y="1447" on="0"/>
        <pt x="-734" y="1393" on="0"/>
        <pt x="-686" y="1355" on="0"/>
        <pt x="-666" y="1352" on="1"/>
        <pt x="-615" y="1403" on="0"/>
        <pt x="-586" y="1483" on="1"/>
        <pt x="-559" y="1470" on="0"/>
        <pt x="-429" y="1382" on="1"/>
        <pt x="-326" y="1311" on="0"/>
        <pt x="-289" y="1311" on="1"/>
        <pt x="-255" y="1311" on="0"/>
      </contour>
      <contour>
        <pt x="-264" y="1434" on="1"/>
        <pt x="-264" y="1397" on="0"/>
        <pt x="-225" y="1397" on="1"/>
        <pt x="-210" y="1397" on="0"/>
        <pt x="-188" y="1417" on="0"/>
        <pt x="-188" y="1434" on="1"/>
        <pt x="-188" y="1451" on="0"/>
        <pt x="-210" y="1473" on="0"/>
        <pt x="-225" y="1473" on="1"/>
        <pt x="-244" y="1473" on="0"/>
        <pt x="-264" y="1451" on="0"/>
      </contour>
    </TTGlyph>
    <TTGlyph name="uni0E48" xMin="-354" yMin="1221" xMax="-160" yMax="1583">
      <contour>
        <pt x="-354" y="1583" on="1"/>
        <pt x="-160" y="1583" on="1"/>
        <pt x="-201" y="1221" on="1"/>
        <pt x="-313" y="1221" on="1"/>
      </contour>
    </TTGlyph>
    <TTGlyph name="uni0E48.small" xMin="-354" yMin="1776" xMax="-160" yMax="2138">
      <contour>
        <pt x="-354" y="2138" on="1"/>
        <pt x="-160" y="2138" on="1"/>
        <pt x="-201" y="1776" on="1"/>
        <pt x="-313" y="1776" on="1"/>
      </contour>
    </TTGlyph>
    <TTGlyph name="uni0E49" xMin="-733" yMin="1221" xMax="-63" yMax="1661">
      <contour>
        <pt x="-440" y="1503" on="1"/>
        <pt x="-440" y="1447" on="0"/>
        <pt x="-513" y="1333" on="0"/>
        <pt x="-567" y="1300" on="1"/>
        <pt x="-465" y="1300" on="0"/>
        <pt x="-333" y="1366" on="0"/>
        <pt x="-250" y="1506" on="0"/>
        <pt x="-215" y="1661" on="1"/>
        <pt x="-63" y="1610" on="1"/>
        <pt x="-141" y="1221" on="0"/>
        <pt x="-543" y="1221" on="1"/>
        <pt x="-662" y="1221" on="1"/>
        <pt x="-690" y="1292" on="1"/>
        <pt x="-627" y="1326" on="0"/>
        <pt x="-539" y="1413" on="0"/>
        <pt x="-530" y="1452" on="1"/>
        <pt x="-562" y="1413" on="0"/>
        <pt x="-616" y="1413" on="1"/>
        <pt x="-673" y="1413" on="0"/>
        <pt x="-733" y="1480" on="0"/>
        <pt x="-733" y="1536" on="1"/>
        <pt x="-733" y="1598" on="0"/>
        <pt x="-659" y="1661" on="0"/>
        <pt x="-602" y="1661" on="1"/>
        <pt x="-525" y="1661" on="0"/>
        <pt x="-440" y="1576" on="0"/>
      </contour>
      <contour>
        <pt x="-657" y="1538" on="1"/>
        <pt x="-657" y="1513" on="0"/>
        <pt x="-625" y="1483" on="0"/>
        <pt x="-600" y="1483" on="1"/>
        <pt x="-577" y="1483" on="0"/>
        <pt x="-547" y="1513" on="0"/>
        <pt x="-547" y="1538" on="1"/>
        <pt x="-547" y="1563" on="0"/>
        <pt x="-577" y="1593" on="0"/>
        <pt x="-600" y="1593" on="1"/>
        <pt x="-625" y="1593" on="0"/>
        <pt x="-657" y="1563" on="0"/>
      </contour>
    </TTGlyph>
    <TTGlyph name="uni0E49.small" xMin="-702" yMin="1776" xMax="-33" yMax="2216">
      <contour>
        <pt x="-410" y="2058" on="1"/>
        <pt x="-410" y="2004" on="0"/>
        <pt x="-480" y="1890" on="0"/>
        <pt x="-537" y="1855" on="1"/>
        <pt x="-436" y="1855" on="0"/>
        <pt x="-305" y="1920" on="0"/>
        <pt x="-223" y="2051" on="0"/>
        <pt x="-184" y="2216" on="1"/>
        <pt x="-33" y="2165" on="1"/>
        <pt x="-111" y="1776" on="0"/>
        <pt x="-512" y="1776" on="1"/>
        <pt x="-631" y="1776" on="1"/>
        <pt x="-659" y="1847" on="1"/>
        <pt x="-597" y="1881" on="0"/>
        <pt x="-511" y="1965" on="0"/>
        <pt x="-500" y="2007" on="1"/>
        <pt x="-532" y="1968" on="0"/>
        <pt x="-586" y="1968" on="1"/>
        <pt x="-641" y="1968" on="0"/>
        <pt x="-702" y="2034" on="0"/>
        <pt x="-702" y="2091" on="1"/>
        <pt x="-702" y="2153" on="0"/>
        <pt x="-628" y="2216" on="0"/>
        <pt x="-571" y="2216" on="1"/>
        <pt x="-494" y="2216" on="0"/>
        <pt x="-410" y="2130" on="0"/>
      </contour>
      <contour>
        <pt x="-627" y="2093" on="1"/>
        <pt x="-627" y="2068" on="0"/>
        <pt x="-594" y="2038" on="0"/>
        <pt x="-569" y="2038" on="1"/>
        <pt x="-546" y="2038" on="0"/>
        <pt x="-516" y="2068" on="0"/>
        <pt x="-516" y="2093" on="1"/>
        <pt x="-516" y="2118" on="0"/>
        <pt x="-546" y="2148" on="0"/>
        <pt x="-569" y="2148" on="1"/>
        <pt x="-594" y="2148" on="0"/>
        <pt x="-627" y="2118" on="0"/>
      </contour>
    </TTGlyph>
    <TTGlyph name="uni0E4A" xMin="-889" yMin="1221" xMax="-45" yMax="1661">
      <contour>
        <pt x="-342" y="1446" on="1"/>
        <pt x="-342" y="1375" on="0"/>
        <pt x="-369" y="1317" on="1"/>
        <pt x="-306" y="1344" on="0"/>
        <pt x="-224" y="1511" on="0"/>
        <pt x="-197" y="1661" on="1"/>
        <pt x="-45" y="1610" on="1"/>
        <pt x="-92" y="1408" on="0"/>
        <pt x="-306" y="1221" on="0"/>
        <pt x="-494" y="1221" on="1"/>
        <pt x="-470" y="1265" on="0"/>
        <pt x="-442" y="1376" on="0"/>
        <pt x="-442" y="1423" on="1"/>
        <pt x="-442" y="1468" on="0"/>
        <pt x="-467" y="1539" on="0"/>
        <pt x="-508" y="1565" on="1"/>
        <pt x="-612" y="1473" on="1"/>
        <pt x="-721" y="1567" on="1"/>
        <pt x="-799" y="1521" on="0"/>
        <pt x="-799" y="1430" on="1"/>
        <pt x="-768" y="1468" on="0"/>
        <pt x="-713" y="1468" on="1"/>
        <pt x="-665" y="1468" on="0"/>
        <pt x="-596" y="1409" on="0"/>
        <pt x="-596" y="1346" on="1"/>
        <pt x="-596" y="1286" on="0"/>
        <pt x="-670" y="1221" on="0"/>
        <pt x="-727" y="1221" on="1"/>
        <pt x="-803" y="1221" on="0"/>
        <pt x="-889" y="1330" on="0"/>
        <pt x="-889" y="1421" on="1"/>
        <pt x="-889" y="1597" on="0"/>
        <pt x="-713" y="1661" on="1"/>
        <pt x="-612" y="1571" on="1"/>
        <pt x="-514" y="1661" on="1"/>
        <pt x="-342" y="1596" on="0"/>
      </contour>
      <contour>
        <pt x="-672" y="1346" on="1"/>
        <pt x="-672" y="1370" on="0"/>
        <pt x="-701" y="1399" on="0"/>
        <pt x="-727" y="1399" on="1"/>
        <pt x="-752" y="1399" on="0"/>
        <pt x="-782" y="1370" on="0"/>
        <pt x="-782" y="1346" on="1"/>
        <pt x="-782" y="1320" on="0"/>
        <pt x="-752" y="1290" on="0"/>
        <pt x="-727" y="1290" on="1"/>
        <pt x="-701" y="1290" on="0"/>
        <pt x="-672" y="1320" on="0"/>
      </contour>
    </TTGlyph>
    <TTGlyph name="uni0E4A.small" xMin="-885" yMin="1776" xMax="-41" yMax="2216">
      <contour>
        <pt x="-338" y="2001" on="1"/>
        <pt x="-338" y="1930" on="0"/>
        <pt x="-365" y="1872" on="1"/>
        <pt x="-302" y="1899" on="0"/>
        <pt x="-220" y="2066" on="0"/>
        <pt x="-193" y="2216" on="1"/>
        <pt x="-41" y="2165" on="1"/>
        <pt x="-88" y="1963" on="0"/>
        <pt x="-302" y="1776" on="0"/>
        <pt x="-489" y="1776" on="1"/>
        <pt x="-467" y="1816" on="0"/>
        <pt x="-438" y="1931" on="0"/>
        <pt x="-438" y="1978" on="1"/>
        <pt x="-438" y="2023" on="0"/>
        <pt x="-463" y="2094" on="0"/>
        <pt x="-504" y="2120" on="1"/>
        <pt x="-608" y="2028" on="1"/>
        <pt x="-717" y="2122" on="1"/>
        <pt x="-795" y="2076" on="0"/>
        <pt x="-795" y="1985" on="1"/>
        <pt x="-764" y="2023" on="0"/>
        <pt x="-709" y="2023" on="1"/>
        <pt x="-661" y="2023" on="0"/>
        <pt x="-592" y="1964" on="0"/>
        <pt x="-592" y="1901" on="1"/>
        <pt x="-592" y="1841" on="0"/>
        <pt x="-666" y="1776" on="0"/>
        <pt x="-723" y="1776" on="1"/>
        <pt x="-799" y="1776" on="0"/>
        <pt x="-885" y="1885" on="0"/>
        <pt x="-885" y="1976" on="1"/>
        <pt x="-885" y="2152" on="0"/>
        <pt x="-709" y="2216" on="1"/>
        <pt x="-608" y="2126" on="1"/>
        <pt x="-510" y="2216" on="1"/>
        <pt x="-338" y="2151" on="0"/>
      </contour>
      <contour>
        <pt x="-668" y="1901" on="1"/>
        <pt x="-668" y="1925" on="0"/>
        <pt x="-697" y="1954" on="0"/>
        <pt x="-723" y="1954" on="1"/>
        <pt x="-748" y="1954" on="0"/>
        <pt x="-778" y="1925" on="0"/>
        <pt x="-778" y="1901" on="1"/>
        <pt x="-778" y="1875" on="0"/>
        <pt x="-748" y="1845" on="0"/>
        <pt x="-723" y="1845" on="1"/>
        <pt x="-697" y="1845" on="0"/>
        <pt x="-668" y="1875" on="0"/>
      </contour>
    </TTGlyph>
    <TTGlyph name="uni0E4B" xMin="-459" yMin="1221" xMax="-55" yMax="1640">
      <contour>
        <pt x="-459" y="1372" on="1"/>
        <pt x="-459" y="1489" on="1"/>
        <pt x="-315" y="1489" on="1"/>
        <pt x="-315" y="1640" on="1"/>
        <pt x="-199" y="1640" on="1"/>
        <pt x="-199" y="1489" on="1"/>
        <pt x="-55" y="1489" on="1"/>
        <pt x="-55" y="1372" on="1"/>
        <pt x="-199" y="1372" on="1"/>
        <pt x="-199" y="1221" on="1"/>
        <pt x="-315" y="1221" on="1"/>
        <pt x="-315" y="1372" on="1"/>
      </contour>
    </TTGlyph>
    <TTGlyph name="uni0E4B.small" xMin="-457" yMin="1776" xMax="-94" yMax="2136">
      <contour>
        <pt x="-457" y="1907" on="1"/>
        <pt x="-457" y="2005" on="1"/>
        <pt x="-326" y="2005" on="1"/>
        <pt x="-326" y="2136" on="1"/>
        <pt x="-225" y="2136" on="1"/>
        <pt x="-225" y="2005" on="1"/>
        <pt x="-94" y="2005" on="1"/>
        <pt x="-94" y="1907" on="1"/>
        <pt x="-225" y="1907" on="1"/>
        <pt x="-225" y="1776" on="1"/>
        <pt x="-326" y="1776" on="1"/>
        <pt x="-326" y="1907" on="1"/>
      </contour>
    </TTGlyph>
    <TTGlyph name="uni0E4C" xMin="-834" yMin="1223" xMax="-18" yMax="1745">
      <contour>
        <pt x="-461" y="1384" on="1"/>
        <pt x="-461" y="1312" on="0"/>
        <pt x="-557" y="1223" on="0"/>
        <pt x="-645" y="1223" on="1"/>
        <pt x="-732" y="1223" on="0"/>
        <pt x="-834" y="1314" on="0"/>
        <pt x="-834" y="1395" on="1"/>
        <pt x="-834" y="1485" on="0"/>
        <pt x="-698" y="1575" on="0"/>
        <pt x="-532" y="1589" on="1"/>
        <pt x="-403" y="1600" on="0"/>
        <pt x="-260" y="1635" on="0"/>
        <pt x="-195" y="1691" on="0"/>
        <pt x="-186" y="1745" on="1"/>
        <pt x="-18" y="1745" on="1"/>
        <pt x="-38" y="1623" on="0"/>
        <pt x="-146" y="1525" on="0"/>
        <pt x="-382" y="1502" on="0"/>
        <pt x="-489" y="1500" on="1"/>
        <pt x="-512" y="1499" on="1"/>
        <pt x="-461" y="1451" on="0"/>
      </contour>
      <contour>
        <pt x="-739" y="1397" on="1"/>
        <pt x="-739" y="1353" on="0"/>
        <pt x="-688" y="1305" on="0"/>
        <pt x="-645" y="1305" on="1"/>
        <pt x="-607" y="1305" on="0"/>
        <pt x="-553" y="1353" on="0"/>
        <pt x="-553" y="1397" on="1"/>
        <pt x="-553" y="1437" on="0"/>
        <pt x="-607" y="1487" on="0"/>
        <pt x="-645" y="1487" on="1"/>
        <pt x="-688" y="1487" on="0"/>
        <pt x="-739" y="1437" on="0"/>
      </contour>
    </TTGlyph>
    <TTGlyph name="uni0E4C.small" xMin="-811" yMin="1763" xMax="4" yMax="2286">
      <contour>
        <pt x="-438" y="1925" on="1"/>
        <pt x="-438" y="1853" on="0"/>
        <pt x="-535" y="1763" on="0"/>
        <pt x="-623" y="1763" on="1"/>
        <pt x="-709" y="1763" on="0"/>
        <pt x="-811" y="1855" on="0"/>
        <pt x="-811" y="1935" on="1"/>
        <pt x="-811" y="2025" on="0"/>
        <pt x="-674" y="2116" on="0"/>
        <pt x="-510" y="2130" on="1"/>
        <pt x="-377" y="2142" on="0"/>
        <pt x="-237" y="2176" on="0"/>
        <pt x="-172" y="2231" on="0"/>
        <pt x="-164" y="2286" on="1"/>
        <pt x="4" y="2286" on="1"/>
        <pt x="-16" y="2164" on="0"/>
        <pt x="-124" y="2066" on="0"/>
        <pt x="-360" y="2043" on="0"/>
        <pt x="-466" y="2041" on="1"/>
        <pt x="-489" y="2040" on="1"/>
        <pt x="-438" y="1992" on="0"/>
      </contour>
      <contour>
        <pt x="-717" y="1937" on="1"/>
        <pt x="-717" y="1894" on="0"/>
        <pt x="-666" y="1845" on="0"/>
        <pt x="-623" y="1845" on="1"/>
        <pt x="-584" y="1845" on="0"/>
        <pt x="-530" y="1894" on="0"/>
        <pt x="-530" y="1937" on="1"/>
        <pt x="-530" y="1978" on="0"/>
        <pt x="-584" y="2028" on="0"/>
        <pt x="-623" y="2028" on="1"/>
        <pt x="-666" y="2028" on="0"/>
        <pt x="-717" y="1978" on="0"/>
      </contour>
    </TTGlyph>
    <TTGlyph name="uni0E4D" xMin="-461" yMin="1231" xMax="-92" yMax="1575">
      <contour>
        <pt x="-461" y="1403" on="1"/>
        <pt x="-461" y="1483" on="0"/>
        <pt x="-367" y="1575" on="0"/>
        <pt x="-279" y="1575" on="1"/>
        <pt x="-189" y="1575" on="0"/>
        <pt x="-92" y="1483" on="0"/>
        <pt x="-92" y="1403" on="1"/>
        <pt x="-92" y="1321" on="0"/>
        <pt x="-189" y="1231" on="0"/>
        <pt x="-279" y="1231" on="1"/>
        <pt x="-367" y="1231" on="0"/>
        <pt x="-461" y="1321" on="0"/>
      </contour>
      <contour>
        <pt x="-371" y="1403" on="1"/>
        <pt x="-371" y="1361" on="0"/>
        <pt x="-318" y="1311" on="0"/>
        <pt x="-276" y="1311" on="1"/>
        <pt x="-236" y="1311" on="0"/>
        <pt x="-182" y="1361" on="0"/>
        <pt x="-182" y="1403" on="1"/>
        <pt x="-182" y="1445" on="0"/>
        <pt x="-236" y="1495" on="0"/>
        <pt x="-276" y="1495" on="1"/>
        <pt x="-318" y="1495" on="0"/>
        <pt x="-371" y="1445" on="0"/>
      </contour>
    </TTGlyph>
    <TTGlyph name="uni0E4E" xMin="-496" yMin="1223" xMax="-86" yMax="1698">
      <contour>
        <pt x="-195" y="1432" on="1"/>
        <pt x="-276" y="1432" on="0"/>
        <pt x="-362" y="1392" on="0"/>
        <pt x="-362" y="1354" on="1"/>
        <pt x="-362" y="1329" on="0"/>
        <pt x="-317" y="1298" on="0"/>
        <pt x="-272" y="1298" on="1"/>
        <pt x="-195" y="1298" on="0"/>
        <pt x="-137" y="1319" on="1"/>
        <pt x="-137" y="1245" on="1"/>
        <pt x="-197" y="1223" on="0"/>
        <pt x="-287" y="1223" on="1"/>
        <pt x="-386" y="1223" on="0"/>
        <pt x="-496" y="1294" on="0"/>
        <pt x="-496" y="1356" on="1"/>
        <pt x="-496" y="1408" on="0"/>
        <pt x="-403" y="1468" on="0"/>
        <pt x="-313" y="1468" on="1"/>
        <pt x="-361" y="1482" on="0"/>
        <pt x="-422" y="1537" on="0"/>
        <pt x="-422" y="1577" on="1"/>
        <pt x="-422" y="1635" on="0"/>
        <pt x="-322" y="1698" on="0"/>
        <pt x="-239" y="1698" on="1"/>
        <pt x="-140" y="1698" on="0"/>
        <pt x="-86" y="1667" on="1"/>
        <pt x="-121" y="1604" on="1"/>
        <pt x="-163" y="1628" on="0"/>
        <pt x="-227" y="1628" on="1"/>
        <pt x="-258" y="1628" on="0"/>
        <pt x="-297" y="1596" on="0"/>
        <pt x="-297" y="1569" on="1"/>
        <pt x="-297" y="1502" on="0"/>
        <pt x="-195" y="1493" on="1"/>
      </contour>
    </TTGlyph>
    <TTGlyph name="uni0E4F" xMin="76" yMin="-20" xMax="1243" yMax="1149">
      <contour>
        <pt x="76" y="563" on="1"/>
        <pt x="76" y="719" on="0"/>
        <pt x="233" y="992" on="0"/>
        <pt x="503" y="1149" on="0"/>
        <pt x="659" y="1149" on="1"/>
        <pt x="816" y="1149" on="0"/>
        <pt x="1087" y="991" on="0"/>
        <pt x="1243" y="718" on="0"/>
        <pt x="1243" y="563" on="1"/>
        <pt x="1243" y="408" on="0"/>
        <pt x="1087" y="138" on="0"/>
        <pt x="815" y="-20" on="0"/>
        <pt x="659" y="-20" on="1"/>
        <pt x="504" y="-20" on="0"/>
        <pt x="233" y="136" on="0"/>
        <pt x="76" y="407" on="0"/>
      </contour>
      <contour>
        <pt x="174" y="563" on="1"/>
        <pt x="174" y="434" on="0"/>
        <pt x="304" y="211" on="0"/>
        <pt x="527" y="82" on="0"/>
        <pt x="659" y="82" on="1"/>
        <pt x="789" y="82" on="0"/>
        <pt x="1013" y="211" on="0"/>
        <pt x="1143" y="434" on="0"/>
        <pt x="1143" y="563" on="1"/>
        <pt x="1143" y="692" on="0"/>
        <pt x="1015" y="916" on="0"/>
        <pt x="789" y="1047" on="0"/>
        <pt x="659" y="1047" on="1"/>
        <pt x="528" y="1047" on="0"/>
        <pt x="302" y="916" on="0"/>
        <pt x="174" y="692" on="0"/>
      </contour>
      <contour>
        <pt x="457" y="563" on="1"/>
        <pt x="457" y="646" on="0"/>
        <pt x="574" y="768" on="0"/>
        <pt x="659" y="768" on="1"/>
        <pt x="742" y="768" on="0"/>
        <pt x="862" y="647" on="0"/>
        <pt x="862" y="563" on="1"/>
        <pt x="862" y="480" on="0"/>
        <pt x="740" y="362" on="0"/>
        <pt x="659" y="362" on="1"/>
        <pt x="574" y="362" on="0"/>
        <pt x="457" y="483" on="0"/>
      </contour>
    </TTGlyph>
    <TTGlyph name="uni0E50" xMin="131" yMin="-20" xMax="1229" yMax="930">
      <contour>
        <pt x="678" y="72" on="1"/>
        <pt x="851" y="72" on="0"/>
        <pt x="1063" y="277" on="0"/>
        <pt x="1063" y="457" on="1"/>
        <pt x="1063" y="634" on="0"/>
        <pt x="853" y="840" on="0"/>
        <pt x="678" y="840" on="1"/>
        <pt x="505" y="840" on="0"/>
        <pt x="297" y="633" on="0"/>
        <pt x="297" y="457" on="1"/>
        <pt x="297" y="341" on="0"/>
        <pt x="390" y="167" on="0"/>
        <pt x="565" y="72" on="0"/>
      </contour>
      <contour>
        <pt x="678" y="-20" on="1"/>
        <pt x="424" y="-20" on="0"/>
        <pt x="131" y="237" on="0"/>
        <pt x="131" y="455" on="1"/>
        <pt x="131" y="677" on="0"/>
        <pt x="424" y="930" on="0"/>
        <pt x="678" y="930" on="1"/>
        <pt x="932" y="930" on="0"/>
        <pt x="1229" y="677" on="0"/>
        <pt x="1229" y="455" on="1"/>
        <pt x="1229" y="236" on="0"/>
        <pt x="933" y="-20" on="0"/>
      </contour>
    </TTGlyph>
    <TTGlyph name="uni0E51" xMin="131" yMin="-18" xMax="1229" yMax="930">
      <contour>
        <pt x="561" y="420" on="1"/>
        <pt x="561" y="383" on="0"/>
        <pt x="609" y="336" on="0"/>
        <pt x="647" y="336" on="1"/>
        <pt x="684" y="336" on="0"/>
        <pt x="733" y="383" on="0"/>
        <pt x="733" y="420" on="1"/>
        <pt x="733" y="458" on="0"/>
        <pt x="684" y="508" on="0"/>
        <pt x="647" y="508" on="1"/>
        <pt x="609" y="508" on="0"/>
        <pt x="561" y="458" on="0"/>
      </contour>
      <contour>
        <pt x="1229" y="428" on="1"/>
        <pt x="1229" y="317" on="0"/>
        <pt x="1116" y="105" on="0"/>
        <pt x="985" y="-12" on="1"/>
        <pt x="932" y="41" on="1"/>
        <pt x="1006" y="134" on="0"/>
        <pt x="1069" y="318" on="0"/>
        <pt x="1069" y="430" on="1"/>
        <pt x="1069" y="553" on="0"/>
        <pt x="970" y="740" on="0"/>
        <pt x="791" y="842" on="0"/>
        <pt x="680" y="842" on="1"/>
        <pt x="569" y="842" on="0"/>
        <pt x="392" y="742" on="0"/>
        <pt x="293" y="556" on="0"/>
        <pt x="293" y="434" on="1"/>
        <pt x="293" y="270" on="0"/>
        <pt x="431" y="72" on="0"/>
        <pt x="541" y="72" on="1"/>
        <pt x="630" y="72" on="0"/>
        <pt x="744" y="197" on="0"/>
        <pt x="754" y="303" on="1"/>
        <pt x="735" y="280" on="0"/>
        <pt x="662" y="252" on="0"/>
        <pt x="625" y="252" on="1"/>
        <pt x="552" y="252" on="0"/>
        <pt x="463" y="340" on="0"/>
        <pt x="463" y="420" on="1"/>
        <pt x="463" y="497" on="0"/>
        <pt x="562" y="592" on="0"/>
        <pt x="645" y="592" on="1"/>
        <pt x="756" y="592" on="0"/>
        <pt x="887" y="441" on="0"/>
        <pt x="887" y="317" on="1"/>
        <pt x="887" y="168" on="0"/>
        <pt x="700" y="-18" on="0"/>
        <pt x="541" y="-18" on="1"/>
        <pt x="353" y="-18" on="0"/>
        <pt x="131" y="225" on="0"/>
        <pt x="131" y="428" on="1"/>
        <pt x="131" y="573" on="0"/>
        <pt x="268" y="803" on="0"/>
        <pt x="520" y="930" on="0"/>
        <pt x="680" y="930" on="1"/>
        <pt x="835" y="930" on="0"/>
        <pt x="1089" y="799" on="0"/>
        <pt x="1229" y="569" on="0"/>
      </contour>
    </TTGlyph>
    <TTGlyph name="uni0E52" xMin="90" yMin="0" xMax="1212" yMax="1298">
      <contour>
        <pt x="594" y="516" on="1"/>
        <pt x="594" y="479" on="0"/>
        <pt x="642" y="432" on="0"/>
        <pt x="680" y="432" on="1"/>
        <pt x="717" y="432" on="0"/>
        <pt x="766" y="479" on="0"/>
        <pt x="766" y="516" on="1"/>
        <pt x="766" y="554" on="0"/>
        <pt x="717" y="604" on="0"/>
        <pt x="680" y="604" on="1"/>
        <pt x="642" y="604" on="0"/>
        <pt x="594" y="554" on="0"/>
      </contour>
      <contour>
        <pt x="160" y="1053" on="1"/>
        <pt x="160" y="1095" on="0"/>
        <pt x="148" y="1153" on="0"/>
        <pt x="126" y="1199" on="0"/>
        <pt x="90" y="1247" on="1"/>
        <pt x="143" y="1298" on="1"/>
        <pt x="244" y="1236" on="0"/>
        <pt x="328" y="1080" on="0"/>
        <pt x="328" y="977" on="1"/>
        <pt x="328" y="389" on="1"/>
        <pt x="328" y="225" on="0"/>
        <pt x="425" y="90" on="0"/>
        <pt x="530" y="90" on="1"/>
        <pt x="842" y="90" on="1"/>
        <pt x="946" y="90" on="0"/>
        <pt x="1044" y="222" on="0"/>
        <pt x="1044" y="389" on="1"/>
        <pt x="1044" y="621" on="1"/>
        <pt x="1044" y="699" on="0"/>
        <pt x="1009" y="813" on="0"/>
        <pt x="981" y="825" on="1"/>
        <pt x="838" y="698" on="1"/>
        <pt x="692" y="827" on="1"/>
        <pt x="584" y="801" on="0"/>
        <pt x="584" y="635" on="1"/>
        <pt x="602" y="658" on="0"/>
        <pt x="665" y="688" on="0"/>
        <pt x="702" y="688" on="1"/>
        <pt x="775" y="688" on="0"/>
        <pt x="864" y="598" on="0"/>
        <pt x="864" y="520" on="1"/>
        <pt x="864" y="443" on="0"/>
        <pt x="767" y="348" on="0"/>
        <pt x="682" y="348" on="1"/>
        <pt x="576" y="348" on="0"/>
        <pt x="451" y="487" on="0"/>
        <pt x="451" y="610" on="1"/>
        <pt x="451" y="736" on="0"/>
        <pt x="586" y="909" on="0"/>
        <pt x="702" y="932" on="1"/>
        <pt x="838" y="809" on="1"/>
        <pt x="973" y="932" on="1"/>
        <pt x="1059" y="920" on="0"/>
        <pt x="1163" y="847" on="0"/>
        <pt x="1212" y="729" on="0"/>
        <pt x="1212" y="618" on="1"/>
        <pt x="1212" y="354" on="1"/>
        <pt x="1212" y="173" on="0"/>
        <pt x="1061" y="0" on="0"/>
        <pt x="907" y="0" on="1"/>
        <pt x="465" y="0" on="1"/>
        <pt x="311" y="0" on="0"/>
        <pt x="160" y="172" on="0"/>
        <pt x="160" y="354" on="1"/>
      </contour>
    </TTGlyph>
    <TTGlyph name="uni0E53" xMin="127" yMin="-20" xMax="1233" yMax="930">
      <contour>
        <pt x="641" y="150" on="1"/>
        <pt x="641" y="187" on="0"/>
        <pt x="591" y="231" on="0"/>
        <pt x="553" y="231" on="1"/>
        <pt x="518" y="231" on="0"/>
        <pt x="469" y="187" on="0"/>
        <pt x="469" y="150" on="1"/>
        <pt x="469" y="111" on="0"/>
        <pt x="518" y="63" on="0"/>
        <pt x="553" y="63" on="1"/>
        <pt x="591" y="63" on="0"/>
        <pt x="641" y="111" on="0"/>
      </contour>
      <contour>
        <pt x="1233" y="498" on="1"/>
        <pt x="1233" y="196" on="0"/>
        <pt x="999" y="-12" on="1"/>
        <pt x="946" y="41" on="1"/>
        <pt x="1071" y="199" on="0"/>
        <pt x="1071" y="467" on="1"/>
        <pt x="1071" y="650" on="0"/>
        <pt x="989" y="840" on="0"/>
        <pt x="920" y="840" on="1"/>
        <pt x="787" y="840" on="0"/>
        <pt x="750" y="504" on="1"/>
        <pt x="745" y="467" on="1"/>
        <pt x="618" y="467" on="1"/>
        <pt x="614" y="504" on="1"/>
        <pt x="577" y="840" on="0"/>
        <pt x="440" y="840" on="1"/>
        <pt x="371" y="840" on="0"/>
        <pt x="289" y="650" on="0"/>
        <pt x="289" y="467" on="1"/>
        <pt x="289" y="233" on="0"/>
        <pt x="377" y="150" on="1"/>
        <pt x="377" y="225" on="0"/>
        <pt x="479" y="315" on="0"/>
        <pt x="555" y="315" on="1"/>
        <pt x="637" y="315" on="0"/>
        <pt x="739" y="229" on="0"/>
        <pt x="739" y="150" on="1"/>
        <pt x="739" y="-20" on="0"/>
        <pt x="532" y="-20" on="1"/>
        <pt x="410" y="-20" on="0"/>
        <pt x="226" y="94" on="0"/>
        <pt x="127" y="311" on="0"/>
        <pt x="127" y="461" on="1"/>
        <pt x="127" y="693" on="0"/>
        <pt x="283" y="930" on="0"/>
        <pt x="434" y="930" on="1"/>
        <pt x="632" y="930" on="0"/>
        <pt x="680" y="647" on="1"/>
        <pt x="728" y="930" on="0"/>
        <pt x="926" y="930" on="1"/>
        <pt x="1074" y="930" on="0"/>
        <pt x="1233" y="709" on="0"/>
      </contour>
    </TTGlyph>
    <TTGlyph name="uni0E54" xMin="127" yMin="-23" xMax="1278" yMax="1311">
      <contour>
        <pt x="1059" y="471" on="1"/>
        <pt x="1059" y="393" on="0"/>
        <pt x="971" y="301" on="0"/>
        <pt x="895" y="301" on="1"/>
        <pt x="860" y="301" on="0"/>
        <pt x="796" y="331" on="0"/>
        <pt x="776" y="354" on="1"/>
        <pt x="818" y="226" on="0"/>
        <pt x="1075" y="150" on="1"/>
        <pt x="1217" y="108" on="0"/>
        <pt x="1278" y="47" on="1"/>
        <pt x="1231" y="-23" on="1"/>
        <pt x="1181" y="3" on="0"/>
        <pt x="1048" y="35" on="0"/>
        <pt x="979" y="35" on="1"/>
        <pt x="941" y="35" on="0"/>
        <pt x="803" y="13" on="1"/>
        <pt x="664" y="-10" on="0"/>
        <pt x="555" y="-10" on="1"/>
        <pt x="352" y="-10" on="0"/>
        <pt x="127" y="199" on="0"/>
        <pt x="127" y="383" on="1"/>
        <pt x="127" y="546" on="0"/>
        <pt x="366" y="779" on="0"/>
        <pt x="657" y="881" on="1"/>
        <pt x="821" y="937" on="0"/>
        <pt x="1012" y="1053" on="0"/>
        <pt x="1107" y="1196" on="0"/>
        <pt x="1120" y="1311" on="1"/>
        <pt x="1182" y="1311" on="1"/>
        <pt x="1211" y="1252" on="0"/>
        <pt x="1229" y="1191" on="0"/>
        <pt x="1229" y="1165" on="1"/>
        <pt x="1229" y="1098" on="0"/>
        <pt x="1140" y="991" on="0"/>
        <pt x="951" y="891" on="0"/>
        <pt x="745" y="819" on="1"/>
        <pt x="489" y="729" on="0"/>
        <pt x="299" y="538" on="0"/>
        <pt x="299" y="379" on="1"/>
        <pt x="299" y="248" on="0"/>
        <pt x="454" y="84" on="0"/>
        <pt x="582" y="84" on="1"/>
        <pt x="662" y="84" on="0"/>
        <pt x="793" y="128" on="1"/>
        <pt x="842" y="141" on="1"/>
        <pt x="755" y="185" on="0"/>
        <pt x="653" y="332" on="0"/>
        <pt x="653" y="418" on="1"/>
        <pt x="653" y="519" on="0"/>
        <pt x="776" y="641" on="0"/>
        <pt x="877" y="641" on="1"/>
        <pt x="961" y="641" on="0"/>
        <pt x="1059" y="549" on="0"/>
      </contour>
      <contour>
        <pt x="961" y="473" on="1"/>
        <pt x="961" y="510" on="0"/>
        <pt x="911" y="557" on="0"/>
        <pt x="872" y="557" on="1"/>
        <pt x="837" y="557" on="0"/>
        <pt x="788" y="510" on="0"/>
        <pt x="788" y="473" on="1"/>
        <pt x="788" y="435" on="0"/>
        <pt x="837" y="389" on="0"/>
        <pt x="872" y="389" on="1"/>
        <pt x="911" y="389" on="0"/>
        <pt x="961" y="435" on="0"/>
      </contour>
    </TTGlyph>
    <TTGlyph name="uni0E55" xMin="127" yMin="-23" xMax="1278" yMax="1311">
      <contour>
        <pt x="1059" y="471" on="1"/>
        <pt x="1059" y="393" on="0"/>
        <pt x="971" y="301" on="0"/>
        <pt x="895" y="301" on="1"/>
        <pt x="860" y="301" on="0"/>
        <pt x="796" y="331" on="0"/>
        <pt x="776" y="354" on="1"/>
        <pt x="818" y="226" on="0"/>
        <pt x="1075" y="150" on="1"/>
        <pt x="1217" y="108" on="0"/>
        <pt x="1278" y="47" on="1"/>
        <pt x="1231" y="-23" on="1"/>
        <pt x="1181" y="3" on="0"/>
        <pt x="1048" y="35" on="0"/>
        <pt x="979" y="35" on="1"/>
        <pt x="941" y="35" on="0"/>
        <pt x="803" y="13" on="1"/>
        <pt x="664" y="-10" on="0"/>
        <pt x="555" y="-10" on="1"/>
        <pt x="352" y="-10" on="0"/>
        <pt x="127" y="199" on="0"/>
        <pt x="127" y="383" on="1"/>
        <pt x="127" y="521" on="0"/>
        <pt x="301" y="732" on="0"/>
        <pt x="498" y="819" on="1"/>
        <pt x="469" y="833" on="0"/>
        <pt x="428" y="905" on="0"/>
        <pt x="428" y="954" on="1"/>
        <pt x="428" y="1035" on="0"/>
        <pt x="526" y="1124" on="0"/>
        <pt x="614" y="1124" on="1"/>
        <pt x="700" y="1124" on="0"/>
        <pt x="797" y="1032" on="0"/>
        <pt x="797" y="954" on="1"/>
        <pt x="797" y="944" on="1"/>
        <pt x="795" y="934" on="1"/>
        <pt x="955" y="1002" on="0"/>
        <pt x="1104" y="1171" on="0"/>
        <pt x="1120" y="1311" on="1"/>
        <pt x="1182" y="1311" on="1"/>
        <pt x="1211" y="1252" on="0"/>
        <pt x="1229" y="1191" on="0"/>
        <pt x="1229" y="1165" on="1"/>
        <pt x="1229" y="1098" on="0"/>
        <pt x="1139" y="991" on="0"/>
        <pt x="948" y="891" on="0"/>
        <pt x="743" y="819" on="1"/>
        <pt x="490" y="730" on="0"/>
        <pt x="299" y="540" on="0"/>
        <pt x="299" y="379" on="1"/>
        <pt x="299" y="248" on="0"/>
        <pt x="454" y="84" on="0"/>
        <pt x="582" y="84" on="1"/>
        <pt x="662" y="84" on="0"/>
        <pt x="793" y="128" on="1"/>
        <pt x="842" y="141" on="1"/>
        <pt x="755" y="185" on="0"/>
        <pt x="653" y="332" on="0"/>
        <pt x="653" y="418" on="1"/>
        <pt x="653" y="519" on="0"/>
        <pt x="776" y="641" on="0"/>
        <pt x="877" y="641" on="1"/>
        <pt x="961" y="641" on="0"/>
        <pt x="1059" y="549" on="0"/>
      </contour>
      <contour>
        <pt x="961" y="473" on="1"/>
        <pt x="961" y="510" on="0"/>
        <pt x="911" y="557" on="0"/>
        <pt x="872" y="557" on="1"/>
        <pt x="837" y="557" on="0"/>
        <pt x="788" y="510" on="0"/>
        <pt x="788" y="473" on="1"/>
        <pt x="788" y="435" on="0"/>
        <pt x="837" y="389" on="0"/>
        <pt x="872" y="389" on="1"/>
        <pt x="911" y="389" on="0"/>
        <pt x="961" y="435" on="0"/>
      </contour>
      <contour>
        <pt x="698" y="954" on="1"/>
        <pt x="698" y="992" on="0"/>
        <pt x="649" y="1038" on="0"/>
        <pt x="610" y="1038" on="1"/>
        <pt x="575" y="1038" on="0"/>
        <pt x="526" y="992" on="0"/>
        <pt x="526" y="954" on="1"/>
        <pt x="526" y="916" on="0"/>
        <pt x="575" y="870" on="0"/>
        <pt x="610" y="870" on="1"/>
        <pt x="649" y="870" on="0"/>
        <pt x="698" y="919" on="0"/>
      </contour>
    </TTGlyph>
    <TTGlyph name="uni0E56" xMin="100" yMin="-20" xMax="1178" yMax="1235">
      <contour>
        <pt x="319" y="346" on="1"/>
        <pt x="319" y="457" on="0"/>
        <pt x="450" y="590" on="0"/>
        <pt x="559" y="590" on="1"/>
        <pt x="641" y="590" on="0"/>
        <pt x="741" y="500" on="0"/>
        <pt x="741" y="420" on="1"/>
        <pt x="741" y="342" on="0"/>
        <pt x="653" y="250" on="0"/>
        <pt x="578" y="250" on="1"/>
        <pt x="542" y="250" on="0"/>
        <pt x="479" y="280" on="0"/>
        <pt x="459" y="303" on="1"/>
        <pt x="469" y="205" on="0"/>
        <pt x="620" y="72" on="0"/>
        <pt x="727" y="72" on="1"/>
        <pt x="871" y="72" on="0"/>
        <pt x="1016" y="257" on="0"/>
        <pt x="1016" y="430" on="1"/>
        <pt x="1016" y="598" on="0"/>
        <pt x="820" y="799" on="0"/>
        <pt x="653" y="799" on="1"/>
        <pt x="566" y="799" on="0"/>
        <pt x="383" y="738" on="0"/>
        <pt x="317" y="684" on="1"/>
        <pt x="287" y="767" on="0"/>
        <pt x="148" y="1069" on="0"/>
        <pt x="100" y="1153" on="1"/>
        <pt x="287" y="1235" on="1"/>
        <pt x="355" y="1036" on="0"/>
        <pt x="403" y="821" on="1"/>
        <pt x="449" y="849" on="0"/>
        <pt x="612" y="889" on="0"/>
        <pt x="682" y="889" on="1"/>
        <pt x="902" y="889" on="0"/>
        <pt x="1178" y="637" on="0"/>
        <pt x="1178" y="430" on="1"/>
        <pt x="1178" y="216" on="0"/>
        <pt x="943" y="-20" on="0"/>
        <pt x="729" y="-20" on="1"/>
        <pt x="607" y="-20" on="0"/>
        <pt x="419" y="75" on="0"/>
        <pt x="319" y="243" on="0"/>
      </contour>
      <contour>
        <pt x="643" y="422" on="1"/>
        <pt x="643" y="459" on="0"/>
        <pt x="593" y="506" on="0"/>
        <pt x="555" y="506" on="1"/>
        <pt x="520" y="506" on="0"/>
        <pt x="471" y="459" on="0"/>
        <pt x="471" y="422" on="1"/>
        <pt x="471" y="384" on="0"/>
        <pt x="520" y="338" on="0"/>
        <pt x="555" y="338" on="1"/>
        <pt x="593" y="338" on="0"/>
        <pt x="643" y="384" on="0"/>
      </contour>
    </TTGlyph>
    <TTGlyph name="uni0E57" xMin="76" yMin="-20" xMax="1335" yMax="1298">
      <contour>
        <pt x="1098" y="977" on="1"/>
        <pt x="1098" y="1081" on="0"/>
        <pt x="1180" y="1235" on="0"/>
        <pt x="1282" y="1298" on="1"/>
        <pt x="1335" y="1247" on="1"/>
        <pt x="1309" y="1211" on="1"/>
        <pt x="1266" y="1151" on="0"/>
        <pt x="1266" y="1053" on="1"/>
        <pt x="1266" y="354" on="1"/>
        <pt x="1266" y="173" on="0"/>
        <pt x="1120" y="0" on="0"/>
        <pt x="967" y="0" on="1"/>
        <pt x="801" y="0" on="1"/>
        <pt x="801" y="492" on="1"/>
        <pt x="801" y="685" on="0"/>
        <pt x="757" y="840" on="0"/>
        <pt x="702" y="840" on="1"/>
        <pt x="665" y="840" on="0"/>
        <pt x="618" y="794" on="0"/>
        <pt x="590" y="700" on="0"/>
        <pt x="578" y="582" on="1"/>
        <pt x="573" y="541" on="1"/>
        <pt x="461" y="541" on="1"/>
        <pt x="446" y="694" on="0"/>
        <pt x="421" y="793" on="0"/>
        <pt x="382" y="840" on="0"/>
        <pt x="350" y="840" on="1"/>
        <pt x="286" y="840" on="0"/>
        <pt x="236" y="691" on="0"/>
        <pt x="236" y="483" on="1"/>
        <pt x="236" y="394" on="0"/>
        <pt x="251" y="250" on="0"/>
        <pt x="264" y="229" on="1"/>
        <pt x="308" y="319" on="0"/>
        <pt x="426" y="319" on="1"/>
        <pt x="507" y="319" on="0"/>
        <pt x="610" y="226" on="0"/>
        <pt x="610" y="150" on="1"/>
        <pt x="610" y="69" on="0"/>
        <pt x="511" y="-20" on="0"/>
        <pt x="414" y="-20" on="1"/>
        <pt x="76" y="-20" on="0"/>
        <pt x="76" y="461" on="1"/>
        <pt x="76" y="708" on="0"/>
        <pt x="199" y="930" on="0"/>
        <pt x="338" y="930" on="1"/>
        <pt x="415" y="930" on="0"/>
        <pt x="502" y="832" on="0"/>
        <pt x="518" y="707" on="1"/>
        <pt x="532" y="823" on="0"/>
        <pt x="638" y="930" on="0"/>
        <pt x="733" y="930" on="1"/>
        <pt x="822" y="930" on="0"/>
        <pt x="919" y="841" on="0"/>
        <pt x="961" y="644" on="0"/>
        <pt x="961" y="461" on="1"/>
        <pt x="961" y="90" on="1"/>
        <pt x="1033" y="90" on="0"/>
        <pt x="1098" y="213" on="0"/>
        <pt x="1098" y="348" on="1"/>
      </contour>
      <contour>
        <pt x="512" y="152" on="1"/>
        <pt x="512" y="189" on="0"/>
        <pt x="462" y="236" on="0"/>
        <pt x="424" y="236" on="1"/>
        <pt x="389" y="236" on="0"/>
        <pt x="340" y="189" on="0"/>
        <pt x="340" y="152" on="1"/>
        <pt x="340" y="113" on="0"/>
        <pt x="389" y="63" on="0"/>
        <pt x="424" y="63" on="1"/>
        <pt x="462" y="63" on="0"/>
        <pt x="512" y="113" on="0"/>
      </contour>
    </TTGlyph>
    <TTGlyph name="uni0E58" xMin="127" yMin="-10" xMax="1260" yMax="1311">
      <contour>
        <pt x="1260" y="305" on="1"/>
        <pt x="1260" y="170" on="0"/>
        <pt x="1122" y="-10" on="0"/>
        <pt x="1016" y="-10" on="1"/>
        <pt x="976" y="-10" on="0"/>
        <pt x="898" y="17" on="0"/>
        <pt x="821" y="60" on="0"/>
        <pt x="743" y="119" on="1"/>
        <pt x="670" y="172" on="0"/>
        <pt x="643" y="180" on="1"/>
        <pt x="608" y="72" on="0"/>
        <pt x="541" y="-10" on="1"/>
        <pt x="342" y="-10" on="0"/>
        <pt x="127" y="194" on="0"/>
        <pt x="127" y="383" on="1"/>
        <pt x="127" y="546" on="0"/>
        <pt x="366" y="779" on="0"/>
        <pt x="657" y="881" on="1"/>
        <pt x="821" y="937" on="0"/>
        <pt x="1012" y="1053" on="0"/>
        <pt x="1107" y="1196" on="0"/>
        <pt x="1120" y="1311" on="1"/>
        <pt x="1182" y="1311" on="1"/>
        <pt x="1211" y="1252" on="0"/>
        <pt x="1229" y="1191" on="0"/>
        <pt x="1229" y="1165" on="1"/>
        <pt x="1229" y="1098" on="0"/>
        <pt x="1140" y="990" on="0"/>
        <pt x="948" y="889" on="0"/>
        <pt x="748" y="819" on="1"/>
        <pt x="492" y="730" on="0"/>
        <pt x="299" y="537" on="0"/>
        <pt x="299" y="379" on="1"/>
        <pt x="299" y="269" on="0"/>
        <pt x="410" y="116" on="0"/>
        <pt x="500" y="94" on="1"/>
        <pt x="536" y="145" on="0"/>
        <pt x="591" y="297" on="0"/>
        <pt x="596" y="350" on="1"/>
        <pt x="694" y="328" on="0"/>
        <pt x="822" y="227" on="1"/>
        <pt x="939" y="133" on="0"/>
        <pt x="1010" y="133" on="1"/>
        <pt x="1058" y="133" on="0"/>
        <pt x="1125" y="211" on="0"/>
        <pt x="1135" y="283" on="1"/>
        <pt x="1115" y="260" on="0"/>
        <pt x="1053" y="229" on="0"/>
        <pt x="1018" y="229" on="1"/>
        <pt x="942" y="229" on="0"/>
        <pt x="854" y="322" on="0"/>
        <pt x="854" y="399" on="1"/>
        <pt x="854" y="476" on="0"/>
        <pt x="951" y="569" on="0"/>
        <pt x="1036" y="569" on="1"/>
        <pt x="1146" y="569" on="0"/>
        <pt x="1260" y="430" on="0"/>
      </contour>
      <contour>
        <pt x="952" y="401" on="1"/>
        <pt x="952" y="363" on="0"/>
        <pt x="1002" y="317" on="0"/>
        <pt x="1040" y="317" on="1"/>
        <pt x="1075" y="317" on="0"/>
        <pt x="1124" y="363" on="0"/>
        <pt x="1124" y="401" on="1"/>
        <pt x="1124" y="439" on="0"/>
        <pt x="1075" y="485" on="0"/>
        <pt x="1040" y="485" on="1"/>
        <pt x="1002" y="485" on="0"/>
        <pt x="952" y="439" on="0"/>
      </contour>
    </TTGlyph>
    <TTGlyph name="uni0E59" xMin="127" yMin="-20" xMax="1288" yMax="1206">
      <contour>
        <pt x="641" y="150" on="1"/>
        <pt x="641" y="187" on="0"/>
        <pt x="591" y="231" on="0"/>
        <pt x="553" y="231" on="1"/>
        <pt x="518" y="231" on="0"/>
        <pt x="469" y="187" on="0"/>
        <pt x="469" y="150" on="1"/>
        <pt x="469" y="111" on="0"/>
        <pt x="518" y="63" on="0"/>
        <pt x="553" y="63" on="1"/>
        <pt x="591" y="63" on="0"/>
        <pt x="641" y="111" on="0"/>
      </contour>
      <contour>
        <pt x="440" y="840" on="1"/>
        <pt x="370" y="840" on="0"/>
        <pt x="289" y="650" on="0"/>
        <pt x="289" y="483" on="1"/>
        <pt x="289" y="234" on="0"/>
        <pt x="377" y="150" on="1"/>
        <pt x="377" y="225" on="0"/>
        <pt x="479" y="315" on="0"/>
        <pt x="555" y="315" on="1"/>
        <pt x="637" y="315" on="0"/>
        <pt x="739" y="229" on="0"/>
        <pt x="739" y="150" on="1"/>
        <pt x="739" y="-20" on="0"/>
        <pt x="532" y="-20" on="1"/>
        <pt x="415" y="-20" on="0"/>
        <pt x="230" y="102" on="0"/>
        <pt x="127" y="330" on="0"/>
        <pt x="127" y="483" on="1"/>
        <pt x="127" y="707" on="0"/>
        <pt x="276" y="930" on="0"/>
        <pt x="434" y="930" on="1"/>
        <pt x="510" y="930" on="0"/>
        <pt x="635" y="876" on="0"/>
        <pt x="678" y="831" on="1"/>
        <pt x="767" y="898" on="0"/>
        <pt x="795" y="967" on="1"/>
        <pt x="851" y="943" on="0"/>
        <pt x="976" y="835" on="0"/>
        <pt x="1018" y="778" on="1"/>
        <pt x="1065" y="827" on="0"/>
        <pt x="1116" y="1055" on="0"/>
        <pt x="1116" y="1206" on="1"/>
        <pt x="1288" y="1167" on="1"/>
        <pt x="1288" y="995" on="0"/>
        <pt x="1141" y="719" on="0"/>
        <pt x="989" y="625" on="1"/>
        <pt x="960" y="673" on="0"/>
        <pt x="838" y="808" on="0"/>
        <pt x="805" y="829" on="1"/>
        <pt x="780" y="791" on="0"/>
        <pt x="739" y="754" on="1"/>
        <pt x="782" y="685" on="0"/>
        <pt x="825" y="594" on="1"/>
        <pt x="1106" y="0" on="1"/>
        <pt x="918" y="0" on="1"/>
        <pt x="725" y="434" on="1"/>
        <pt x="635" y="639" on="0"/>
        <pt x="555" y="780" on="0"/>
        <pt x="485" y="840" on="0"/>
      </contour>
    </TTGlyph>
    <TTGlyph name="uni0E5A" xMin="45" yMin="0" xMax="1284" yMax="1126">
      <contour>
        <pt x="1116" y="0" on="1"/>
        <pt x="1116" y="1126" on="1"/>
        <pt x="1284" y="1126" on="1"/>
        <pt x="1284" y="119" on="1"/>
        <pt x="1184" y="0" on="1"/>
      </contour>
      <contour>
        <pt x="143" y="899" on="1"/>
        <pt x="143" y="861" on="0"/>
        <pt x="191" y="813" on="0"/>
        <pt x="233" y="813" on="1"/>
        <pt x="271" y="813" on="0"/>
        <pt x="322" y="861" on="0"/>
        <pt x="322" y="899" on="1"/>
        <pt x="322" y="941" on="0"/>
        <pt x="271" y="987" on="0"/>
        <pt x="233" y="987" on="1"/>
        <pt x="191" y="987" on="0"/>
        <pt x="143" y="941" on="0"/>
      </contour>
      <contour>
        <pt x="932" y="1126" on="1"/>
        <pt x="932" y="119" on="1"/>
        <pt x="831" y="0" on="1"/>
        <pt x="764" y="0" on="1"/>
        <pt x="764" y="911" on="1"/>
        <pt x="643" y="795" on="0"/>
        <pt x="411" y="690" on="0"/>
        <pt x="293" y="690" on="1"/>
        <pt x="175" y="690" on="0"/>
        <pt x="45" y="802" on="0"/>
        <pt x="45" y="901" on="1"/>
        <pt x="45" y="982" on="0"/>
        <pt x="147" y="1073" on="0"/>
        <pt x="233" y="1073" on="1"/>
        <pt x="321" y="1073" on="0"/>
        <pt x="418" y="982" on="0"/>
        <pt x="418" y="901" on="1"/>
        <pt x="418" y="859" on="0"/>
        <pt x="384" y="790" on="0"/>
        <pt x="362" y="774" on="1"/>
        <pt x="501" y="806" on="0"/>
        <pt x="710" y="990" on="0"/>
        <pt x="772" y="1126" on="1"/>
      </contour>
    </TTGlyph>
    <TTGlyph name="uni0E5B" xMin="88" yMin="-14" xMax="1810" yMax="899">
      <contour>
        <pt x="1810" y="514" on="1"/>
        <pt x="1810" y="459" on="1"/>
        <pt x="1573" y="412" on="1"/>
        <pt x="1460" y="190" on="1"/>
        <pt x="1444" y="190" on="1"/>
        <pt x="1321" y="459" on="1"/>
        <pt x="1171" y="111" on="1"/>
        <pt x="1155" y="111" on="1"/>
        <pt x="1006" y="479" on="1"/>
        <pt x="956" y="327" on="0"/>
        <pt x="858" y="154" on="0"/>
        <pt x="740" y="44" on="0"/>
        <pt x="596" y="-14" on="0"/>
        <pt x="508" y="-14" on="1"/>
        <pt x="314" y="-14" on="0"/>
        <pt x="88" y="233" on="0"/>
        <pt x="88" y="440" on="1"/>
        <pt x="88" y="650" on="0"/>
        <pt x="293" y="899" on="0"/>
        <pt x="463" y="899" on="1"/>
        <pt x="599" y="899" on="0"/>
        <pt x="764" y="726" on="0"/>
        <pt x="764" y="580" on="1"/>
        <pt x="764" y="447" on="0"/>
        <pt x="647" y="297" on="0"/>
        <pt x="541" y="297" on="1"/>
        <pt x="460" y="297" on="0"/>
        <pt x="358" y="388" on="0"/>
        <pt x="358" y="467" on="1"/>
        <pt x="358" y="545" on="0"/>
        <pt x="446" y="637" on="0"/>
        <pt x="522" y="637" on="1"/>
        <pt x="557" y="637" on="0"/>
        <pt x="621" y="607" on="0"/>
        <pt x="641" y="584" on="1"/>
        <pt x="641" y="642" on="0"/>
        <pt x="597" y="747" on="0"/>
        <pt x="518" y="807" on="0"/>
        <pt x="465" y="807" on="1"/>
        <pt x="352" y="807" on="0"/>
        <pt x="227" y="614" on="0"/>
        <pt x="227" y="438" on="1"/>
        <pt x="227" y="270" on="0"/>
        <pt x="386" y="80" on="0"/>
        <pt x="526" y="80" on="1"/>
        <pt x="688" y="80" on="0"/>
        <pt x="905" y="372" on="0"/>
        <pt x="991" y="717" on="1"/>
        <pt x="1014" y="717" on="1"/>
        <pt x="1174" y="313" on="1"/>
        <pt x="1317" y="639" on="1"/>
        <pt x="1337" y="639" on="1"/>
        <pt x="1466" y="360" on="1"/>
        <pt x="1569" y="559" on="1"/>
      </contour>
      <contour>
        <pt x="455" y="465" on="1"/>
        <pt x="455" y="427" on="0"/>
        <pt x="503" y="379" on="0"/>
        <pt x="545" y="379" on="1"/>
        <pt x="582" y="379" on="0"/>
        <pt x="633" y="427" on="0"/>
        <pt x="633" y="465" on="1"/>
        <pt x="633" y="507" on="0"/>
        <pt x="582" y="553" on="0"/>
        <pt x="545" y="553" on="1"/>
        <pt x="503" y="553" on="0"/>
        <pt x="455" y="507" on="0"/>
      </contour>
    </TTGlyph>
    <TTGlyph name="uni200C" xMin="-54" yMin="-339" xMax="54" yMax="1613">
      <contour>
        <pt x="-54" y="-339" on="1"/>
        <pt x="-54" y="1613" on="1"/>
        <pt x="54" y="1613" on="1"/>
        <pt x="54" y="-339" on="1"/>
      </contour>
    </TTGlyph>
    <TTGlyph name="uni200D" xMin="-299" yMin="-338" xMax="299" yMax="1613">
      <contour>
        <pt x="74" y="1323" on="1"/>
        <pt x="299" y="1103" on="1"/>
        <pt x="224" y="1030" on="1"/>
        <pt x="54" y="1199" on="1"/>
        <pt x="54" y="-338" on="1"/>
        <pt x="-54" y="-338" on="1"/>
        <pt x="-54" y="1199" on="1"/>
        <pt x="-224" y="1030" on="1"/>
        <pt x="-299" y="1103" on="1"/>
        <pt x="-74" y="1323" on="1"/>
        <pt x="-299" y="1540" on="1"/>
        <pt x="-224" y="1613" on="1"/>
        <pt x="0" y="1393" on="1"/>
        <pt x="224" y="1613" on="1"/>
        <pt x="299" y="1539" on="1"/>
      </contour>
    </TTGlyph>
</ttFont>
